<svg width="319" height="64" viewBox="0 0 319 64" fill="none" xmlns="http://www.w3.org/2000/svg">
<path opacity="0.2" d="M10.352 14.472C10.48 14.824 10.3573 15 9.984 15H9.152C8.82133 15 8.58667 14.968 8.448 14.904C8.32 14.84 8.224 14.712 8.16 14.52L7.424 12.456H3.008L2.256 14.52C2.192 14.712 2.09067 14.84 1.952 14.904C1.824 14.968 1.59467 15 1.264 15H0.528C0.154667 15 0.032 14.824 0.16 14.472L4.16 4.072C4.23467 3.89067 4.31467 3.77333 4.4 3.72C4.496 3.656 4.64 3.624 4.832 3.624H5.68C5.872 3.624 6.016 3.656 6.112 3.72C6.208 3.77333 6.288 3.88533 6.352 4.056L10.352 14.472ZM5.648 7.432C5.552 7.144 5.472 6.84 5.408 6.52C5.344 6.18933 5.30133 5.93333 5.28 5.752L5.264 5.48H5.152C5.152 6.088 5.03467 6.73333 4.8 7.416L3.568 10.808H6.864L5.648 7.432ZM11.2215 8.136C11.7975 7.02667 12.9015 6.472 14.5335 6.472C16.8162 6.472 17.9575 7.57067 17.9575 9.768V13.912C17.9575 14.1893 17.9148 14.3867 17.8295 14.504C17.7548 14.6213 17.6055 14.728 17.3815 14.824C16.7415 15.1013 15.7815 15.24 14.5015 15.24C13.1468 15.24 12.2135 15.032 11.7015 14.616C11.1895 14.1893 10.9335 13.5333 10.9335 12.648C10.9335 11.6987 11.2108 11.032 11.7655 10.648C12.3308 10.264 13.2642 10.072 14.5655 10.072C14.6828 10.072 15.1948 10.0987 16.1015 10.152V9.704C16.1015 9.18133 15.9788 8.78667 15.7335 8.52C15.4882 8.25333 15.0775 8.12 14.5015 8.12C13.7122 8.12 13.1522 8.376 12.8215 8.888C12.7042 9.05867 12.6028 9.16 12.5175 9.192C12.4428 9.21333 12.3148 9.192 12.1335 9.128L11.4935 8.856C11.1415 8.696 11.0508 8.456 11.2215 8.136ZM16.1015 11.672C14.9815 11.6187 14.4002 11.592 14.3575 11.592C13.7815 11.592 13.3815 11.6773 13.1575 11.848C12.9335 12.0187 12.8215 12.28 12.8215 12.632C12.8215 12.9947 12.9228 13.2667 13.1255 13.448C13.3388 13.6187 13.7388 13.704 14.3255 13.704C15.0082 13.704 15.5415 13.6613 15.9255 13.576C16.0428 13.5333 16.1015 13.4587 16.1015 13.352V11.672ZM30.5864 3.64C30.789 3.64 30.9277 3.68267 31.0024 3.768C31.0877 3.84267 31.1304 3.98133 31.1304 4.184V4.968C31.1304 5.17067 31.0877 5.31467 31.0024 5.4C30.9277 5.47467 30.789 5.512 30.5864 5.512H25.3544V8.056H28.3944C29.4717 8.056 30.3304 8.36533 30.9704 8.984C31.6104 9.60267 31.9304 10.4507 31.9304 11.528C31.9304 12.6053 31.6104 13.4533 30.9704 14.072C30.3304 14.6907 29.4717 15 28.3944 15H23.8824C23.6904 15 23.5517 14.9627 23.4664 14.888C23.381 14.8133 23.3384 14.68 23.3384 14.488V4.184C23.3384 3.98133 23.381 3.84267 23.4664 3.768C23.5517 3.68267 23.6957 3.64 23.8984 3.64H30.5864ZM29.3864 12.696C29.6744 12.408 29.8184 12.0187 29.8184 11.528C29.8184 11.0373 29.6744 10.648 29.3864 10.36C29.0984 10.072 28.6984 9.928 28.1864 9.928H25.3544V13.128H28.1864C28.6984 13.128 29.0984 12.984 29.3864 12.696ZM38.135 3.32C38.6257 3.32 38.999 3.26133 39.255 3.144C39.5857 2.97333 39.8203 3.08 39.959 3.464L40.183 4.088C40.2363 4.28 40.2417 4.424 40.199 4.52C40.1563 4.60533 40.0497 4.696 39.879 4.792C39.5377 4.96267 38.967 5.048 38.167 5.048H37.639C36.5937 5.048 35.8843 5.24 35.511 5.624C35.1377 5.99733 34.951 6.67467 34.951 7.656V7.912C35.3883 7.25067 36.1777 6.92 37.319 6.92C38.343 6.92 39.1483 7.21333 39.735 7.8C40.3217 8.376 40.615 9.17067 40.615 10.184V11.992C40.615 13.016 40.295 13.816 39.655 14.392C39.0257 14.9573 38.1137 15.24 36.919 15.24C35.7243 15.24 34.807 14.9573 34.167 14.392C33.5377 13.816 33.223 13.016 33.223 11.992V8.168C33.223 6.472 33.5537 5.24 34.215 4.472C34.8763 3.704 36.0123 3.32 37.623 3.32H38.135ZM38.743 10.184C38.743 9.128 38.135 8.6 36.919 8.6C36.343 8.6 35.9003 8.73333 35.591 9C35.2817 9.26667 35.1163 9.608 35.095 10.024V11.976C35.095 12.488 35.2497 12.8827 35.559 13.16C35.8683 13.4267 36.3217 13.56 36.919 13.56C37.5163 13.56 37.9697 13.4267 38.279 13.16C38.5883 12.8827 38.743 12.488 38.743 11.976V10.184ZM50.846 3.64C51.8807 3.64 52.686 3.90133 53.262 4.424C53.838 4.936 54.126 5.672 54.126 6.632C54.126 7.76267 53.7207 8.568 52.91 9.048V9.112C53.998 9.496 54.542 10.4187 54.542 11.88C54.542 12.8613 54.2113 13.6293 53.55 14.184C52.8887 14.728 52.0193 15 50.942 15H46.414C46.2113 15 46.0673 14.9627 45.982 14.888C45.8967 14.8027 45.854 14.6587 45.854 14.456V4.184C45.854 3.98133 45.8967 3.84267 45.982 3.768C46.0673 3.68267 46.2113 3.64 46.414 3.64H50.846ZM50.606 8.328C51.5873 8.328 52.078 7.85867 52.078 6.92C52.078 5.98133 51.5873 5.512 50.606 5.512H47.87V8.328H50.606ZM52.414 11.656C52.414 10.6533 51.9073 10.152 50.894 10.152H47.87V13.128H50.894C51.9073 13.128 52.414 12.6373 52.414 11.656ZM62.8523 9C62.8523 9.74667 62.5963 10.3067 62.0843 10.68C62.8096 11.096 63.1723 11.752 63.1723 12.648C63.1723 13.3627 62.9429 13.9333 62.4843 14.36C62.0256 14.7867 61.4069 15 60.6283 15H56.5803C56.3883 15 56.2549 14.9627 56.1803 14.888C56.1163 14.8133 56.0843 14.6853 56.0843 14.504V7.208C56.0843 7.016 56.1163 6.888 56.1803 6.824C56.2549 6.74933 56.3883 6.712 56.5803 6.712H60.4043C61.1829 6.712 61.7856 6.92 62.2123 7.336C62.6389 7.752 62.8523 8.30667 62.8523 9ZM60.1003 10.008C60.3776 10.008 60.5963 9.928 60.7563 9.768C60.9163 9.608 60.9963 9.4 60.9963 9.144C60.9963 8.87733 60.9163 8.66933 60.7563 8.52C60.5963 8.36 60.3723 8.28 60.0843 8.28H57.9403V10.008H60.1003ZM60.2603 13.432C60.5589 13.432 60.7936 13.3467 60.9643 13.176C61.1456 12.9947 61.2363 12.7547 61.2363 12.456C61.2363 12.168 61.1456 11.944 60.9643 11.784C60.7936 11.6133 60.5536 11.528 60.2443 11.528H57.9403V13.432H60.2603ZM74.7548 3.64C74.9574 3.64 75.0961 3.68267 75.1708 3.768C75.2561 3.84267 75.2987 3.98133 75.2987 4.184V4.968C75.2987 5.17067 75.2561 5.31467 75.1708 5.4C75.0961 5.47467 74.9574 5.512 74.7548 5.512H70.3388V14.456C70.3388 14.6587 70.2961 14.8027 70.2108 14.888C70.1361 14.9627 69.9974 15 69.7948 15H68.8828C68.6801 15 68.5361 14.9627 68.4508 14.888C68.3654 14.8027 68.3228 14.6587 68.3228 14.456V4.184C68.3228 3.98133 68.3654 3.84267 68.4508 3.768C68.5361 3.68267 68.6801 3.64 68.8828 3.64H74.7548ZM80.1131 6.712C80.2945 6.712 80.4225 6.74933 80.4971 6.824C80.5718 6.888 80.6091 7.01067 80.6091 7.192V7.928C80.6091 8.10933 80.5718 8.23733 80.4971 8.312C80.4225 8.38667 80.2945 8.424 80.1131 8.424H76.7371V14.504C76.7371 14.6853 76.6998 14.8133 76.6251 14.888C76.5505 14.9627 76.4225 15 76.2411 15H75.3611C75.1798 15 75.0518 14.9627 74.9771 14.888C74.9131 14.8133 74.8811 14.6853 74.8811 14.504V7.192C74.8811 7.01067 74.9131 6.888 74.9771 6.824C75.0518 6.74933 75.1798 6.712 75.3611 6.712H80.1131ZM93.9125 3.64C94.1152 3.64 94.2592 3.68267 94.3445 3.768C94.4298 3.84267 94.4725 3.98133 94.4725 4.184V13.128H95.3045C95.5072 13.128 95.6458 13.1707 95.7205 13.256C95.8058 13.3307 95.8485 13.4693 95.8485 13.672V16.904C95.8485 17.1067 95.8058 17.2453 95.7205 17.32C95.6458 17.4053 95.5072 17.448 95.3045 17.448H94.4245C94.2218 17.448 94.0778 17.4053 93.9925 17.32C93.9178 17.2453 93.8805 17.1067 93.8805 16.904V15H86.5685V16.904C86.5685 17.1067 86.5258 17.2453 86.4405 17.32C86.3658 17.4053 86.2272 17.448 86.0245 17.448H85.1605C84.9578 17.448 84.8138 17.4053 84.7285 17.32C84.6538 17.2453 84.6165 17.1067 84.6165 16.904V13.672C84.6165 13.4693 84.6538 13.3307 84.7285 13.256C84.8138 13.1707 84.9578 13.128 85.1605 13.128H85.5285C85.7312 12.9893 85.9072 12.8187 86.0565 12.616C86.2058 12.4133 86.3552 12.1093 86.5045 11.704C86.6645 11.2987 86.7872 10.744 86.8725 10.04C86.9578 9.32533 87.0005 8.47733 87.0005 7.496V4.184C87.0005 3.98133 87.0378 3.84267 87.1125 3.768C87.1978 3.68267 87.3418 3.64 87.5445 3.64H93.9125ZM88.9365 5.512V7.48C88.9365 10.1253 88.5792 12.008 87.8645 13.128H92.4565V5.512H88.9365ZM105.293 13.272C105.474 13.272 105.602 13.3093 105.677 13.384C105.751 13.4587 105.789 13.592 105.789 13.784V16.728C105.789 16.9093 105.751 17.0373 105.677 17.112C105.602 17.1867 105.474 17.224 105.293 17.224H104.493C104.311 17.224 104.178 17.1867 104.093 17.112C104.018 17.0373 103.981 16.9093 103.981 16.728V15H98.2846V16.728C98.2846 16.9093 98.2473 17.0373 98.1726 17.112C98.098 17.1867 97.97 17.224 97.7886 17.224H96.9726C96.7913 17.224 96.6633 17.1867 96.5886 17.112C96.5246 17.0373 96.4926 16.9093 96.4926 16.728V13.784C96.4926 13.592 96.5246 13.4587 96.5886 13.384C96.6633 13.3093 96.7913 13.272 96.9726 13.272H97.3246C97.986 12.76 98.3166 11.512 98.3166 9.528V7.192C98.3166 7.01067 98.3486 6.888 98.4126 6.824C98.4873 6.74933 98.6153 6.712 98.7966 6.712H104.061C104.242 6.712 104.37 6.74933 104.445 6.824C104.519 6.888 104.557 7.01067 104.557 7.192V13.272H105.293ZM100.109 9.656C100.109 11.288 99.89 12.4933 99.4526 13.272H102.701V8.424H100.109V9.656ZM117.563 3.64C117.766 3.64 117.91 3.68267 117.995 3.768C118.08 3.84267 118.123 3.98133 118.123 4.184V4.968C118.123 5.17067 118.08 5.31467 117.995 5.4C117.91 5.47467 117.766 5.512 117.563 5.512H112.667V8.312H116.811C117.014 8.312 117.152 8.35467 117.227 8.44C117.312 8.51467 117.355 8.65333 117.355 8.856V9.64C117.355 9.84267 117.312 9.98667 117.227 10.072C117.152 10.1467 117.014 10.184 116.811 10.184H112.667V13.128H117.739C117.942 13.128 118.08 13.1707 118.155 13.256C118.24 13.3307 118.283 13.4693 118.283 13.672V14.456C118.283 14.6587 118.24 14.8027 118.155 14.888C118.08 14.9627 117.942 15 117.739 15H111.211C111.008 15 110.864 14.9627 110.779 14.888C110.694 14.8027 110.651 14.6587 110.651 14.456V4.184C110.651 3.98133 110.694 3.84267 110.779 3.768C110.864 3.68267 111.008 3.64 111.211 3.64H117.563ZM119.312 9.928C119.312 8.808 119.627 7.95467 120.256 7.368C120.896 6.77067 121.819 6.472 123.024 6.472C124.24 6.472 125.157 6.78133 125.776 7.4C126.405 8.01867 126.72 8.81333 126.72 9.784V10.76C126.72 11.2187 126.48 11.448 126 11.448H121.168V12.04C121.168 12.5627 121.323 12.9627 121.632 13.24C121.952 13.5067 122.405 13.64 122.992 13.64C123.888 13.64 124.517 13.3573 124.88 12.792C125.008 12.6107 125.125 12.5093 125.232 12.488C125.349 12.456 125.504 12.4933 125.696 12.6L126.256 12.904C126.619 13.0747 126.683 13.3413 126.448 13.704C125.819 14.728 124.667 15.24 122.992 15.24C121.744 15.24 120.816 14.9307 120.208 14.312C119.611 13.6933 119.312 12.8613 119.312 11.816V9.928ZM124.864 9.672C124.864 9.14933 124.709 8.74933 124.4 8.472C124.091 8.184 123.632 8.04 123.024 8.04C122.427 8.04 121.968 8.184 121.648 8.472C121.328 8.74933 121.168 9.14933 121.168 9.672V10.024H124.864V9.672ZM134.094 0.903999C134.414 0.903999 134.632 0.967999 134.75 1.096C134.878 1.21333 134.942 1.42667 134.942 1.736V1.896C134.942 2.20533 134.878 2.424 134.75 2.552C134.632 2.66933 134.414 2.728 134.094 2.728H133.982C133.662 2.728 133.443 2.66933 133.326 2.552C133.208 2.424 133.15 2.20533 133.15 1.896V1.736C133.15 1.42667 133.208 1.21333 133.326 1.096C133.443 0.967999 133.662 0.903999 133.982 0.903999H134.094ZM137.294 0.903999C137.614 0.903999 137.832 0.967999 137.95 1.096C138.078 1.21333 138.142 1.42667 138.142 1.736V1.896C138.142 2.20533 138.078 2.424 137.95 2.552C137.832 2.66933 137.614 2.728 137.294 2.728H137.198C136.878 2.728 136.654 2.66933 136.526 2.552C136.408 2.424 136.35 2.20533 136.35 1.896V1.736C136.35 1.42667 136.408 1.21333 136.526 1.096C136.654 0.967999 136.878 0.903999 137.198 0.903999H137.294ZM138.782 3.64C138.984 3.64 139.128 3.68267 139.214 3.768C139.299 3.84267 139.342 3.98133 139.342 4.184V4.968C139.342 5.17067 139.299 5.31467 139.214 5.4C139.128 5.47467 138.984 5.512 138.782 5.512H133.886V8.312H138.03C138.232 8.312 138.371 8.35467 138.446 8.44C138.531 8.51467 138.574 8.65333 138.574 8.856V9.64C138.574 9.84267 138.531 9.98667 138.446 10.072C138.371 10.1467 138.232 10.184 138.03 10.184H133.886V13.128H138.958C139.16 13.128 139.299 13.1707 139.374 13.256C139.459 13.3307 139.502 13.4693 139.502 13.672V14.456C139.502 14.6587 139.459 14.8027 139.374 14.888C139.299 14.9627 139.16 15 138.958 15H132.43C132.227 15 132.083 14.9627 131.998 14.888C131.912 14.8027 131.87 14.6587 131.87 14.456V4.184C131.87 3.98133 131.912 3.84267 131.998 3.768C132.083 3.68267 132.227 3.64 132.43 3.64H138.782ZM142.691 3.656C143.011 3.656 143.229 3.72 143.347 3.848C143.475 3.96533 143.539 4.17867 143.539 4.488V4.632C143.539 4.94133 143.475 5.16 143.347 5.288C143.229 5.40533 143.011 5.464 142.691 5.464H142.579C142.259 5.464 142.04 5.40533 141.923 5.288C141.805 5.16 141.747 4.94133 141.747 4.632V4.488C141.747 4.17867 141.805 3.96533 141.923 3.848C142.04 3.72 142.259 3.656 142.579 3.656H142.691ZM145.891 3.656C146.211 3.656 146.429 3.72 146.547 3.848C146.664 3.96533 146.723 4.17867 146.723 4.488V4.632C146.723 4.94133 146.664 5.16 146.547 5.288C146.429 5.40533 146.211 5.464 145.891 5.464H145.795C145.464 5.464 145.24 5.40533 145.123 5.288C145.005 5.17067 144.947 4.952 144.947 4.632V4.488C144.947 4.17867 145.005 3.96533 145.123 3.848C145.24 3.72 145.464 3.656 145.795 3.656H145.891ZM140.531 9.928C140.531 8.808 140.845 7.95467 141.475 7.368C142.115 6.77067 143.037 6.472 144.243 6.472C145.459 6.472 146.376 6.78133 146.995 7.4C147.624 8.01867 147.939 8.81333 147.939 9.784V10.76C147.939 11.2187 147.699 11.448 147.219 11.448H142.387V12.04C142.387 12.5627 142.541 12.9627 142.851 13.24C143.171 13.5067 143.624 13.64 144.211 13.64C145.107 13.64 145.736 13.3573 146.099 12.792C146.227 12.6107 146.344 12.5093 146.451 12.488C146.568 12.456 146.723 12.4933 146.915 12.6L147.475 12.904C147.837 13.0747 147.901 13.3413 147.667 13.704C147.037 14.728 145.885 15.24 144.211 15.24C142.963 15.24 142.035 14.9307 141.427 14.312C140.829 13.6933 140.531 12.8613 140.531 11.816V9.928ZM146.083 9.672C146.083 9.14933 145.928 8.74933 145.619 8.472C145.309 8.184 144.851 8.04 144.243 8.04C143.645 8.04 143.187 8.184 142.867 8.472C142.547 8.74933 142.387 9.14933 142.387 9.672V10.024H146.083V9.672ZM166.288 3.64C166.48 3.64 166.598 3.69333 166.64 3.8C166.694 3.90667 166.667 4.02933 166.56 4.168L163.36 8.936C163.872 9.256 164.326 9.79467 164.72 10.552L166.736 14.456C166.832 14.6053 166.859 14.7333 166.816 14.84C166.774 14.9467 166.656 15 166.464 15H165.536C165.195 15 164.95 14.968 164.8 14.904C164.662 14.84 164.544 14.712 164.448 14.52L162.848 11.272C162.624 10.8347 162.384 10.5413 162.128 10.392C161.872 10.232 161.472 10.152 160.928 10.152H160.512V14.456C160.512 14.6587 160.47 14.8027 160.384 14.888C160.31 14.9627 160.171 15 159.968 15H159.056C158.854 15 158.71 14.9627 158.624 14.888C158.55 14.8027 158.512 14.6587 158.512 14.456V10.152H158.096C157.552 10.152 157.152 10.232 156.896 10.392C156.64 10.5413 156.4 10.8347 156.176 11.272L154.576 14.52C154.48 14.712 154.358 14.84 154.208 14.904C154.07 14.968 153.83 15 153.488 15H152.56C152.368 15 152.251 14.9467 152.208 14.84C152.166 14.7333 152.192 14.6053 152.288 14.456L154.32 10.552C154.694 9.80533 155.142 9.26667 155.664 8.936L152.464 4.168C152.368 4.02933 152.342 3.90667 152.384 3.8C152.438 3.69333 152.555 3.64 152.736 3.64H153.76C154.091 3.64 154.32 3.66667 154.448 3.72C154.587 3.77333 154.72 3.896 154.848 4.088L157.552 8.344C157.691 8.33333 157.872 8.328 158.096 8.328H158.512V4.184C158.512 3.98133 158.55 3.84267 158.624 3.768C158.71 3.68267 158.854 3.64 159.056 3.64H159.968C160.171 3.64 160.31 3.68267 160.384 3.768C160.47 3.84267 160.512 3.98133 160.512 4.184V8.328H160.928C161.174 8.328 161.355 8.33333 161.472 8.344L164.176 4.088C164.304 3.896 164.432 3.77333 164.56 3.72C164.699 3.66667 164.939 3.64 165.28 3.64H166.288ZM173.463 6.712C173.666 6.712 173.804 6.74933 173.879 6.824C173.954 6.888 173.991 7.016 173.991 7.208V9.912H174.471H174.663L176.471 7.08C176.578 6.90933 176.69 6.808 176.807 6.776C176.924 6.73333 177.132 6.712 177.431 6.712H178.215C178.684 6.712 178.791 6.904 178.535 7.288L176.343 10.424C176.674 10.6373 176.988 11.032 177.287 11.608L178.679 14.408C178.786 14.6213 178.818 14.776 178.775 14.872C178.732 14.9573 178.594 15 178.359 15H177.559C177.282 15 177.09 14.9733 176.983 14.92C176.876 14.8667 176.78 14.744 176.695 14.552L175.703 12.424C175.479 11.9013 175.058 11.64 174.439 11.64H173.991V14.488C173.991 14.68 173.954 14.8133 173.879 14.888C173.804 14.9627 173.666 15 173.463 15H172.647C172.444 15 172.306 14.9627 172.231 14.888C172.167 14.8133 172.135 14.68 172.135 14.488V11.64H171.671C171.063 11.64 170.642 11.9013 170.407 12.424L169.415 14.552C169.33 14.744 169.234 14.8667 169.127 14.92C169.031 14.9733 168.844 15 168.567 15H167.751C167.516 15 167.378 14.9573 167.335 14.872C167.292 14.776 167.324 14.6213 167.431 14.408L168.839 11.608C169.116 11.0533 169.426 10.6587 169.767 10.424L167.575 7.288C167.319 6.904 167.426 6.712 167.895 6.712H168.679C168.978 6.712 169.186 6.73333 169.303 6.776C169.42 6.808 169.532 6.90933 169.639 7.08L171.463 9.912H171.655H172.135V7.208C172.135 7.016 172.167 6.888 172.231 6.824C172.306 6.74933 172.444 6.712 172.647 6.712H173.463ZM191.731 6.664C191.731 7.80533 191.304 8.61067 190.451 9.08C191.539 9.54933 192.083 10.4667 192.083 11.832C192.083 12.9093 191.731 13.7467 191.027 14.344C190.333 14.9413 189.283 15.24 187.875 15.24C185.325 15.24 183.736 14.344 183.107 12.552C182.979 12.2107 183.091 11.976 183.443 11.848L184.323 11.544C184.515 11.48 184.659 11.4747 184.755 11.528C184.851 11.5707 184.936 11.688 185.011 11.88C185.192 12.392 185.501 12.7707 185.939 13.016C186.376 13.2507 187.021 13.368 187.875 13.368C189.272 13.368 189.971 12.824 189.971 11.736C189.971 11.2347 189.837 10.8453 189.571 10.568C189.304 10.28 188.915 10.136 188.403 10.136H186.163C185.96 10.136 185.816 10.0987 185.731 10.024C185.656 9.93867 185.619 9.79467 185.619 9.592V8.872C185.619 8.66933 185.656 8.53067 185.731 8.456C185.816 8.37067 185.96 8.328 186.163 8.328H188.163C188.653 8.328 189.027 8.19467 189.283 7.928C189.549 7.66133 189.683 7.29333 189.683 6.824C189.683 5.78933 189.037 5.272 187.747 5.272C186.968 5.272 186.376 5.38933 185.971 5.624C185.576 5.85867 185.288 6.232 185.107 6.744C185.032 6.936 184.947 7.05867 184.851 7.112C184.755 7.15467 184.611 7.144 184.419 7.08L183.539 6.776C183.187 6.648 183.075 6.41333 183.203 6.072C183.832 4.29067 185.389 3.4 187.875 3.4C189.123 3.4 190.077 3.688 190.739 4.264C191.4 4.82933 191.731 5.62933 191.731 6.664ZM193.232 8.552C193.424 7.99733 193.824 7.512 194.432 7.096C195.051 6.68 195.846 6.472 196.816 6.472C199.035 6.472 200.144 7.30933 200.144 8.984C200.144 9.85867 199.83 10.424 199.2 10.68V10.76C199.958 11.08 200.336 11.7307 200.336 12.712C200.336 14.3973 199.179 15.24 196.864 15.24C195.862 15.24 195.046 15.0427 194.416 14.648C193.798 14.2427 193.36 13.736 193.104 13.128C192.955 12.7547 193.072 12.5147 193.456 12.408L194.16 12.2C194.363 12.136 194.512 12.1253 194.608 12.168C194.704 12.2107 194.79 12.328 194.864 12.52C195.174 13.2453 195.846 13.608 196.88 13.608C197.915 13.608 198.432 13.2453 198.432 12.52C198.432 12.2213 198.342 11.992 198.16 11.832C197.99 11.6613 197.734 11.576 197.392 11.576H195.856C195.675 11.576 195.547 11.5387 195.472 11.464C195.398 11.3893 195.36 11.2613 195.36 11.08V10.552C195.36 10.36 195.398 10.232 195.472 10.168C195.547 10.0933 195.675 10.056 195.856 10.056H197.264C197.574 10.056 197.819 9.98133 198 9.832C198.182 9.672 198.272 9.45333 198.272 9.176C198.272 8.46133 197.787 8.104 196.816 8.104C196.326 8.104 195.926 8.21067 195.616 8.424C195.318 8.63733 195.11 8.88267 194.992 9.16C194.918 9.352 194.827 9.47467 194.72 9.528C194.624 9.57067 194.48 9.56 194.288 9.496L193.568 9.272C193.216 9.15467 193.104 8.91467 193.232 8.552ZM213.942 3.64C214.145 3.64 214.284 3.68267 214.358 3.768C214.444 3.84267 214.486 3.98133 214.486 4.184V14.456C214.486 14.6587 214.444 14.8027 214.358 14.888C214.284 14.9627 214.145 15 213.942 15H213.03C212.828 15 212.684 14.9627 212.598 14.888C212.524 14.8027 212.486 14.6587 212.486 14.456V9.768C212.486 8.95733 212.508 8.33867 212.55 7.912C212.604 7.47467 212.71 6.872 212.87 6.104H212.806C212.444 7.032 211.91 8.04533 211.206 9.144L207.542 14.728C207.436 14.9093 207.254 15 206.998 15H206.07C205.868 15 205.724 14.9627 205.638 14.888C205.553 14.8027 205.51 14.6587 205.51 14.456V4.184C205.51 3.98133 205.553 3.84267 205.638 3.768C205.724 3.68267 205.868 3.64 206.07 3.64H206.982C207.185 3.64 207.324 3.68267 207.398 3.768C207.484 3.84267 207.526 3.98133 207.526 4.184V8.824C207.526 9.63467 207.5 10.264 207.446 10.712C207.404 11.16 207.302 11.768 207.142 12.536H207.206C207.601 11.5227 208.156 10.4667 208.87 9.368L212.47 3.896C212.588 3.72533 212.764 3.64 212.998 3.64H213.942ZM217.897 6.712C218.079 6.712 218.207 6.74933 218.281 6.824C218.356 6.888 218.393 7.01067 218.393 7.192V10.248C218.393 11.0053 218.281 11.784 218.057 12.584H218.105C218.319 12.072 218.617 11.5333 219.001 10.968L221.833 6.952C221.951 6.792 222.111 6.712 222.313 6.712H223.193C223.375 6.712 223.497 6.74933 223.561 6.824C223.636 6.888 223.673 7.01067 223.673 7.192V14.504C223.673 14.6853 223.636 14.8133 223.561 14.888C223.497 14.9627 223.375 15 223.193 15H222.313C222.132 15 222.004 14.9627 221.929 14.888C221.855 14.8133 221.817 14.6853 221.817 14.504V11.496C221.817 10.7493 221.935 9.96533 222.169 9.144H222.121C221.951 9.56 221.641 10.0987 221.193 10.76L218.393 14.744C218.265 14.9147 218.1 15 217.897 15H217.017C216.836 15 216.708 14.9627 216.633 14.888C216.569 14.8133 216.537 14.6853 216.537 14.504V7.192C216.537 7.01067 216.569 6.888 216.633 6.824C216.708 6.74933 216.836 6.712 217.017 6.712H217.897ZM237.838 14.456C238.03 14.8187 237.939 15 237.566 15H236.638C236.286 15 236.04 14.9733 235.902 14.92C235.763 14.856 235.646 14.7227 235.55 14.52L233.934 11.272C233.71 10.8347 233.47 10.5413 233.214 10.392C232.968 10.232 232.574 10.152 232.03 10.152H231.214V14.456C231.214 14.6587 231.171 14.8027 231.086 14.888C231.011 14.9627 230.872 15 230.67 15H229.758C229.555 15 229.411 14.9627 229.326 14.888C229.24 14.8027 229.198 14.6587 229.198 14.456V4.184C229.198 3.98133 229.24 3.84267 229.326 3.768C229.411 3.68267 229.555 3.64 229.758 3.64H230.67C230.872 3.64 231.011 3.68267 231.086 3.768C231.171 3.84267 231.214 3.98133 231.214 4.184V8.328H231.854H232.062L235.278 4.088C235.416 3.896 235.55 3.77333 235.678 3.72C235.816 3.66667 236.046 3.64 236.366 3.64H237.39C237.571 3.64 237.683 3.69333 237.726 3.8C237.779 3.90667 237.752 4.02933 237.646 4.168L234.078 8.728C234.76 9.02667 235.336 9.63467 235.806 10.552L237.838 14.456ZM246.032 14.408C246.139 14.6213 246.171 14.776 246.128 14.872C246.085 14.9573 245.947 15 245.712 15H244.912C244.635 15 244.443 14.9733 244.336 14.92C244.24 14.8667 244.144 14.744 244.048 14.552L243.056 12.424C242.928 12.136 242.768 11.9333 242.576 11.816C242.384 11.6987 242.123 11.64 241.792 11.64H240.784V14.488C240.784 14.68 240.747 14.8133 240.672 14.888C240.597 14.9627 240.459 15 240.256 15H239.44C239.237 15 239.099 14.9627 239.024 14.888C238.96 14.8133 238.928 14.68 238.928 14.488V7.208C238.928 7.016 238.96 6.888 239.024 6.824C239.099 6.74933 239.237 6.712 239.44 6.712H240.256C240.459 6.712 240.597 6.74933 240.672 6.824C240.747 6.888 240.784 7.016 240.784 7.208V9.912H241.52H241.664L243.824 7.08C243.941 6.90933 244.053 6.808 244.16 6.776C244.277 6.73333 244.485 6.712 244.784 6.712H245.568C246.08 6.712 246.187 6.904 245.888 7.288L243.488 10.28C243.915 10.4933 244.299 10.936 244.64 11.608L246.032 14.408ZM259.043 3.64C259.245 3.64 259.384 3.68267 259.459 3.768C259.544 3.84267 259.587 3.98133 259.587 4.184V14.456C259.587 14.6587 259.544 14.8027 259.459 14.888C259.384 14.9627 259.245 15 259.043 15H258.115C257.912 15 257.768 14.9627 257.683 14.888C257.608 14.8027 257.571 14.6587 257.571 14.456V5.512H254.179V7.592C254.179 8.69067 254.12 9.656 254.003 10.488C253.885 11.32 253.741 11.9867 253.571 12.488C253.4 12.9893 253.171 13.4267 252.883 13.8C252.595 14.1733 252.323 14.4453 252.067 14.616C251.821 14.7867 251.517 14.9627 251.155 15.144C250.973 15.2293 250.824 15.2507 250.707 15.208C250.6 15.176 250.509 15.0693 250.435 14.888L250.019 14.088C249.859 13.7573 249.944 13.512 250.275 13.352C250.499 13.2453 250.675 13.144 250.803 13.048C250.941 12.952 251.112 12.7707 251.315 12.504C251.517 12.2267 251.672 11.9013 251.779 11.528C251.896 11.1547 251.997 10.632 252.083 9.96C252.168 9.27733 252.211 8.488 252.211 7.592V4.184C252.211 3.98133 252.253 3.84267 252.339 3.768C252.424 3.68267 252.568 3.64 252.771 3.64H259.043ZM267.936 6.712C268.117 6.712 268.245 6.74933 268.32 6.824C268.395 6.888 268.432 7.01067 268.432 7.192V14.504C268.432 14.6853 268.395 14.8133 268.32 14.888C268.245 14.9627 268.117 15 267.936 15H267.072C266.891 15 266.763 14.9627 266.688 14.888C266.613 14.8133 266.576 14.6853 266.576 14.504V8.424H264.144V9.688C264.144 10.648 264.08 11.4693 263.952 12.152C263.824 12.8347 263.632 13.3733 263.376 13.768C263.12 14.152 262.875 14.4453 262.64 14.648C262.405 14.84 262.117 15.016 261.776 15.176C261.509 15.2933 261.307 15.208 261.168 14.92L260.752 14.088C260.624 13.8427 260.688 13.6507 260.944 13.512C261.147 13.4053 261.307 13.304 261.424 13.208C261.552 13.1013 261.696 12.92 261.856 12.664C262.016 12.3973 262.133 12.008 262.208 11.496C262.293 10.9733 262.336 10.3333 262.336 9.576V7.192C262.336 7.01067 262.373 6.888 262.448 6.824C262.523 6.74933 262.651 6.712 262.832 6.712H267.936ZM284.171 3.64C284.374 3.64 284.513 3.68267 284.587 3.768C284.673 3.84267 284.715 3.98133 284.715 4.184V14.456C284.715 14.6587 284.673 14.8027 284.587 14.888C284.513 14.9627 284.374 15 284.171 15H283.355C283.153 15 283.009 14.9627 282.923 14.888C282.849 14.8027 282.811 14.6587 282.811 14.456V9.576C282.811 8.616 282.939 7.55467 283.195 6.392H283.083C282.774 7.32 282.337 8.296 281.771 9.32L280.203 12.088C280.043 12.344 279.835 12.472 279.579 12.472H279.067C278.897 12.472 278.769 12.4507 278.683 12.408C278.609 12.3547 278.529 12.248 278.443 12.088L276.843 9.304C276.353 8.472 275.942 7.50133 275.611 6.392H275.499C275.723 7.48 275.835 8.54667 275.835 9.592V14.456C275.835 14.6587 275.793 14.8027 275.707 14.888C275.633 14.9627 275.494 15 275.291 15H274.523C274.321 15 274.177 14.9627 274.091 14.888C274.006 14.8027 273.963 14.6587 273.963 14.456V4.184C273.963 3.98133 274.006 3.84267 274.091 3.768C274.177 3.68267 274.321 3.64 274.523 3.64H275.227C275.451 3.64 275.611 3.66667 275.707 3.72C275.814 3.77333 275.91 3.88533 275.995 4.056L279.323 10.008L282.651 4.072C282.747 3.89067 282.838 3.77333 282.923 3.72C283.019 3.66667 283.174 3.64 283.387 3.64H284.171ZM294.644 6.712C294.868 6.712 295.012 6.74933 295.076 6.824C295.151 6.89867 295.188 7.03733 295.188 7.24V14.504C295.188 14.696 295.151 14.8293 295.076 14.904C295.001 14.968 294.873 15 294.692 15H293.94C293.737 15 293.604 14.968 293.54 14.904C293.476 14.84 293.444 14.7067 293.444 14.504V11.608C293.444 11.0213 293.556 10.232 293.78 9.24H293.716C293.481 9.912 293.209 10.504 292.9 11.016L291.78 12.968C291.684 13.1173 291.599 13.2187 291.524 13.272C291.449 13.3147 291.332 13.336 291.172 13.336H290.724C290.564 13.336 290.441 13.3147 290.356 13.272C290.281 13.2187 290.201 13.112 290.116 12.952L288.996 11.032C288.697 10.52 288.431 9.91733 288.196 9.224H288.132C288.345 10.2907 288.452 11.1013 288.452 11.656V14.504C288.452 14.696 288.415 14.8293 288.34 14.904C288.276 14.968 288.153 15 287.972 15H287.252C287.049 15 286.916 14.968 286.852 14.904C286.788 14.84 286.756 14.7067 286.756 14.504V7.24C286.756 7.03733 286.788 6.89867 286.852 6.824C286.927 6.74933 287.076 6.712 287.3 6.712H287.94C288.143 6.712 288.287 6.73867 288.372 6.792C288.468 6.84533 288.559 6.952 288.644 7.112L290.964 11.272L293.252 7.128C293.348 6.95733 293.439 6.84533 293.524 6.792C293.609 6.73867 293.748 6.712 293.94 6.712H294.644ZM308.906 3.64C309.108 3.64 309.252 3.68267 309.338 3.768C309.423 3.84267 309.466 3.98133 309.466 4.184V14.456C309.466 14.6587 309.423 14.8027 309.338 14.888C309.252 14.9627 309.108 15 308.906 15H307.994C307.791 15 307.647 14.9627 307.562 14.888C307.487 14.8027 307.45 14.6587 307.45 14.456V10.184H302.714V14.456C302.714 14.6587 302.671 14.8027 302.586 14.888C302.511 14.9627 302.372 15 302.17 15H301.258C301.055 15 300.911 14.9627 300.826 14.888C300.74 14.8027 300.698 14.6587 300.698 14.456V4.184C300.698 3.98133 300.74 3.84267 300.826 3.768C300.911 3.68267 301.055 3.64 301.258 3.64H302.17C302.372 3.64 302.511 3.68267 302.586 3.768C302.671 3.84267 302.714 3.98133 302.714 4.184V8.312H307.45V4.184C307.45 3.98133 307.487 3.84267 307.562 3.768C307.647 3.68267 307.791 3.64 307.994 3.64H308.906ZM318.067 6.712C318.248 6.712 318.371 6.74933 318.435 6.824C318.509 6.888 318.547 7.01067 318.547 7.192V14.504C318.547 14.6853 318.509 14.8133 318.435 14.888C318.371 14.9627 318.248 15 318.067 15H317.187C317.005 15 316.877 14.9627 316.803 14.888C316.728 14.8133 316.691 14.6853 316.691 14.504V11.64H313.347V14.504C313.347 14.6853 313.309 14.8133 313.235 14.888C313.16 14.9627 313.032 15 312.851 15H311.971C311.789 15 311.661 14.9627 311.587 14.888C311.523 14.8133 311.491 14.6853 311.491 14.504V7.192C311.491 7.01067 311.523 6.888 311.587 6.824C311.661 6.74933 311.789 6.712 311.971 6.712H312.851C313.032 6.712 313.16 6.74933 313.235 6.824C313.309 6.888 313.347 7.01067 313.347 7.192V9.912H316.691V7.192C316.691 7.01067 316.728 6.888 316.803 6.824C316.877 6.74933 317.005 6.712 317.187 6.712H318.067ZM0.784 31.576C0.784 30.2747 1.17867 29.256 1.968 28.52C2.768 27.7733 3.89867 27.4 5.36 27.4C6.81067 27.4 7.93067 27.7733 8.72 28.52C9.52 29.256 9.92 30.2747 9.92 31.576V35.064C9.92 36.3653 9.52 37.3893 8.72 38.136C7.93067 38.872 6.81067 39.24 5.36 39.24C3.89867 39.24 2.768 38.872 1.968 38.136C1.17867 37.3893 0.784 36.3653 0.784 35.064V31.576ZM7.92 31.56C7.92 30.824 7.696 30.2587 7.248 29.864C6.81067 29.4693 6.18133 29.272 5.36 29.272C4.53867 29.272 3.904 29.4693 3.456 29.864C3.01867 30.248 2.8 30.8133 2.8 31.56V35.08C2.8 35.8267 3.01867 36.3973 3.456 36.792C3.904 37.176 4.53867 37.368 5.36 37.368C6.18133 37.368 6.81067 37.1707 7.248 36.776C7.696 36.3813 7.92 35.816 7.92 35.08V31.56ZM11.3591 33.672C11.3591 32.6693 11.6791 31.8853 12.3191 31.32C12.9591 30.7547 13.8658 30.472 15.0391 30.472C16.2231 30.472 17.1351 30.7547 17.7751 31.32C18.4151 31.8853 18.7351 32.6693 18.7351 33.672V36.04C18.7351 37.0427 18.4151 37.8267 17.7751 38.392C17.1351 38.9573 16.2231 39.24 15.0391 39.24C13.8658 39.24 12.9591 38.9573 12.3191 38.392C11.6791 37.8267 11.3591 37.0427 11.3591 36.04V33.672ZM16.8791 33.672C16.8791 33.1813 16.7191 32.808 16.3991 32.552C16.0791 32.2853 15.6258 32.152 15.0391 32.152C14.4525 32.152 13.9991 32.2853 13.6791 32.552C13.3698 32.808 13.2151 33.1813 13.2151 33.672V36.04C13.2151 36.52 13.3698 36.8933 13.6791 37.16C13.9991 37.4267 14.4525 37.56 15.0391 37.56C15.6258 37.56 16.0791 37.4267 16.3991 37.16C16.7191 36.8933 16.8791 36.52 16.8791 36.04V33.672ZM32.1226 27.64C32.3253 27.64 32.464 27.6827 32.5386 27.768C32.624 27.8427 32.6666 27.9813 32.6666 28.184V38.456C32.6666 38.6587 32.624 38.8027 32.5386 38.888C32.464 38.9627 32.3253 39 32.1226 39H31.2106C31.008 39 30.864 38.9627 30.7786 38.888C30.704 38.8027 30.6666 38.6587 30.6666 38.456V29.512H26.0106V38.456C26.0106 38.6587 25.968 38.8027 25.8826 38.888C25.808 38.9627 25.6693 39 25.4666 39H24.5546C24.352 39 24.208 38.9627 24.1226 38.888C24.0373 38.8027 23.9946 38.6587 23.9946 38.456V28.184C23.9946 27.9813 24.0373 27.8427 24.1226 27.768C24.208 27.6827 24.352 27.64 24.5546 27.64H32.1226ZM41.2053 30.712C41.3973 30.712 41.5253 30.7493 41.5893 30.824C41.6639 30.888 41.7013 31.0107 41.7013 31.192V38.504C41.7013 38.6853 41.6639 38.8133 41.5893 38.888C41.5253 38.9627 41.3973 39 41.2053 39H40.3413C40.1599 39 40.0319 38.9627 39.9573 38.888C39.8826 38.8133 39.8453 38.6853 39.8453 38.504V32.424H36.5653V38.504C36.5653 38.6853 36.5279 38.8133 36.4533 38.888C36.3786 38.9627 36.2506 39 36.0693 39H35.1893C35.0079 39 34.8799 38.9627 34.8053 38.888C34.7413 38.8133 34.7093 38.6853 34.7093 38.504V31.192C34.7093 31.0107 34.7413 30.888 34.8053 30.824C34.8799 30.7493 35.0079 30.712 35.1893 30.712H41.2053ZM52.029 27.64C53.1917 27.64 54.109 27.9707 54.781 28.632C55.4637 29.2933 55.805 30.2 55.805 31.352C55.805 32.504 55.4637 33.4107 54.781 34.072C54.109 34.7227 53.1917 35.048 52.029 35.048H49.245V38.456C49.245 38.6587 49.2023 38.8027 49.117 38.888C49.0423 38.9627 48.9037 39 48.701 39H47.789C47.5863 39 47.4423 38.9627 47.357 38.888C47.2717 38.8027 47.229 38.6587 47.229 38.456V28.184C47.229 27.9813 47.2717 27.8427 47.357 27.768C47.4423 27.6827 47.5863 27.64 47.789 27.64H52.029ZM51.837 33.176C52.4237 33.176 52.877 33.016 53.197 32.696C53.5277 32.376 53.693 31.928 53.693 31.352C53.693 30.776 53.5277 30.328 53.197 30.008C52.877 29.6773 52.4237 29.512 51.837 29.512H49.245V33.176H51.837ZM57.645 30.936C58.4877 30.6267 59.5223 30.472 60.749 30.472C61.8797 30.472 62.7223 30.7493 63.277 31.304C63.8423 31.8587 64.125 32.6587 64.125 33.704V35.896C64.125 38.1253 62.9357 39.24 60.557 39.24C60.173 39.24 59.613 39.144 58.877 38.952V42.024C58.877 42.2053 58.8397 42.3333 58.765 42.408C58.701 42.4827 58.5783 42.52 58.397 42.52H57.517C57.3357 42.52 57.2077 42.4827 57.133 42.408C57.0583 42.3333 57.021 42.2053 57.021 42.024V31.848C57.021 31.592 57.0583 31.4053 57.133 31.288C57.2183 31.16 57.389 31.0427 57.645 30.936ZM62.269 33.752C62.269 32.696 61.6717 32.168 60.477 32.168C59.933 32.168 59.453 32.2267 59.037 32.344C58.9303 32.3867 58.877 32.456 58.877 32.552V37.304C59.4957 37.464 60.013 37.544 60.429 37.544C61.6557 37.544 62.269 36.9733 62.269 35.832V33.752ZM69.0809 31.56C69.0809 30.2693 69.4755 29.256 70.2649 28.52C71.0649 27.7733 72.1955 27.4 73.6569 27.4C75.9289 27.4 77.3795 28.2907 78.0089 30.072C78.1369 30.4133 78.0249 30.648 77.6729 30.776L76.7929 31.08C76.6009 31.144 76.4569 31.1547 76.3609 31.112C76.2649 31.0587 76.1795 30.936 76.1049 30.744C75.7529 29.7627 74.9369 29.272 73.6569 29.272C72.8355 29.272 72.2009 29.4693 71.7529 29.864C71.3155 30.248 71.0969 30.808 71.0969 31.544V35.08C71.0969 35.816 71.3155 36.3813 71.7529 36.776C72.2009 37.1707 72.8355 37.368 73.6569 37.368C74.9262 37.368 75.7422 36.872 76.1049 35.88C76.1902 35.6773 76.2809 35.5547 76.3769 35.512C76.4729 35.4587 76.6169 35.4693 76.8089 35.544L77.6729 35.848C78.0249 35.976 78.1422 36.2107 78.0249 36.552C77.3955 38.344 75.9395 39.24 73.6569 39.24C72.1955 39.24 71.0649 38.872 70.2649 38.136C69.4755 37.3893 69.0809 36.3653 69.0809 35.064V31.56ZM79.1873 33.752C79.1873 32.7067 79.4913 31.9013 80.0993 31.336C80.7179 30.76 81.6406 30.472 82.8673 30.472C83.7739 30.472 84.5153 30.664 85.0913 31.048C85.6779 31.432 86.0779 31.9387 86.2913 32.568C86.3553 32.7707 86.3606 32.9253 86.3073 33.032C86.2539 33.128 86.1313 33.2133 85.9393 33.288L85.2353 33.512C85.0433 33.5867 84.8939 33.5973 84.7873 33.544C84.6913 33.4907 84.6059 33.368 84.5313 33.176C84.2539 32.4613 83.6726 32.104 82.7873 32.104C81.6246 32.104 81.0433 32.6267 81.0433 33.672V36.04C81.0433 36.5413 81.1926 36.9307 81.4913 37.208C81.7899 37.4747 82.2219 37.608 82.7873 37.608C83.6726 37.608 84.2539 37.24 84.5313 36.504C84.6059 36.312 84.6913 36.1947 84.7873 36.152C84.8939 36.1093 85.0433 36.12 85.2353 36.184L85.9553 36.392C86.3179 36.5307 86.4299 36.7707 86.2913 37.112C85.7366 38.5307 84.5473 39.24 82.7233 39.24C81.5393 39.24 80.6539 38.9573 80.0673 38.392C79.4806 37.816 79.1873 37.0053 79.1873 35.96V33.752ZM98.5849 27.64C98.7875 27.64 98.9262 27.6827 99.0009 27.768C99.0862 27.8427 99.1289 27.9813 99.1289 28.184V28.968C99.1289 29.1707 99.0862 29.3147 99.0009 29.4C98.9262 29.4747 98.7875 29.512 98.5849 29.512H95.8329V38.456C95.8329 38.6587 95.7902 38.8027 95.7049 38.888C95.6302 38.9627 95.4915 39 95.2889 39H94.3609C94.1582 39 94.0142 38.9627 93.9289 38.888C93.8542 38.8027 93.8169 38.6587 93.8169 38.456V29.512H91.0649C90.8622 29.512 90.7182 29.4747 90.6329 29.4C90.5582 29.3147 90.5209 29.1707 90.5209 28.968V28.184C90.5209 27.9813 90.5582 27.8427 90.6329 27.768C90.7182 27.6827 90.8622 27.64 91.0649 27.64H98.5849ZM104.799 30.712C104.98 30.712 105.108 30.7493 105.183 30.824C105.257 30.888 105.295 31.0107 105.295 31.192V31.928C105.295 32.1093 105.257 32.2373 105.183 32.312C105.108 32.3867 104.98 32.424 104.799 32.424H102.719V38.504C102.719 38.6853 102.681 38.8133 102.607 38.888C102.532 38.9627 102.404 39 102.223 39H101.359C101.177 39 101.049 38.9627 100.975 38.888C100.9 38.8133 100.863 38.6853 100.863 38.504V32.424H98.7665C98.5852 32.424 98.4572 32.3867 98.3825 32.312C98.3078 32.2373 98.2705 32.1093 98.2705 31.928V31.192C98.2705 31.0107 98.3078 30.888 98.3825 30.824C98.4572 30.7493 98.5852 30.712 98.7665 30.712H104.799ZM118.36 27.64C118.691 27.64 118.781 27.8213 118.632 28.184L113.864 38.52C113.779 38.7227 113.677 38.856 113.56 38.92C113.453 38.9733 113.256 39 112.968 39H111.88C111.517 39 111.427 38.8187 111.608 38.456L113 35.672L109.128 28.184C108.936 27.8213 109.027 27.64 109.4 27.64H110.344C110.6 27.64 110.776 27.6453 110.872 27.656C110.968 27.6667 111.059 27.7093 111.144 27.784C111.24 27.848 111.325 27.96 111.4 28.12L114.04 33.432L116.456 28.12C116.552 27.896 116.653 27.7627 116.76 27.72C116.867 27.6667 117.091 27.64 117.432 27.64H118.36ZM125.409 30.712C125.59 30.712 125.718 30.7493 125.793 30.824C125.868 30.888 125.905 31.0107 125.905 31.192V39.272C125.905 40.3707 125.617 41.224 125.041 41.832C124.476 42.4507 123.59 42.76 122.385 42.76C120.796 42.76 119.686 42.248 119.057 41.224C118.833 40.872 118.902 40.6053 119.265 40.424L119.873 40.088C120.065 39.992 120.214 39.9547 120.321 39.976C120.438 40.008 120.556 40.1093 120.673 40.28C121.014 40.824 121.574 41.096 122.353 41.096C123.484 41.096 124.049 40.52 124.049 39.368V38.616C123.388 38.7653 122.753 38.84 122.145 38.84C121.025 38.84 120.188 38.5627 119.633 38.008C119.078 37.4533 118.801 36.6587 118.801 35.624V31.192C118.801 31.0107 118.838 30.888 118.913 30.824C118.988 30.7493 119.116 30.712 119.297 30.712H120.177C120.358 30.712 120.481 30.7493 120.545 30.824C120.62 30.888 120.657 31.0107 120.657 31.192V35.56C120.657 36.616 121.238 37.144 122.401 37.144C122.924 37.144 123.473 37.0693 124.049 36.92V31.192C124.049 31.0107 124.086 30.888 124.161 30.824C124.236 30.7493 124.364 30.712 124.545 30.712H125.409ZM137.464 27.24C137.667 27.24 137.811 27.2827 137.896 27.368C137.981 27.4427 138.024 27.5813 138.024 27.784V28.6H138.856C140.253 28.6 141.32 28.9573 142.056 29.672C142.803 30.3867 143.176 31.384 143.176 32.664V33.896C143.176 35.176 142.803 36.1733 142.056 36.888C141.32 37.6027 140.253 37.96 138.856 37.96H138.024V38.776C138.024 38.9787 137.981 39.1173 137.896 39.192C137.811 39.2773 137.667 39.32 137.464 39.32H136.552C136.349 39.32 136.205 39.2773 136.12 39.192C136.045 39.1173 136.008 38.9787 136.008 38.776V37.96H135.176C133.779 37.96 132.707 37.6027 131.96 36.888C131.224 36.1733 130.856 35.176 130.856 33.896V32.664C130.856 31.384 131.224 30.3867 131.96 29.672C132.707 28.9573 133.779 28.6 135.176 28.6H136.008V27.784C136.008 27.5813 136.045 27.4427 136.12 27.368C136.205 27.2827 136.349 27.24 136.552 27.24H137.464ZM135.176 30.408C133.64 30.408 132.872 31.1333 132.872 32.584V33.976C132.872 35.4267 133.64 36.152 135.176 36.152H136.008V30.408H135.176ZM141.16 32.584C141.16 31.1333 140.392 30.408 138.856 30.408H138.024V36.152H138.856C140.392 36.152 141.16 35.4267 141.16 33.976V32.584ZM150.567 30.52C150.844 30.488 151.122 30.472 151.399 30.472C153.746 30.472 154.919 31.6453 154.919 33.992V35.72C154.919 36.8933 154.615 37.7733 154.007 38.36C153.41 38.9467 152.54 39.24 151.399 39.24C151.09 39.24 150.812 39.2187 150.567 39.176V42.024C150.567 42.2053 150.53 42.3333 150.455 42.408C150.38 42.4827 150.252 42.52 150.071 42.52H149.191C149.01 42.52 148.882 42.4827 148.807 42.408C148.743 42.3333 148.711 42.2053 148.711 42.024V39.176C148.466 39.2187 148.183 39.24 147.863 39.24C146.722 39.24 145.847 38.9467 145.239 38.36C144.642 37.7733 144.343 36.8933 144.343 35.72V34.008C144.343 32.8347 144.642 31.9547 145.239 31.368C145.847 30.7707 146.722 30.472 147.863 30.472C148.162 30.472 148.444 30.488 148.711 30.52V27.672C148.711 27.4907 148.743 27.3627 148.807 27.288C148.882 27.2133 149.01 27.176 149.191 27.176H150.071C150.252 27.176 150.38 27.2133 150.455 27.288C150.53 27.3627 150.567 27.4907 150.567 27.672V30.52ZM146.199 35.672C146.199 36.92 146.796 37.544 147.991 37.544C148.247 37.544 148.503 37.528 148.759 37.496V32.2C148.418 32.1787 148.162 32.168 147.991 32.168C146.796 32.168 146.199 32.8027 146.199 34.072V35.672ZM153.063 34.04C153.063 32.792 152.466 32.168 151.271 32.168C151.1 32.168 150.844 32.1787 150.503 32.2V37.496C150.759 37.528 151.015 37.544 151.271 37.544C152.466 37.544 153.063 36.92 153.063 35.672V34.04ZM168.983 38.44C169.1 38.5787 169.132 38.7067 169.079 38.824C169.036 38.9413 168.919 39 168.727 39H167.607C167.276 39 167.047 38.9733 166.919 38.92C166.791 38.8667 166.663 38.7333 166.535 38.52L164.087 34.76L161.735 38.52C161.585 38.7333 161.452 38.8667 161.335 38.92C161.217 38.9733 160.999 39 160.679 39H159.639C159.436 39 159.313 38.9467 159.271 38.84C159.228 38.7227 159.26 38.5893 159.367 38.44L162.887 33.208L159.495 28.152C159.388 28.024 159.356 27.9067 159.399 27.8C159.452 27.6933 159.575 27.64 159.767 27.64H160.839C161.159 27.64 161.377 27.6667 161.495 27.72C161.612 27.7733 161.745 27.896 161.895 28.088L164.183 31.624L166.471 28.088C166.62 27.896 166.748 27.7733 166.855 27.72C166.972 27.6667 167.18 27.64 167.479 27.64H168.583C168.764 27.64 168.876 27.6933 168.919 27.8C168.972 27.9067 168.945 28.024 168.839 28.152L165.415 33.192L168.983 38.44ZM176.546 30.712C177.026 30.712 177.138 30.904 176.882 31.288L174.482 34.728L177.042 38.424C177.319 38.808 177.202 39 176.69 39H175.922C175.655 39 175.468 38.9787 175.362 38.936C175.255 38.8827 175.143 38.7653 175.026 38.584L173.298 36.072L171.65 38.584C171.532 38.7653 171.42 38.8827 171.314 38.936C171.207 38.9787 171.02 39 170.754 39H170.002C169.714 39 169.543 38.952 169.49 38.856C169.436 38.76 169.484 38.616 169.634 38.424L172.194 34.744L169.746 31.288C169.468 30.904 169.596 30.712 170.13 30.712H170.85C171.127 30.712 171.319 30.7387 171.426 30.792C171.543 30.8453 171.655 30.9573 171.762 31.128L173.346 33.384L174.898 31.128C175.015 30.9467 175.122 30.8347 175.218 30.792C175.314 30.7387 175.495 30.712 175.762 30.712H176.546ZM191.403 37.128C191.605 37.128 191.744 37.1707 191.819 37.256C191.904 37.3307 191.947 37.4693 191.947 37.672V40.904C191.947 41.1067 191.904 41.2453 191.819 41.32C191.744 41.4053 191.605 41.448 191.403 41.448H190.555C190.352 41.448 190.208 41.4053 190.123 41.32C190.048 41.2453 190.011 41.1067 190.011 40.904V39H182.555C182.352 39 182.208 38.9627 182.123 38.888C182.037 38.8027 181.995 38.6587 181.995 38.456V28.184C181.995 27.9813 182.037 27.8427 182.123 27.768C182.208 27.6827 182.352 27.64 182.555 27.64H183.467C183.669 27.64 183.808 27.6827 183.883 27.768C183.968 27.8427 184.011 27.9813 184.011 28.184V37.128H188.587V28.184C188.587 27.9813 188.624 27.8427 188.699 27.768C188.784 27.6827 188.928 27.64 189.131 27.64H190.043C190.245 27.64 190.389 27.6827 190.475 27.768C190.56 27.8427 190.603 27.9813 190.603 28.184V37.128H191.403ZM200.842 37.272C201.023 37.272 201.146 37.3093 201.21 37.384C201.285 37.4587 201.322 37.592 201.322 37.784V40.728C201.322 40.9093 201.285 41.0373 201.21 41.112C201.146 41.1867 201.023 41.224 200.842 41.224H200.026C199.845 41.224 199.717 41.1867 199.642 41.112C199.567 41.0373 199.53 40.9093 199.53 40.728V39H193.658C193.477 39 193.349 38.9627 193.274 38.888C193.21 38.8133 193.178 38.6853 193.178 38.504V31.192C193.178 31.0107 193.21 30.888 193.274 30.824C193.349 30.7493 193.477 30.712 193.658 30.712H194.538C194.719 30.712 194.847 30.7493 194.922 30.824C194.997 30.888 195.034 31.0107 195.034 31.192V37.272H198.25V31.192C198.25 31.0107 198.282 30.888 198.346 30.824C198.421 30.7493 198.549 30.712 198.73 30.712H199.61C199.791 30.712 199.919 30.7493 199.994 30.824C200.069 30.888 200.106 31.0107 200.106 31.192V37.272H200.842ZM213.686 27.64C213.889 27.64 214.027 27.6827 214.102 27.768C214.187 27.8427 214.23 27.9813 214.23 28.184V38.456C214.23 38.6587 214.187 38.8027 214.102 38.888C214.027 38.9627 213.889 39 213.686 39H212.774C212.571 39 212.427 38.9627 212.342 38.888C212.267 38.8027 212.23 38.6587 212.23 38.456V34.648C211.601 34.7867 210.801 34.856 209.83 34.856C208.379 34.856 207.318 34.5253 206.646 33.864C205.985 33.2027 205.654 32.2267 205.654 30.936V28.184C205.654 27.9813 205.697 27.8427 205.782 27.768C205.867 27.6827 206.011 27.64 206.214 27.64H207.126C207.329 27.64 207.467 27.6827 207.542 27.768C207.627 27.8427 207.67 27.9813 207.67 28.184V30.936C207.67 32.312 208.422 33 209.926 33C210.737 33 211.505 32.9147 212.23 32.744V28.184C212.23 27.9813 212.267 27.8427 212.342 27.768C212.427 27.6827 212.571 27.64 212.774 27.64H213.686ZM215.745 31.192C215.745 31.0107 215.783 30.888 215.857 30.824C215.932 30.7493 216.06 30.712 216.241 30.712H217.105C217.287 30.712 217.415 30.7493 217.489 30.824C217.564 30.888 217.601 31.0107 217.601 31.192V33.016C217.601 34.0293 218.161 34.536 219.281 34.536C219.985 34.536 220.487 34.4613 220.785 34.312V31.192C220.785 31.0107 220.823 30.888 220.897 30.824C220.972 30.7493 221.1 30.712 221.281 30.712H222.145C222.327 30.712 222.455 30.7493 222.529 30.824C222.604 30.888 222.641 31.0107 222.641 31.192V38.504C222.641 38.6853 222.604 38.8133 222.529 38.888C222.455 38.9627 222.327 39 222.145 39H221.281C221.1 39 220.972 38.9627 220.897 38.888C220.823 38.8133 220.785 38.6853 220.785 38.504V36.056C220.551 36.1733 219.964 36.232 219.025 36.232C216.839 36.232 215.745 35.176 215.745 33.064V31.192ZM240.231 27.64C240.433 27.64 240.572 27.6827 240.647 27.768C240.732 27.8427 240.775 27.9813 240.775 28.184V38.456C240.775 38.6587 240.732 38.8027 240.647 38.888C240.572 38.9627 240.433 39 240.231 39H228.727C228.524 39 228.38 38.9627 228.295 38.888C228.209 38.8027 228.167 38.6587 228.167 38.456V28.184C228.167 27.9813 228.209 27.8427 228.295 27.768C228.38 27.6827 228.524 27.64 228.727 27.64H229.639C229.841 27.64 229.98 27.6827 230.055 27.768C230.14 27.8427 230.183 27.9813 230.183 28.184V37.128H233.479V28.184C233.479 27.9813 233.516 27.8427 233.591 27.768C233.676 27.6827 233.82 27.64 234.023 27.64H234.935C235.137 27.64 235.276 27.6827 235.351 27.768C235.436 27.8427 235.479 27.9813 235.479 28.184V37.128H238.775V28.184C238.775 27.9813 238.812 27.8427 238.887 27.768C238.972 27.6827 239.116 27.64 239.319 27.64H240.231ZM252.803 30.712C252.984 30.712 253.112 30.7493 253.187 30.824C253.261 30.888 253.299 31.0107 253.299 31.192V38.504C253.299 38.6853 253.261 38.8133 253.187 38.888C253.112 38.9627 252.984 39 252.803 39H243.299C243.117 39 242.989 38.9627 242.915 38.888C242.851 38.8133 242.819 38.6853 242.819 38.504V31.192C242.819 31.0107 242.851 30.888 242.915 30.824C242.989 30.7493 243.117 30.712 243.299 30.712H244.179C244.36 30.712 244.488 30.7493 244.563 30.824C244.637 30.888 244.675 31.0107 244.675 31.192V37.272H247.123V31.192C247.123 31.0107 247.16 30.888 247.235 30.824C247.309 30.7493 247.437 30.712 247.619 30.712H248.499C248.68 30.712 248.803 30.7493 248.867 30.824C248.941 30.888 248.979 31.0107 248.979 31.192V37.272H251.443V31.192C251.443 31.0107 251.48 30.888 251.555 30.824C251.629 30.7493 251.757 30.712 251.939 30.712H252.803ZM272.262 37.128C272.465 37.128 272.604 37.1707 272.678 37.256C272.764 37.3307 272.806 37.4693 272.806 37.672V40.904C272.806 41.1067 272.764 41.2453 272.678 41.32C272.604 41.4053 272.465 41.448 272.262 41.448H271.414C271.212 41.448 271.068 41.4053 270.982 41.32C270.908 41.2453 270.87 41.1067 270.87 40.904V39H259.398C259.196 39 259.052 38.9627 258.966 38.888C258.881 38.8027 258.838 38.6587 258.838 38.456V28.184C258.838 27.9813 258.881 27.8427 258.966 27.768C259.052 27.6827 259.196 27.64 259.398 27.64H260.31C260.513 27.64 260.652 27.6827 260.726 27.768C260.812 27.8427 260.854 27.9813 260.854 28.184V37.128H264.15V28.184C264.15 27.9813 264.188 27.8427 264.262 27.768C264.348 27.6827 264.492 27.64 264.694 27.64H265.606C265.809 27.64 265.948 27.6827 266.022 27.768C266.108 27.8427 266.15 27.9813 266.15 28.184V37.128H269.446V28.184C269.446 27.9813 269.484 27.8427 269.558 27.768C269.644 27.6827 269.788 27.64 269.99 27.64H270.902C271.105 27.64 271.244 27.6827 271.318 27.768C271.404 27.8427 271.446 27.9813 271.446 28.184V37.128H272.262ZM285.269 37.272C285.45 37.272 285.573 37.3093 285.637 37.384C285.712 37.4587 285.749 37.592 285.749 37.784V40.728C285.749 40.9093 285.712 41.0373 285.637 41.112C285.573 41.1867 285.45 41.224 285.269 41.224H284.453C284.272 41.224 284.144 41.1867 284.069 41.112C283.994 41.0373 283.957 40.9093 283.957 40.728V39H274.533C274.352 39 274.224 38.9627 274.149 38.888C274.085 38.8133 274.053 38.6853 274.053 38.504V31.192C274.053 31.0107 274.085 30.888 274.149 30.824C274.224 30.7493 274.352 30.712 274.533 30.712H275.413C275.594 30.712 275.722 30.7493 275.797 30.824C275.872 30.888 275.909 31.0107 275.909 31.192V37.272H278.357V31.192C278.357 31.0107 278.394 30.888 278.469 30.824C278.544 30.7493 278.672 30.712 278.853 30.712H279.733C279.914 30.712 280.037 30.7493 280.101 30.824C280.176 30.888 280.213 31.0107 280.213 31.192V37.272H282.677V31.192C282.677 31.0107 282.714 30.888 282.789 30.824C282.864 30.7493 282.992 30.712 283.173 30.712H284.037C284.218 30.712 284.346 30.7493 284.421 30.824C284.496 30.888 284.533 31.0107 284.533 31.192V37.272H285.269ZM297.212 31.592C298.374 31.592 299.292 31.9227 299.964 32.584C300.636 33.2347 300.972 34.136 300.972 35.288C300.972 36.44 300.636 37.3467 299.964 38.008C299.292 38.6693 298.374 39 297.212 39H292.956C292.753 39 292.609 38.9627 292.524 38.888C292.449 38.8027 292.412 38.6587 292.412 38.456V29.512H290.3C290.097 29.512 289.953 29.4747 289.868 29.4C289.793 29.3147 289.756 29.1707 289.756 28.968V28.184C289.756 27.9813 289.793 27.8427 289.868 27.768C289.953 27.6827 290.097 27.64 290.3 27.64H293.884C294.086 27.64 294.225 27.6827 294.3 27.768C294.385 27.8427 294.428 27.9813 294.428 28.184V31.592H297.212ZM297.02 37.128C297.606 37.128 298.06 36.968 298.38 36.648C298.71 36.3173 298.876 35.864 298.876 35.288C298.876 34.712 298.71 34.264 298.38 33.944C298.06 33.624 297.606 33.464 297.02 33.464H294.428V37.128H297.02ZM307.384 33.08C308.322 33.08 309.058 33.3413 309.592 33.864C310.136 34.3867 310.408 35.1067 310.408 36.024C310.408 36.952 310.136 37.6827 309.592 38.216C309.058 38.7387 308.322 39 307.384 39H303.896C303.714 39 303.586 38.9627 303.512 38.888C303.448 38.8133 303.416 38.6853 303.416 38.504V32.424H301.736C301.554 32.424 301.426 32.3867 301.352 32.312C301.277 32.2373 301.24 32.1093 301.24 31.928V31.192C301.24 31.0107 301.277 30.888 301.352 30.824C301.426 30.7493 301.554 30.712 301.736 30.712H304.776C304.957 30.712 305.085 30.7493 305.16 30.824C305.234 30.888 305.272 31.0107 305.272 31.192V33.08H307.384ZM307.16 37.336C307.565 37.336 307.885 37.2187 308.12 36.984C308.354 36.7387 308.472 36.4187 308.472 36.024C308.472 35.64 308.354 35.336 308.12 35.112C307.885 34.8773 307.565 34.76 307.16 34.76H305.272V37.336H307.16ZM1.664 63C1.46133 63 1.31733 62.9627 1.232 62.888C1.14667 62.8027 1.104 62.6587 1.104 62.456V52.184C1.104 51.9813 1.14667 51.8427 1.232 51.768C1.31733 51.6827 1.46133 51.64 1.664 51.64H2.576C2.77867 51.64 2.91733 51.6827 2.992 51.768C3.07733 51.8427 3.12 51.9813 3.12 52.184V55.592H5.904C7.06667 55.592 7.984 55.9227 8.656 56.584C9.33867 57.2347 9.68 58.136 9.68 59.288C9.68 60.44 9.33867 61.3467 8.656 62.008C7.984 62.6693 7.06667 63 5.904 63H1.664ZM11.376 52.184C11.376 51.9813 11.4133 51.8427 11.488 51.768C11.5733 51.6827 11.7173 51.64 11.92 51.64H12.832C13.0347 51.64 13.1733 51.6827 13.248 51.768C13.3333 51.8427 13.376 51.9813 13.376 52.184V62.456C13.376 62.6587 13.3333 62.8027 13.248 62.888C13.1733 62.9627 13.0347 63 12.832 63H11.92C11.7173 63 11.5733 62.9627 11.488 62.888C11.4133 62.8027 11.376 62.6587 11.376 62.456V52.184ZM3.12 57.464V61.128H5.712C6.29867 61.128 6.752 60.968 7.072 60.648C7.40267 60.3173 7.568 59.864 7.568 59.288C7.568 58.712 7.40267 58.264 7.072 57.944C6.752 57.624 6.29867 57.464 5.712 57.464H3.12ZM19.3804 57.08C20.319 57.08 21.055 57.3413 21.5884 57.864C22.1324 58.3867 22.4044 59.1067 22.4044 60.024C22.4044 60.952 22.1324 61.6827 21.5884 62.216C21.055 62.7387 20.319 63 19.3804 63H15.8924C15.711 63 15.583 62.9627 15.5084 62.888C15.4444 62.8133 15.4124 62.6853 15.4124 62.504V55.192C15.4124 55.0107 15.4444 54.888 15.5084 54.824C15.583 54.7493 15.711 54.712 15.8924 54.712H16.7724C16.9537 54.712 17.0817 54.7493 17.1564 54.824C17.231 54.888 17.2684 55.0107 17.2684 55.192V57.08H19.3804ZM24.5324 54.712C24.7137 54.712 24.8417 54.7493 24.9164 54.824C24.991 54.888 25.0284 55.0107 25.0284 55.192V62.504C25.0284 62.6853 24.991 62.8133 24.9164 62.888C24.8417 62.9627 24.7137 63 24.5324 63H23.6684C23.487 63 23.359 62.9627 23.2844 62.888C23.2097 62.8133 23.1724 62.6853 23.1724 62.504V55.192C23.1724 55.0107 23.2097 54.888 23.2844 54.824C23.359 54.7493 23.487 54.712 23.6684 54.712H24.5324ZM19.1564 61.336C19.5617 61.336 19.8817 61.2187 20.1164 60.984C20.351 60.7387 20.4684 60.4187 20.4684 60.024C20.4684 59.64 20.351 59.336 20.1164 59.112C19.8817 58.8773 19.5617 58.76 19.1564 58.76H17.2684V61.336H19.1564ZM31.1171 63C30.9145 63 30.7705 62.9627 30.6851 62.888C30.5998 62.8027 30.5571 62.6587 30.5571 62.456V52.184C30.5571 51.9813 30.5998 51.8427 30.6851 51.768C30.7705 51.6827 30.9145 51.64 31.1171 51.64H32.0291C32.2318 51.64 32.3705 51.6827 32.4451 51.768C32.5305 51.8427 32.5731 51.9813 32.5731 52.184V55.592H35.3571C36.5198 55.592 37.4371 55.9227 38.1091 56.584C38.7918 57.2347 39.1331 58.136 39.1331 59.288C39.1331 60.44 38.7918 61.3467 38.1091 62.008C37.4371 62.6693 36.5198 63 35.3571 63H31.1171ZM32.5731 57.464V61.128H35.1651C35.7518 61.128 36.2051 60.968 36.5251 60.648C36.8558 60.3173 37.0211 59.864 37.0211 59.288C37.0211 58.712 36.8558 58.264 36.5251 57.944C36.2051 57.624 35.7518 57.464 35.1651 57.464H32.5731ZM44.4585 57.08C45.3972 57.08 46.1332 57.3413 46.6665 57.864C47.2105 58.3867 47.4825 59.1067 47.4825 60.024C47.4825 60.952 47.2105 61.6827 46.6665 62.216C46.1332 62.7387 45.3972 63 44.4585 63H40.9705C40.7892 63 40.6612 62.9627 40.5865 62.888C40.5225 62.8133 40.4905 62.6853 40.4905 62.504V55.192C40.4905 55.0107 40.5225 54.888 40.5865 54.824C40.6612 54.7493 40.7892 54.712 40.9705 54.712H41.8505C42.0318 54.712 42.1598 54.7493 42.2345 54.824C42.3092 54.888 42.3465 55.0107 42.3465 55.192V57.08H44.4585ZM44.2345 61.336C44.6398 61.336 44.9598 61.2187 45.1945 60.984C45.4292 60.7387 45.5465 60.4187 45.5465 60.024C45.5465 59.64 45.4292 59.336 45.1945 59.112C44.9598 58.8773 44.6398 58.76 44.2345 58.76H42.3465V61.336H44.2345ZM51.967 54.072C52.5963 52.2907 54.0523 51.4 56.335 51.4C57.7857 51.4 58.9057 51.7733 59.695 52.52C60.495 53.256 60.895 54.2693 60.895 55.56V59.08C60.895 60.3707 60.495 61.3893 59.695 62.136C58.9057 62.872 57.7857 63.24 56.335 63.24C54.0523 63.24 52.5963 62.344 51.967 60.552C51.839 60.2107 51.951 59.976 52.303 59.848L53.183 59.544C53.5137 59.416 53.743 59.528 53.871 59.88C54.223 60.872 55.0443 61.368 56.335 61.368C57.1563 61.368 57.7857 61.176 58.223 60.792C58.671 60.3973 58.895 59.832 58.895 59.096V58.184H55.007C54.8043 58.184 54.6603 58.1467 54.575 58.072C54.5003 57.9867 54.463 57.8427 54.463 57.64V56.856C54.463 56.6533 54.5003 56.5147 54.575 56.44C54.6603 56.3547 54.8043 56.312 55.007 56.312H58.895V55.544C58.895 54.808 58.671 54.248 58.223 53.864C57.7857 53.4693 57.1563 53.272 56.335 53.272C55.055 53.272 54.239 53.7627 53.887 54.744C53.8123 54.936 53.727 55.0587 53.631 55.112C53.535 55.1547 53.3857 55.144 53.183 55.08L52.319 54.776C51.967 54.648 51.8497 54.4133 51.967 54.072ZM62.1054 56.568C62.3187 55.928 62.7134 55.4213 63.2894 55.048C63.8654 54.664 64.6067 54.472 65.5134 54.472C66.7294 54.472 67.6414 54.76 68.2494 55.336C68.8574 55.9013 69.1614 56.7067 69.1614 57.752V59.944C69.1614 60.9893 68.868 61.8 68.2814 62.376C67.7054 62.952 66.8254 63.24 65.6414 63.24C63.8387 63.24 62.66 62.5253 62.1054 61.096C61.9667 60.7547 62.0787 60.52 62.4414 60.392L63.1614 60.168C63.5027 60.0507 63.7374 60.1573 63.8654 60.488C64.132 61.224 64.7027 61.592 65.5774 61.592C66.7187 61.592 67.2894 61.0693 67.2894 60.024V59.624L64.9054 59.608C64.724 59.608 64.596 59.576 64.5214 59.512C64.4467 59.4373 64.4094 59.3093 64.4094 59.128V58.472C64.4094 58.2907 64.4467 58.168 64.5214 58.104C64.596 58.0293 64.724 57.992 64.9054 57.992H67.2894V57.672C67.2894 56.6267 66.7187 56.104 65.5774 56.104C64.7134 56.104 64.1427 56.4613 63.8654 57.176C63.7907 57.368 63.7 57.4907 63.5934 57.544C63.4974 57.5973 63.3534 57.5867 63.1614 57.512L62.4574 57.288C62.2654 57.2133 62.1427 57.128 62.0894 57.032C62.036 56.9253 62.0414 56.7707 62.1054 56.568ZM78.6405 55.56C78.6405 54.2587 79.0245 53.24 79.7925 52.504C80.5712 51.768 81.6698 51.4 83.0885 51.4C84.5072 51.4 85.6058 51.7733 86.3845 52.52C87.1632 53.256 87.5525 54.2693 87.5525 55.56V59.08C87.5525 60.3707 87.1632 61.3893 86.3845 62.136C85.6058 62.872 84.5072 63.24 83.0885 63.24C81.6698 63.24 80.5712 62.872 79.7925 62.136C79.0245 61.4 78.6405 60.3813 78.6405 59.08V58.184H76.4325V62.456C76.4325 62.6587 76.3898 62.8027 76.3045 62.888C76.2298 62.9627 76.0912 63 75.8885 63H74.9765C74.7738 63 74.6298 62.9627 74.5445 62.888C74.4592 62.8027 74.4165 62.6587 74.4165 62.456V52.184C74.4165 51.9813 74.4592 51.8427 74.5445 51.768C74.6298 51.6827 74.7738 51.64 74.9765 51.64H75.8885C76.0912 51.64 76.2298 51.6827 76.3045 51.768C76.3898 51.8427 76.4325 51.9813 76.4325 52.184V56.312H78.6405V55.56ZM85.5365 55.56C85.5365 54.8133 85.3232 54.248 84.8965 53.864C84.4805 53.4693 83.8778 53.272 83.0885 53.272C82.2992 53.272 81.6912 53.4693 81.2645 53.864C80.8485 54.248 80.6405 54.8133 80.6405 55.56V59.08C80.6405 59.8267 80.8485 60.3973 81.2645 60.792C81.6912 61.176 82.2992 61.368 83.0885 61.368C83.8778 61.368 84.4805 61.176 84.8965 60.792C85.3232 60.3973 85.5365 59.8267 85.5365 59.08V55.56ZM92.5838 57.656C92.5838 56.6533 92.8931 55.8747 93.5118 55.32C94.1304 54.7547 95.0158 54.472 96.1678 54.472C97.3304 54.472 98.2211 54.7547 98.8398 55.32C99.4584 55.8853 99.7678 56.6693 99.7678 57.672V60.056C99.7678 61.0587 99.4584 61.8427 98.8398 62.408C98.2211 62.9627 97.3304 63.24 96.1678 63.24C95.0158 63.24 94.1304 62.9627 93.5118 62.408C92.8931 61.8427 92.5838 61.0587 92.5838 60.056V59.656H91.1278V62.504C91.1278 62.6853 91.0904 62.8133 91.0158 62.888C90.9411 62.9627 90.8131 63 90.6318 63H89.7518C89.5704 63 89.4424 62.9627 89.3678 62.888C89.3038 62.8133 89.2718 62.6853 89.2718 62.504V55.192C89.2718 55.0107 89.3038 54.888 89.3678 54.824C89.4424 54.7493 89.5704 54.712 89.7518 54.712H90.6318C90.8131 54.712 90.9411 54.7493 91.0158 54.824C91.0904 54.888 91.1278 55.0107 91.1278 55.192V57.928H92.5838V57.656ZM97.8958 57.656C97.8958 56.6533 97.3198 56.152 96.1678 56.152C95.6131 56.152 95.1864 56.28 94.8878 56.536C94.5998 56.792 94.4558 57.1653 94.4558 57.656V60.04C94.4558 60.52 94.6051 60.8933 94.9038 61.16C95.2024 61.4267 95.6238 61.56 96.1678 61.56C96.7331 61.56 97.1598 61.4267 97.4478 61.16C97.7464 60.8933 97.8958 60.52 97.8958 60.04V57.656ZM104.658 55.16C104.658 54.0613 104.972 53.2027 105.602 52.584C106.242 51.9547 107.122 51.64 108.242 51.64H112.674C112.876 51.64 113.015 51.6827 113.09 51.768C113.175 51.8427 113.218 51.9813 113.218 52.184V62.456C113.218 62.6587 113.175 62.8027 113.09 62.888C113.015 62.9627 112.876 63 112.674 63H111.746C111.543 63 111.399 62.9627 111.314 62.888C111.239 62.8027 111.202 62.6587 111.202 62.456V58.68H109.97C109.415 58.68 109.01 58.7547 108.754 58.904C108.498 59.0533 108.268 59.352 108.066 59.8L106.85 62.52C106.764 62.7227 106.647 62.856 106.498 62.92C106.359 62.9733 106.114 63 105.762 63H104.834C104.482 63 104.391 62.8187 104.562 62.456L106.194 59.08C106.343 58.7707 106.508 58.536 106.69 58.376C105.335 57.896 104.658 56.824 104.658 55.16ZM108.434 53.512C107.89 53.512 107.474 53.656 107.186 53.944C106.898 54.2213 106.754 54.6267 106.754 55.16C106.754 55.6933 106.898 56.104 107.186 56.392C107.484 56.6693 107.9 56.808 108.434 56.808H111.202V53.512H108.434ZM121.306 54.712C121.487 54.712 121.615 54.7493 121.69 54.824C121.765 54.888 121.802 55.016 121.802 55.208V62.504C121.802 62.6853 121.765 62.8133 121.69 62.888C121.615 62.9627 121.487 63 121.306 63H120.442C120.261 63 120.133 62.9627 120.058 62.888C119.983 62.8133 119.946 62.6853 119.946 62.504V60.328H118.314L116.97 62.568C116.863 62.76 116.757 62.8827 116.65 62.936C116.543 62.9787 116.351 63 116.074 63H115.29C115.002 63 114.831 62.952 114.778 62.856C114.735 62.76 114.783 62.6107 114.922 62.408L116.442 60.072C115.375 59.6453 114.842 58.792 114.842 57.512C114.842 56.648 115.098 55.9653 115.61 55.464C116.122 54.9627 116.821 54.712 117.706 54.712H121.306ZM117.946 56.376C117.594 56.376 117.311 56.4827 117.098 56.696C116.885 56.9093 116.778 57.1813 116.778 57.512C116.778 57.8533 116.885 58.1307 117.098 58.344C117.311 58.5467 117.594 58.648 117.946 58.648H119.946V56.376H117.946Z" fill="white"/>
</svg>
