<svg width="63" height="16" viewBox="0 0 63 16" fill="none" xmlns="http://www.w3.org/2000/svg">
<path d="M6.4 0.799999C7.90667 0.799999 9.1 1.22667 9.98 2.08C10.86 2.93333 11.3 4.10667 11.3 5.6C11.3 7.09333 10.86 8.26667 9.98 9.12C9.11333 9.96 7.92 10.38 6.4 10.38H3.48V14.18C3.48 14.4867 3.42 14.7 3.3 14.82C3.18 14.94 2.96667 15 2.66 15H1.04C0.733333 15 0.52 14.94 0.4 14.82C0.28 14.7 0.22 14.4867 0.22 14.18V1.62C0.22 1.31333 0.28 1.1 0.4 0.979999C0.52 0.859999 0.733333 0.799999 1.04 0.799999H6.4ZM6.06 7.4C6.64667 7.4 7.1 7.24667 7.42 6.94C7.75333 6.62 7.92 6.17333 7.92 5.6C7.92 5.02667 7.75333 4.58 7.42 4.26C7.1 3.92667 6.64667 3.76 6.06 3.76H3.48V7.4H6.06ZM12.5172 6.38C13.2505 4.99333 14.6772 4.3 16.7972 4.3C19.7705 4.3 21.2572 5.70667 21.2572 8.52V13.6C21.2572 13.9467 21.2039 14.2 21.0972 14.36C21.0039 14.5067 20.8105 14.64 20.5172 14.76C19.7172 15.12 18.4572 15.3 16.7372 15.3C15.0039 15.3 13.8039 15.0333 13.1372 14.5C12.4839 13.9667 12.1572 13.1333 12.1572 12C12.1572 10.7733 12.5105 9.92 13.2172 9.44C13.9372 8.96 15.1372 8.72 16.8172 8.72C17.3372 8.72 17.8105 8.73333 18.2372 8.76V8.32C18.2372 7.33333 17.7239 6.84 16.6972 6.84C15.9639 6.84 15.4105 7.08667 15.0372 7.58C14.8639 7.80667 14.7172 7.94667 14.5972 8C14.4905 8.04 14.2972 8.00667 14.0172 7.9L12.9172 7.44C12.4105 7.22667 12.2772 6.87333 12.5172 6.38ZM18.2372 11.06C18.1172 11.06 17.8572 11.0533 17.4572 11.04C17.0572 11.0267 16.7572 11.02 16.5572 11.02C16.0239 11.02 15.6572 11.1067 15.4572 11.28C15.2705 11.44 15.1772 11.6733 15.1772 11.98C15.1772 12.3 15.2705 12.5467 15.4572 12.72C15.6439 12.88 15.9972 12.96 16.5172 12.96C17.2239 12.96 17.7505 12.9333 18.0972 12.88C18.1905 12.8533 18.2372 12.8067 18.2372 12.74V11.06ZM23.8855 5.02C25.0455 4.54 26.4055 4.3 27.9655 4.3C30.8455 4.3 32.2855 5.68 32.2855 8.44V14.26C32.2855 14.54 32.2321 14.7333 32.1255 14.84C32.0188 14.9467 31.8321 15 31.5655 15H30.0055C29.7255 15 29.5321 14.9467 29.4255 14.84C29.3188 14.7333 29.2655 14.54 29.2655 14.26V8.54C29.2655 7.54 28.6988 7.04 27.5655 7.04C27.0455 7.04 26.5788 7.1 26.1655 7.22C26.1255 7.22 26.1055 7.24667 26.1055 7.3V14.26C26.1055 14.54 26.0521 14.7333 25.9455 14.84C25.8388 14.9467 25.6455 15 25.3655 15H23.8255C23.5455 15 23.3521 14.9467 23.2455 14.84C23.1388 14.7333 23.0855 14.54 23.0855 14.26V6.18C23.0855 5.84667 23.1388 5.60667 23.2455 5.46C23.3521 5.3 23.5655 5.15333 23.8855 5.02ZM37.4011 2.2C37.6678 2.2 37.8544 2.25333 37.9611 2.36C38.0678 2.46667 38.1211 2.66 38.1211 2.94V4.6H39.9811C40.2478 4.6 40.4344 4.65333 40.5411 4.76C40.6478 4.86667 40.7011 5.06 40.7011 5.34V6.54C40.7011 6.82 40.6478 7.01333 40.5411 7.12C40.4344 7.22667 40.2478 7.28 39.9811 7.28H38.1211V10.64C38.1211 11.3867 38.2544 11.8867 38.5211 12.14C38.7878 12.38 39.2678 12.5 39.9611 12.5C40.2411 12.5 40.4344 12.5533 40.5411 12.66C40.6478 12.7667 40.7011 12.9667 40.7011 13.26V14.52C40.7011 14.8133 40.6478 15.0067 40.5411 15.1C40.4344 15.2067 40.2411 15.2667 39.9611 15.28C38.2144 15.3333 36.9678 15.0267 36.2211 14.36C35.4744 13.6933 35.1011 12.4933 35.1011 10.76V7.28H34.0411C33.7611 7.28 33.5678 7.22667 33.4611 7.12C33.3544 7.01333 33.3011 6.82 33.3011 6.54V5.34C33.3011 5.06 33.3544 4.86667 33.4611 4.76C33.5678 4.65333 33.7611 4.6 34.0411 4.6H35.1011V2.94C35.1011 2.66 35.1544 2.46667 35.2611 2.36C35.3811 2.25333 35.5744 2.2 35.8411 2.2H37.4011ZM41.8484 8.52C41.8484 7.18667 42.2551 6.15333 43.0684 5.42C43.8818 4.67333 45.0618 4.3 46.6084 4.3C48.1684 4.3 49.3551 4.67333 50.1684 5.42C50.9818 6.15333 51.3884 7.18667 51.3884 8.52V11.1C51.3884 12.4333 50.9818 13.4667 50.1684 14.2C49.3551 14.9333 48.1684 15.3 46.6084 15.3C45.0618 15.3 43.8818 14.9333 43.0684 14.2C42.2551 13.4533 41.8484 12.42 41.8484 11.1V8.52ZM48.3684 8.48C48.3684 7.48 47.7818 6.98 46.6084 6.98C45.4484 6.98 44.8684 7.48 44.8684 8.48V11.12C44.8684 12.12 45.4484 12.62 46.6084 12.62C47.7818 12.62 48.3684 12.12 48.3684 11.12V8.48ZM53.8659 5.02C55.0259 4.54 56.3859 4.3 57.9459 4.3C60.8259 4.3 62.2659 5.68 62.2659 8.44V14.26C62.2659 14.54 62.2126 14.7333 62.1059 14.84C61.9993 14.9467 61.8126 15 61.5459 15H59.9859C59.7059 15 59.5126 14.9467 59.4059 14.84C59.2993 14.7333 59.2459 14.54 59.2459 14.26V8.54C59.2459 7.54 58.6793 7.04 57.5459 7.04C57.0259 7.04 56.5593 7.1 56.1459 7.22C56.1059 7.22 56.0859 7.24667 56.0859 7.3V14.26C56.0859 14.54 56.0326 14.7333 55.9259 14.84C55.8193 14.9467 55.6259 15 55.3459 15H53.8059C53.5259 15 53.3326 14.9467 53.2259 14.84C53.1193 14.7333 53.0659 14.54 53.0659 14.26V6.18C53.0659 5.84667 53.1193 5.60667 53.2259 5.46C53.3326 5.3 53.5459 5.15333 53.8659 5.02Z" fill="white"/>
</svg>
