<svg width="482" height="126" viewBox="0 0 482 126" fill="none" xmlns="http://www.w3.org/2000/svg">
<path d="M86.86 123H116.96L76.024 2.59999H40.936L0 123H30.1L36.12 104.08H80.84L86.86 123ZM44.376 78.28L58.48 34.076L72.584 78.28H44.376ZM186.283 37V45.084C180.607 38.548 172.179 34.592 160.655 34.592C138.123 34.592 119.547 54.372 119.547 80C119.547 105.628 138.123 125.408 160.655 125.408C172.179 125.408 180.607 121.452 186.283 114.916V123H212.083V37H186.283ZM165.815 100.984C153.947 100.984 145.347 92.9 145.347 80C145.347 67.1 153.947 59.016 165.815 59.016C177.683 59.016 186.283 67.1 186.283 80C186.283 92.9 177.683 100.984 165.815 100.984ZM275.731 125.408C306.863 125.408 324.751 99.952 324.751 62.8C324.751 25.648 306.863 0.191992 275.731 0.191992C244.599 0.191992 226.711 25.648 226.711 62.8C226.711 99.952 244.599 125.408 275.731 125.408ZM275.731 98.576C261.283 98.576 254.231 86.02 254.231 62.8C254.231 39.58 261.283 27.024 275.731 27.024C290.179 27.024 297.231 39.58 297.231 62.8C297.231 86.02 290.179 98.576 275.731 98.576ZM359.727 2.59999L328.251 13.952L334.959 37.516L356.287 31.668V123H383.807V2.59999H359.727ZM399.686 123H481.558V96.512H441.138L461.09 76.388C472.098 65.38 479.838 52.996 479.838 38.548C479.838 14.296 460.574 0.191992 439.074 0.191992C422.39 0.191992 406.222 8.62 398.482 26.508L421.702 40.096C424.97 32.528 430.99 27.024 439.418 27.024C447.502 27.024 452.318 32.184 452.318 39.752C452.318 46.804 447.158 53.856 440.106 61.08L399.686 103.048V123Z" fill="white"/>
</svg>
