<svg width="268" height="264" viewBox="0 0 268 264" fill="none" xmlns="http://www.w3.org/2000/svg">
<g opacity="0.1">
<rect y="11" width="100" height="55" fill="white"/>
<rect width="100" height="8" fill="white"/>
<rect y="69" width="22.7" height="63" fill="white"/>
<rect y="135" width="100" height="31.7" fill="white"/>
<rect y="204.4" width="100" height="32" fill="white"/>
<rect y="169.7" width="48.5" height="31.7" fill="white"/>
<rect x="51.5" y="169.7" width="48.5" height="31.7" fill="white"/>
<rect x="25.7002" y="69" width="22.7" height="30" fill="white"/>
<rect x="51.3999" y="69" width="22.7" height="30" fill="white"/>
<rect x="77.1001" y="69" width="22.7" height="30" fill="white"/>
<rect x="25.7002" y="102" width="22.7" height="30" fill="white"/>
<rect x="51.3999" y="102" width="22.7" height="30" fill="white"/>
<rect x="77.1001" y="102" width="22.7" height="30" fill="white"/>
</g>
<g opacity="0.1">
<rect x="124" y="11" width="80" height="36" fill="white"/>
<rect x="124" width="80" height="8" fill="white"/>
<rect x="124" y="50" width="20" height="63" fill="white"/>
<rect x="124" y="116" width="80" height="24" fill="white"/>
<rect x="124" y="177.4" width="80" height="24" fill="white"/>
<rect x="124" y="143" width="38.8" height="31.7" fill="white"/>
<rect x="165.2" y="143" width="38.8" height="31.7" fill="white"/>
<rect x="147" y="50" width="27" height="19" fill="white"/>
<rect x="147" y="72" width="27" height="19" fill="white"/>
<rect x="147" y="94" width="27" height="19" fill="white"/>
<rect x="177" y="50" width="27" height="19" fill="white"/>
<rect x="177" y="72" width="27" height="19" fill="white"/>
<rect x="177" y="94" width="27" height="19" fill="white"/>
</g>
<g opacity="0.1">
<rect x="228" y="7" width="40" height="32" fill="white"/>
<rect x="228" y="42" width="40" height="16" fill="white"/>
<rect x="228" y="61" width="40" height="16" fill="white"/>
<rect x="228" y="80" width="40" height="16" fill="white"/>
<rect x="228" y="99" width="40" height="16" fill="white"/>
<rect x="228" width="40" height="4" fill="white"/>
<rect x="228" y="118" width="40" height="16" fill="white"/>
<rect x="228" y="137" width="40" height="40" fill="white"/>
</g>
<path opacity="0.5" d="M40.4252 251.48L41.0732 251.672V260H39.3212V253.808L38.0012 254.516L37.2692 253.244L40.4252 251.48ZM44.1946 254.3C44.1946 253.476 44.4866 252.796 45.0706 252.26C45.6626 251.724 46.3666 251.456 47.1826 251.456C48.0066 251.456 48.7186 251.728 49.3186 252.272C49.9266 252.808 50.2306 253.488 50.2306 254.312C50.2306 254.896 50.0026 255.54 49.5466 256.244L47.0386 260.144L45.4186 259.652L47.1466 256.964C46.4346 256.964 45.7626 256.724 45.1306 256.244C44.5066 255.756 44.1946 255.108 44.1946 254.3ZM45.9226 254.288C45.9226 254.656 46.0466 254.964 46.2946 255.212C46.5506 255.452 46.8586 255.572 47.2186 255.572C47.5786 255.572 47.8826 255.452 48.1306 255.212C48.3786 254.964 48.5026 254.656 48.5026 254.288C48.5026 253.912 48.3786 253.604 48.1306 253.364C47.8826 253.116 47.5786 252.992 47.2186 252.992C46.8586 252.992 46.5506 253.116 46.2946 253.364C46.0466 253.604 45.9226 253.912 45.9226 254.288ZM52.116 260L51.84 259.388L54.648 255.608C54.936 255.224 55.14 254.916 55.26 254.684C55.38 254.444 55.44 254.208 55.44 253.976C55.44 253.704 55.356 253.484 55.188 253.316C55.02 253.148 54.792 253.064 54.504 253.064C53.928 253.064 53.516 253.32 53.268 253.832L51.888 253.148C52.152 252.62 52.512 252.208 52.968 251.912C53.432 251.608 53.94 251.456 54.492 251.456C55.292 251.456 55.94 251.692 56.436 252.164C56.932 252.628 57.18 253.228 57.18 253.964C57.18 254.676 56.868 255.448 56.244 256.28L54.588 258.464H57.324V260H52.116ZM64.3454 252.656C64.8494 253.456 65.1014 254.504 65.1014 255.8C65.1014 257.096 64.8494 258.144 64.3454 258.944C63.8414 259.744 63.1134 260.144 62.1614 260.144C61.2094 260.144 60.4814 259.744 59.9774 258.944C59.4734 258.144 59.2214 257.096 59.2214 255.8C59.2214 254.504 59.4734 253.456 59.9774 252.656C60.4814 251.856 61.2094 251.456 62.1614 251.456C63.1134 251.456 63.8414 251.856 64.3454 252.656ZM62.1614 253.04C61.3614 253.04 60.9614 253.96 60.9614 255.8C60.9614 257.64 61.3614 258.56 62.1614 258.56C62.9614 258.56 63.3614 257.64 63.3614 255.8C63.3614 253.96 62.9614 253.04 62.1614 253.04Z" fill="white"/>
<path opacity="0.5" d="M154.425 216.48L155.073 216.672V225H153.321V218.808L152.001 219.516L151.269 218.244L154.425 216.48ZM158.075 223.488L157.823 222.9L162.407 216.48L163.439 216.576V221.904H164.231V223.488H163.439V225H161.687V223.488H158.075ZM159.947 221.916H161.687V219.504L159.947 221.916ZM165.516 223.488L165.264 222.9L169.848 216.48L170.88 216.576V221.904H171.672V223.488H170.88V225H169.128V223.488H165.516ZM167.388 221.916H169.128V219.504L167.388 221.916ZM178.345 217.656C178.849 218.456 179.101 219.504 179.101 220.8C179.101 222.096 178.849 223.144 178.345 223.944C177.841 224.744 177.113 225.144 176.161 225.144C175.209 225.144 174.481 224.744 173.977 223.944C173.473 223.144 173.221 222.096 173.221 220.8C173.221 219.504 173.473 218.456 173.977 217.656C174.481 216.856 175.209 216.456 176.161 216.456C177.113 216.456 177.841 216.856 178.345 217.656ZM176.161 218.04C175.361 218.04 174.961 218.96 174.961 220.8C174.961 222.64 175.361 223.56 176.161 223.56C176.961 223.56 177.361 222.64 177.361 220.8C177.361 218.96 176.961 218.04 176.161 218.04Z" fill="white"/>
<path opacity="0.5" d="M240.122 195.92L239.738 195.188L241.082 193.148H238.526V191.6H243.242L243.602 192.224L241.766 194.9C242.374 195.1 242.85 195.42 243.194 195.86C243.538 196.292 243.71 196.82 243.71 197.444C243.71 198.18 243.446 198.816 242.918 199.352C242.39 199.88 241.666 200.144 240.746 200.144C240.178 200.144 239.65 200.016 239.162 199.76C238.674 199.496 238.278 199.12 237.974 198.632L239.198 197.684C239.582 198.284 240.05 198.584 240.602 198.584C241.01 198.584 241.338 198.472 241.586 198.248C241.842 198.024 241.97 197.724 241.97 197.348C241.97 196.38 241.43 195.896 240.35 195.896C240.246 195.896 240.17 195.904 240.122 195.92ZM245.895 200L245.619 199.388L248.427 195.608C248.715 195.224 248.919 194.916 249.039 194.684C249.159 194.444 249.219 194.208 249.219 193.976C249.219 193.704 249.135 193.484 248.967 193.316C248.799 193.148 248.571 193.064 248.283 193.064C247.707 193.064 247.295 193.32 247.047 193.832L245.667 193.148C245.931 192.62 246.291 192.208 246.747 191.912C247.211 191.608 247.719 191.456 248.271 191.456C249.071 191.456 249.719 191.692 250.215 192.164C250.711 192.628 250.959 193.228 250.959 193.964C250.959 194.676 250.647 195.448 250.023 196.28L248.367 198.464H251.103V200H245.895ZM258.125 192.656C258.629 193.456 258.881 194.504 258.881 195.8C258.881 197.096 258.629 198.144 258.125 198.944C257.621 199.744 256.893 200.144 255.941 200.144C254.989 200.144 254.261 199.744 253.757 198.944C253.253 198.144 253.001 197.096 253.001 195.8C253.001 194.504 253.253 193.456 253.757 192.656C254.261 191.856 254.989 191.456 255.941 191.456C256.893 191.456 257.621 191.856 258.125 192.656ZM255.941 193.04C255.141 193.04 254.741 193.96 254.741 195.8C254.741 197.64 255.141 198.56 255.941 198.56C256.741 198.56 257.141 197.64 257.141 195.8C257.141 193.96 256.741 193.04 255.941 193.04Z" fill="white"/>
</svg>
