<svg width="489" height="128" viewBox="0 0 489 128" fill="none" xmlns="http://www.w3.org/2000/svg">
<path d="M114.036 118.12C115.756 122.707 114.208 125 109.392 125H96.492C92.2493 125 89.268 124.599 87.548 123.796C85.828 122.879 84.5667 121.159 83.764 118.636L78.432 102.468H35.948L30.444 118.636C29.5267 121.159 28.2653 122.879 26.66 123.796C25.0547 124.599 22.1307 125 17.888 125H6.02C1.204 125 -0.344 122.707 1.376 118.12L42.484 8.72799C43.2867 6.43466 44.2613 4.88666 45.408 4.084C46.6693 3.28133 48.5613 2.87999 51.084 2.87999H64.328C66.8507 2.87999 68.6853 3.28133 69.832 4.084C71.0933 4.772 72.1253 6.20533 72.928 8.38399L114.036 118.12ZM62.264 53.104C61.1173 49.4347 60.1427 45.536 59.34 41.408C58.652 37.28 58.2507 34.0693 58.136 31.776L57.964 28.508H56.244C56.3587 36.6493 55.04 44.7907 52.288 52.932L43.344 79.764H71.208L62.264 53.104ZM122.295 50.868C128.601 38.9427 140.871 32.98 159.103 32.98C184.673 32.98 197.459 45.0773 197.459 69.272V112.96C197.459 115.941 197 118.12 196.083 119.496C195.28 120.757 193.617 121.904 191.095 122.936C184.215 126.032 173.379 127.58 158.587 127.58C143.68 127.58 133.36 125.287 127.627 120.7C122.008 116.113 119.199 108.947 119.199 99.2C119.199 88.6507 122.237 81.312 128.315 77.184C134.507 73.056 144.827 70.992 159.275 70.992C163.747 70.992 167.817 71.1067 171.487 71.336V67.552C171.487 59.0667 167.072 54.824 158.243 54.824C151.936 54.824 147.177 56.9453 143.967 61.188C142.476 63.1373 141.215 64.3413 140.183 64.8C139.265 65.144 137.603 64.8573 135.195 63.94L125.735 59.984C121.377 58.1493 120.231 55.1107 122.295 50.868ZM171.487 91.116C170.455 91.116 168.219 91.0587 164.779 90.944C161.339 90.8293 158.759 90.772 157.039 90.772C152.452 90.772 149.299 91.5173 147.579 93.008C145.973 94.384 145.171 96.3907 145.171 99.028C145.171 101.78 145.973 103.901 147.579 105.392C149.184 106.768 152.223 107.456 156.695 107.456C162.772 107.456 167.301 107.227 170.283 106.768C171.085 106.539 171.487 106.137 171.487 105.564V91.116ZM212.838 43.128C212.838 29.9413 216.966 19.5067 225.222 11.824C233.593 4.14133 245.174 0.299996 259.966 0.299996C274.643 0.299996 286.11 4.14133 294.366 11.824C302.622 19.5067 306.75 29.9413 306.75 43.128V84.408C306.75 97.824 302.622 108.373 294.366 116.056C286.225 123.739 274.758 127.58 259.966 127.58C245.174 127.58 233.593 123.739 225.222 116.056C216.966 108.259 212.838 97.7093 212.838 84.408V43.128ZM278.886 42.784C278.886 37.28 277.223 33.0947 273.898 30.228C270.573 27.3613 265.929 25.928 259.966 25.928C253.774 25.928 249.015 27.3613 245.69 30.228C242.365 33.0947 240.702 37.28 240.702 42.784V84.924C240.702 90.428 242.365 94.6707 245.69 97.652C249.015 100.519 253.774 101.952 259.966 101.952C265.929 101.952 270.573 100.519 273.898 97.652C277.223 94.6707 278.886 90.428 278.886 84.924V42.784ZM371.877 2.87999C374.515 2.87999 376.349 3.39599 377.381 4.42799C378.413 5.45999 378.929 7.29466 378.929 9.93199V117.948C378.929 120.585 378.413 122.42 377.381 123.452C376.349 124.484 374.515 125 371.877 125H357.945C355.308 125 353.473 124.484 352.441 123.452C351.409 122.42 350.893 120.585 350.893 117.948V37.28L334.209 46.74C329.508 49.492 325.953 48.5747 323.545 43.988L317.525 33.152C316.379 30.8587 316.035 29.0813 316.493 27.82C317.067 26.444 318.557 25.068 320.965 23.692L352.097 5.632C355.193 3.79733 358.519 2.87999 362.073 2.87999H371.877ZM398.775 29.196C406.458 9.93199 421.881 0.299996 445.043 0.299996C458.345 0.299996 468.894 4.14133 476.691 11.824C484.603 19.392 488.559 28.68 488.559 39.688C488.559 52.1867 485.291 61.8187 478.755 68.584C472.219 75.2347 460.179 82 442.635 88.88C441.833 89.224 440.514 89.6827 438.679 90.256C436.845 90.8293 435.354 91.3453 434.207 91.804C433.175 92.2627 431.971 92.836 430.595 93.524C429.334 94.0973 428.359 94.7853 427.671 95.588C427.098 96.3907 426.811 97.308 426.811 98.34V99.716H479.099C481.737 99.716 483.571 100.232 484.603 101.264C485.635 102.296 486.151 104.131 486.151 106.768V117.948C486.151 120.585 485.635 122.42 484.603 123.452C483.571 124.484 481.737 125 479.099 125H404.623C401.986 125 400.151 124.484 399.119 123.452C398.202 122.42 397.743 120.585 397.743 117.948V104.876C397.743 99.2573 398.603 94.3267 400.323 90.084C402.158 85.8413 404.853 82.2293 408.407 79.248C412.077 76.2667 415.459 73.916 418.555 72.196C421.651 70.476 425.722 68.584 430.767 66.52C441.546 62.2773 448.655 58.78 452.095 56.028C457.026 51.9 459.549 46.8547 459.663 40.892C459.663 36.6493 458.23 33.0947 455.363 30.228C452.497 27.3613 448.713 25.928 444.011 25.928C435.182 25.928 428.933 30.1133 425.263 38.484C424.002 41.1213 422.798 42.7267 421.651 43.3C420.505 43.8733 418.727 43.7587 416.319 42.956L403.075 38.14C398.489 36.5347 397.055 33.5533 398.775 29.196Z" fill="white"/>
</svg>
