<svg width="532" height="126" viewBox="0 0 532 126" fill="none" xmlns="http://www.w3.org/2000/svg">
<path d="M95.708 99.608H44.796L35.336 123H0.592L53.74 2.59999H87.28L140.6 123H105.168L95.708 99.608ZM85.732 74.496L70.252 35.968L54.772 74.496H85.732ZM188.439 28.228C203.919 28.228 215.73 31.7827 223.871 38.892C232.012 45.8867 236.083 56.6653 236.083 71.228V123H205.639V110.96C200.938 120.019 191.764 124.548 178.119 124.548C170.895 124.548 164.646 123.287 159.371 120.764C154.096 118.241 150.083 114.859 147.331 110.616C144.694 106.259 143.375 101.328 143.375 95.824C143.375 86.9947 146.758 80.172 153.523 75.356C160.288 70.4253 170.723 67.96 184.827 67.96H203.403C202.83 58.0987 196.236 53.168 183.623 53.168C179.151 53.168 174.622 53.9133 170.035 55.404C165.448 56.78 161.55 58.7293 158.339 61.252L147.331 39.064C152.491 35.624 158.74 32.9867 166.079 31.152C173.532 29.2027 180.986 28.228 188.439 28.228ZM187.235 103.908C191.019 103.908 194.344 102.991 197.211 101.156C200.078 99.3213 202.142 96.6267 203.403 93.072V84.988H189.299C179.782 84.988 175.023 88.1413 175.023 94.448C175.023 97.3147 176.112 99.608 178.291 101.328C180.47 103.048 183.451 103.908 187.235 103.908ZM305.215 125.408C294.895 125.408 285.721 122.943 277.695 118.012C269.668 113.081 263.361 105.915 258.775 96.512C254.303 86.9947 252.067 75.7573 252.067 62.8C252.067 49.8427 254.303 38.6627 258.775 29.26C263.361 19.7427 269.668 12.5187 277.695 7.588C285.721 2.65733 294.895 0.191992 305.215 0.191992C315.42 0.191992 324.536 2.65733 332.563 7.588C340.589 12.5187 346.839 19.7427 351.311 29.26C355.897 38.6627 358.191 49.8427 358.191 62.8C358.191 75.7573 355.897 86.9947 351.311 96.512C346.839 105.915 340.589 113.081 332.563 118.012C324.536 122.943 315.42 125.408 305.215 125.408ZM305.215 97.544C310.948 97.544 315.477 94.792 318.803 89.288C322.243 83.6693 323.963 74.84 323.963 62.8C323.963 50.76 322.243 41.988 318.803 36.484C315.477 30.8653 310.948 28.056 305.215 28.056C299.367 28.056 294.723 30.8653 291.283 36.484C287.957 41.988 286.295 50.76 286.295 62.8C286.295 74.84 287.957 83.6693 291.283 89.288C294.723 94.792 299.367 97.544 305.215 97.544ZM420.069 2.59999V123H386.013V28.916H363.653V2.59999H420.069ZM531.228 95.996V123H437.488V101.672L482.552 59.532C486.909 55.404 489.833 51.9067 491.324 49.04C492.815 46.0587 493.56 43.0773 493.56 40.096C493.56 36.1973 492.241 33.1587 489.604 30.98C486.967 28.8013 483.125 27.712 478.08 27.712C473.608 27.712 469.48 28.744 465.696 30.808C462.027 32.7573 458.988 35.624 456.58 39.408L431.296 25.304C435.997 17.5067 442.591 11.372 451.076 6.9C459.561 2.42799 469.595 0.191992 481.176 0.191992C490.349 0.191992 498.433 1.68266 505.428 4.664C512.537 7.64533 518.041 11.9453 521.94 17.564C525.953 23.068 527.96 29.4893 527.96 36.828C527.96 43.364 526.527 49.556 523.66 55.404C520.908 61.1373 515.519 67.6733 507.492 75.012L484.788 95.996H531.228Z" fill="white"/>
</svg>
