<svg width="326" height="62" viewBox="0 0 326 62" fill="none" xmlns="http://www.w3.org/2000/svg">
<path opacity="0.2" d="M7.854 10.9H3.304L2.436 13H0.112L4.48 3.2H6.72L11.102 13H8.722L7.854 10.9ZM7.14 9.178L5.586 5.426L4.032 9.178H7.14ZM15.1596 5.356C16.3263 5.356 17.2223 5.636 17.8476 6.196C18.4729 6.74667 18.7856 7.582 18.7856 8.702V13H16.7416V12.062C16.3309 12.762 15.5656 13.112 14.4456 13.112C13.8669 13.112 13.3629 13.014 12.9336 12.818C12.5136 12.622 12.1916 12.3513 11.9676 12.006C11.7436 11.6607 11.6316 11.2687 11.6316 10.83C11.6316 10.13 11.8929 9.57933 12.4156 9.178C12.9476 8.77667 13.7643 8.576 14.8656 8.576H16.6016C16.6016 8.1 16.4569 7.736 16.1676 7.484C15.8783 7.22267 15.4443 7.092 14.8656 7.092C14.4643 7.092 14.0676 7.15733 13.6756 7.288C13.2929 7.40933 12.9663 7.57733 12.6956 7.792L11.9116 6.266C12.3223 5.97667 12.8123 5.75267 13.3816 5.594C13.9603 5.43533 14.5529 5.356 15.1596 5.356ZM14.9916 11.642C15.3649 11.642 15.6963 11.558 15.9856 11.39C16.2749 11.2127 16.4803 10.956 16.6016 10.62V9.85H15.1036C14.2076 9.85 13.7596 10.144 13.7596 10.732C13.7596 11.012 13.8669 11.236 14.0816 11.404C14.3056 11.5627 14.6089 11.642 14.9916 11.642ZM24.8157 3.2H32.7257V5.006H27.0697V7.022H29.7857C30.971 7.022 31.8717 7.26933 32.4877 7.764C33.113 8.25867 33.4257 8.97267 33.4257 9.906C33.4257 10.886 33.0803 11.6467 32.3897 12.188C31.699 12.7293 30.7237 13 29.4637 13H24.8157V3.2ZM29.3377 11.32C29.9163 11.32 30.3597 11.208 30.6677 10.984C30.9757 10.7507 31.1297 10.4147 31.1297 9.976C31.1297 9.11733 30.5323 8.688 29.3377 8.688H27.0697V11.32H29.3377ZM39.3376 5.986C40.0563 5.986 40.6863 6.13533 41.2276 6.434C41.7689 6.72333 42.1843 7.134 42.4736 7.666C42.7723 8.198 42.9216 8.814 42.9216 9.514C42.9216 10.2327 42.7443 10.872 42.3896 11.432C42.0443 11.9827 41.5589 12.412 40.9336 12.72C40.3083 13.0187 39.5989 13.168 38.8056 13.168C37.4896 13.168 36.4536 12.748 35.6976 11.908C34.9509 11.0587 34.5776 9.81733 34.5776 8.184C34.5776 6.672 34.9043 5.468 35.5576 4.572C36.2203 3.66667 37.2329 3.074 38.5956 2.794L42.1796 2.08L42.4736 3.956L39.3096 4.586C38.4509 4.754 37.8116 5.034 37.3916 5.426C36.9809 5.818 36.7383 6.37333 36.6636 7.092C36.9903 6.73733 37.3823 6.46667 37.8396 6.28C38.2969 6.084 38.7963 5.986 39.3376 5.986ZM38.8196 11.474C39.3796 11.474 39.8276 11.292 40.1636 10.928C40.5089 10.564 40.6816 10.102 40.6816 9.542C40.6816 8.97267 40.5089 8.52 40.1636 8.184C39.8276 7.848 39.3796 7.68 38.8196 7.68C38.2503 7.68 37.7929 7.848 37.4476 8.184C37.1023 8.52 36.9296 8.97267 36.9296 9.542C36.9296 10.1113 37.1069 10.578 37.4616 10.942C37.8163 11.2967 38.2689 11.474 38.8196 11.474ZM55.3264 7.89C55.9237 8.06733 56.381 8.35667 56.6984 8.758C57.0157 9.15933 57.1744 9.654 57.1744 10.242C57.1744 11.11 56.843 11.7867 56.1804 12.272C55.527 12.7573 54.589 13 53.3664 13H48.5364V3.2H53.1004C54.239 3.2 55.1257 3.41933 55.7604 3.858C56.395 4.29667 56.7124 4.922 56.7124 5.734C56.7124 6.21933 56.591 6.64867 56.3484 7.022C56.1057 7.386 55.765 7.67533 55.3264 7.89ZM50.7904 7.26H52.9044C53.399 7.26 53.7724 7.162 54.0244 6.966C54.2764 6.76067 54.4024 6.462 54.4024 6.07C54.4024 5.68733 54.2717 5.39333 54.0104 5.188C53.7584 4.98267 53.3897 4.88 52.9044 4.88H50.7904V7.26ZM53.2824 11.32C54.3464 11.32 54.8784 10.9 54.8784 10.06C54.8784 9.248 54.3464 8.842 53.2824 8.842H50.7904V11.32H53.2824ZM64.554 9.066C65.4407 9.36467 65.884 9.962 65.884 10.858C65.884 11.5393 65.6273 12.0667 65.114 12.44C64.6007 12.8133 63.8353 13 62.818 13H58.8V5.468H62.65C63.5927 5.468 64.33 5.64067 64.862 5.986C65.394 6.322 65.66 6.798 65.66 7.414C65.66 7.78733 65.562 8.11867 65.366 8.408C65.1793 8.688 64.9087 8.90733 64.554 9.066ZM60.802 8.562H62.454C63.2193 8.562 63.602 8.29133 63.602 7.75C63.602 7.218 63.2193 6.952 62.454 6.952H60.802V8.562ZM62.636 11.516C63.4387 11.516 63.84 11.2407 63.84 10.69C63.84 10.4007 63.7467 10.1907 63.56 10.06C63.3733 9.92 63.0793 9.85 62.678 9.85H60.802V11.516H62.636ZM78.5438 5.048H73.8818L73.8958 13H71.6418V3.2H78.5578L78.5438 5.048ZM85.0547 7.26H81.1907V13H79.0207V5.468H85.0547V7.26ZM100.453 11.152V15.03H98.353V13H91.437V15.03H89.337L89.351 11.152H89.743C90.331 11.1333 90.7463 10.704 90.989 9.864C91.2316 9.024 91.381 7.82467 91.437 6.266L91.549 3.2H99.081V11.152H100.453ZM93.439 6.476C93.3923 7.64267 93.2943 8.62267 93.145 9.416C92.9956 10.2 92.767 10.7787 92.459 11.152H96.841V5.048H93.481L93.439 6.476ZM110.254 11.208V14.624H108.224V13H102.932V14.624H100.902V11.208H101.21C101.676 11.1987 101.998 10.9233 102.176 10.382C102.353 9.84067 102.465 9.07067 102.512 8.072L102.61 5.468H109.176V11.208H110.254ZM104.486 8.226C104.458 8.99133 104.397 9.61667 104.304 10.102C104.22 10.5873 104.056 10.956 103.814 11.208H106.992V7.26H104.528L104.486 8.226ZM123.349 11.18V13H115.761V3.2H123.167V5.02H118.015V7.148H122.565V8.912H118.015V11.18H123.349ZM132.28 9.262C132.28 9.29 132.266 9.486 132.238 9.85H126.54C126.643 10.3167 126.886 10.6853 127.268 10.956C127.651 11.2267 128.127 11.362 128.696 11.362C129.088 11.362 129.434 11.306 129.732 11.194C130.04 11.0727 130.325 10.886 130.586 10.634L131.748 11.894C131.039 12.706 130.003 13.112 128.64 13.112C127.791 13.112 127.04 12.9487 126.386 12.622C125.733 12.286 125.229 11.824 124.874 11.236C124.52 10.648 124.342 9.98067 124.342 9.234C124.342 8.49667 124.515 7.834 124.86 7.246C125.215 6.64867 125.696 6.18667 126.302 5.86C126.918 5.524 127.604 5.356 128.36 5.356C129.098 5.356 129.765 5.51467 130.362 5.832C130.96 6.14933 131.426 6.60667 131.762 7.204C132.108 7.792 132.28 8.478 132.28 9.262ZM128.374 7.008C127.88 7.008 127.464 7.148 127.128 7.428C126.792 7.708 126.587 8.09067 126.512 8.576H130.222C130.148 8.1 129.942 7.722 129.606 7.442C129.27 7.15267 128.86 7.008 128.374 7.008ZM145.675 11.18V13H138.087V3.2H145.493V5.02H140.341V7.148H144.891V8.912H140.341V11.18H145.675ZM140.383 2.332C140.103 2.332 139.87 2.24333 139.683 2.066C139.496 1.87933 139.403 1.646 139.403 1.366C139.403 1.086 139.496 0.857333 139.683 0.679999C139.87 0.493333 140.103 0.399999 140.383 0.399999C140.663 0.399999 140.892 0.493333 141.069 0.679999C141.256 0.857333 141.349 1.086 141.349 1.366C141.349 1.646 141.256 1.87933 141.069 2.066C140.892 2.24333 140.663 2.332 140.383 2.332ZM143.211 2.332C142.931 2.332 142.698 2.24333 142.511 2.066C142.334 1.87933 142.245 1.646 142.245 1.366C142.245 1.086 142.334 0.857333 142.511 0.679999C142.698 0.493333 142.931 0.399999 143.211 0.399999C143.491 0.399999 143.724 0.493333 143.911 0.679999C144.098 0.857333 144.191 1.086 144.191 1.366C144.191 1.646 144.098 1.87933 143.911 2.066C143.724 2.24333 143.491 2.332 143.211 2.332ZM154.606 9.262C154.606 9.29 154.592 9.486 154.564 9.85H148.866C148.969 10.3167 149.212 10.6853 149.594 10.956C149.977 11.2267 150.453 11.362 151.022 11.362C151.414 11.362 151.76 11.306 152.058 11.194C152.366 11.0727 152.651 10.886 152.912 10.634L154.074 11.894C153.365 12.706 152.329 13.112 150.966 13.112C150.117 13.112 149.366 12.9487 148.712 12.622C148.059 12.286 147.555 11.824 147.2 11.236C146.846 10.648 146.668 9.98067 146.668 9.234C146.668 8.49667 146.841 7.834 147.186 7.246C147.541 6.64867 148.022 6.18667 148.628 5.86C149.244 5.524 149.93 5.356 150.686 5.356C151.424 5.356 152.091 5.51467 152.688 5.832C153.286 6.14933 153.752 6.60667 154.088 7.204C154.434 7.792 154.606 8.478 154.606 9.262ZM150.7 7.008C150.206 7.008 149.79 7.148 149.454 7.428C149.118 7.708 148.913 8.09067 148.838 8.576H152.548C152.474 8.1 152.268 7.722 151.932 7.442C151.596 7.15267 151.186 7.008 150.7 7.008ZM149.23 4.432C148.95 4.432 148.717 4.34333 148.53 4.166C148.344 3.97933 148.25 3.746 148.25 3.466C148.25 3.186 148.344 2.95733 148.53 2.78C148.717 2.59333 148.95 2.5 149.23 2.5C149.51 2.5 149.739 2.59333 149.916 2.78C150.103 2.95733 150.196 3.186 150.196 3.466C150.196 3.746 150.103 3.97933 149.916 4.166C149.739 4.34333 149.51 4.432 149.23 4.432ZM152.058 4.432C151.778 4.432 151.545 4.34333 151.358 4.166C151.181 3.97933 151.092 3.746 151.092 3.466C151.092 3.186 151.181 2.95733 151.358 2.78C151.545 2.59333 151.778 2.5 152.058 2.5C152.338 2.5 152.572 2.59333 152.758 2.78C152.945 2.95733 153.038 3.186 153.038 3.466C153.038 3.746 152.945 3.97933 152.758 4.166C152.572 4.34333 152.338 4.432 152.058 4.432ZM169.303 9.052H167.875V13H165.649V9.052H164.193L161.995 13H159.377L162.317 7.876L159.559 3.2H161.953L164.151 7.162H165.649V3.2H167.875V7.162H169.331L171.543 3.2H173.937L171.193 7.876L174.119 13H171.501L169.303 9.052ZM182.213 10.144H181.163V13H179.007V10.144H177.957L176.361 13H173.785L176.151 9.108L173.953 5.468H176.263L177.929 8.394H179.007V5.468H181.163V8.394H182.227L183.907 5.468H186.217L184.019 9.108L186.399 13H183.809L182.213 10.144ZM197.239 7.89C197.809 8.086 198.252 8.394 198.569 8.814C198.896 9.22467 199.059 9.70533 199.059 10.256C199.059 10.8533 198.863 11.3713 198.471 11.81C198.079 12.2487 197.547 12.5847 196.875 12.818C196.213 13.0513 195.485 13.168 194.691 13.168C194.019 13.168 193.347 13.084 192.675 12.916C192.013 12.748 191.383 12.4913 190.785 12.146L191.485 10.522C191.915 10.7833 192.386 10.984 192.899 11.124C193.422 11.2547 193.931 11.32 194.425 11.32C195.097 11.32 195.653 11.1987 196.091 10.956C196.539 10.7133 196.763 10.3727 196.763 9.934C196.763 9.57 196.609 9.29467 196.301 9.108C196.003 8.92133 195.592 8.828 195.069 8.828H192.675V7.12H194.901C195.359 7.12 195.713 7.02667 195.965 6.84C196.227 6.65333 196.357 6.39667 196.357 6.07C196.357 5.68733 196.171 5.38867 195.797 5.174C195.433 4.95933 194.962 4.852 194.383 4.852C193.954 4.852 193.511 4.91267 193.053 5.034C192.596 5.146 192.162 5.31867 191.751 5.552L191.065 3.788C192.101 3.256 193.221 2.99 194.425 2.99C195.191 2.99 195.895 3.102 196.539 3.326C197.183 3.55 197.697 3.87667 198.079 4.306C198.462 4.73533 198.653 5.23467 198.653 5.804C198.653 6.27067 198.527 6.686 198.275 7.05C198.023 7.414 197.678 7.694 197.239 7.89ZM205.573 9.08C206.021 9.22 206.366 9.43467 206.609 9.724C206.861 10.0133 206.987 10.3587 206.987 10.76C206.987 11.236 206.823 11.656 206.497 12.02C206.17 12.3747 205.722 12.65 205.153 12.846C204.583 13.042 203.939 13.14 203.221 13.14C202.633 13.14 202.054 13.0793 201.485 12.958C200.915 12.8367 200.388 12.6547 199.903 12.412L200.491 10.886C201.284 11.2687 202.161 11.46 203.123 11.46C203.636 11.46 204.037 11.3853 204.327 11.236C204.625 11.0773 204.775 10.858 204.775 10.578C204.775 10.3353 204.672 10.1533 204.467 10.032C204.261 9.90133 203.963 9.836 203.571 9.836H202.031V8.478H203.375C203.757 8.478 204.051 8.41733 204.257 8.296C204.462 8.17467 204.565 7.99733 204.565 7.764C204.565 7.52133 204.434 7.33467 204.173 7.204C203.921 7.07333 203.557 7.008 203.081 7.008C202.353 7.008 201.559 7.18067 200.701 7.526L200.169 6.014C201.214 5.55667 202.231 5.328 203.221 5.328C203.902 5.328 204.509 5.412 205.041 5.58C205.582 5.748 206.007 5.99533 206.315 6.322C206.623 6.63933 206.777 7.01267 206.777 7.442C206.777 7.79667 206.669 8.11867 206.455 8.408C206.24 8.688 205.946 8.912 205.573 9.08ZM212.708 3.2H214.962V9.584L219.638 3.2H221.766V13H219.526V6.63L214.85 13H212.708V3.2ZM224.038 5.468H226.208V9.948L229.876 5.468H231.878V13H229.708V8.52L226.054 13H224.038V5.468ZM241.905 9.052H240.337V13H238.083V3.2H240.337V7.162H241.961L244.537 3.2H246.931L243.725 7.932L247.029 13H244.453L241.905 9.052ZM251.419 10.144H250.285V13H248.101V5.468H250.285V8.394H251.461L253.505 5.468H255.829L253.197 9.08L256.011 13H253.435L251.419 10.144ZM269.952 3.2V13H267.712V5.048H264.352L264.282 7.092C264.235 8.48267 264.123 9.612 263.946 10.48C263.769 11.3387 263.47 12.0013 263.05 12.468C262.639 12.9253 262.061 13.154 261.314 13.154C261.006 13.154 260.633 13.1027 260.194 13L260.334 11.082C260.455 11.1193 260.591 11.138 260.74 11.138C261.281 11.138 261.659 10.8207 261.874 10.186C262.089 9.542 262.224 8.53867 262.28 7.176L262.42 3.2H269.952ZM279.456 5.468V13H277.272V7.26H274.892L274.822 8.59C274.784 9.57933 274.691 10.4007 274.542 11.054C274.392 11.7073 274.15 12.2207 273.814 12.594C273.478 12.9673 273.011 13.154 272.414 13.154C272.096 13.154 271.718 13.098 271.28 12.986L271.392 11.194C271.541 11.2127 271.648 11.222 271.714 11.222C272.04 11.222 272.283 11.1053 272.442 10.872C272.61 10.6293 272.722 10.326 272.778 9.962C272.834 9.58867 272.876 9.09867 272.904 8.492L273.016 5.468H279.456ZM294.607 13L294.593 7.134L291.709 11.964H290.701L287.817 7.246V13H285.689V3.2H287.565L291.233 9.29L294.845 3.2H296.721L296.735 13H294.607ZM306.351 13V8.492L304.097 12.272H303.173L300.975 8.478V13H299.001V5.468H301.283L303.691 9.822L306.253 5.468H308.297L308.325 13H306.351ZM10.206 27.2V37H7.938V32.982H3.486V37H1.218V27.2H3.486V31.064H7.938V27.2H10.206ZM12.4934 29.468H14.6634V32.408H17.9394V29.468H20.1234V37H17.9394V34.186H14.6634V37H12.4934V29.468ZM31.0229 37.168C30.0056 37.168 29.0862 36.9487 28.2649 36.51C27.4529 36.0713 26.8136 35.4693 26.3469 34.704C25.8896 33.9293 25.6609 33.0613 25.6609 32.1C25.6609 31.1387 25.8896 30.2753 26.3469 29.51C26.8136 28.7353 27.4529 28.1287 28.2649 27.69C29.0862 27.2513 30.0056 27.032 31.0229 27.032C32.0402 27.032 32.9549 27.2513 33.7669 27.69C34.5789 28.1287 35.2182 28.7353 35.6849 29.51C36.1516 30.2753 36.3849 31.1387 36.3849 32.1C36.3849 33.0613 36.1516 33.9293 35.6849 34.704C35.2182 35.4693 34.5789 36.0713 33.7669 36.51C32.9549 36.9487 32.0402 37.168 31.0229 37.168ZM31.0229 35.236C31.6016 35.236 32.1242 35.1053 32.5909 34.844C33.0576 34.5733 33.4216 34.2 33.6829 33.724C33.9536 33.248 34.0889 32.7067 34.0889 32.1C34.0889 31.4933 33.9536 30.952 33.6829 30.476C33.4216 30 33.0576 29.6313 32.5909 29.37C32.1242 29.0993 31.6016 28.964 31.0229 28.964C30.4442 28.964 29.9216 29.0993 29.4549 29.37C28.9882 29.6313 28.6196 30 28.3489 30.476C28.0876 30.952 27.9569 31.4933 27.9569 32.1C27.9569 32.7067 28.0876 33.248 28.3489 33.724C28.6196 34.2 28.9882 34.5733 29.4549 34.844C29.9216 35.1053 30.4442 35.236 31.0229 35.236ZM41.4921 37.112C40.6987 37.112 39.9847 36.9487 39.3501 36.622C38.7247 36.286 38.2347 35.824 37.8801 35.236C37.5254 34.648 37.3481 33.9807 37.3481 33.234C37.3481 32.4873 37.5254 31.82 37.8801 31.232C38.2347 30.644 38.7247 30.1867 39.3501 29.86C39.9847 29.524 40.6987 29.356 41.4921 29.356C42.2854 29.356 42.9947 29.524 43.6201 29.86C44.2454 30.1867 44.7354 30.644 45.0901 31.232C45.4447 31.82 45.6221 32.4873 45.6221 33.234C45.6221 33.9807 45.4447 34.648 45.0901 35.236C44.7354 35.824 44.2454 36.286 43.6201 36.622C42.9947 36.9487 42.2854 37.112 41.4921 37.112ZM41.4921 35.32C42.0521 35.32 42.5094 35.1333 42.8641 34.76C43.2281 34.3773 43.4101 33.8687 43.4101 33.234C43.4101 32.5993 43.2281 32.0953 42.8641 31.722C42.5094 31.3393 42.0521 31.148 41.4921 31.148C40.9321 31.148 40.4701 31.3393 40.1061 31.722C39.7421 32.0953 39.5601 32.5993 39.5601 33.234C39.5601 33.8687 39.7421 34.3773 40.1061 34.76C40.4701 35.1333 40.9321 35.32 41.4921 35.32ZM60.1891 27.2V37H57.9351V29.048H53.5111V37H51.2571V27.2H60.1891ZM69.9404 29.468V37H67.7564V31.26H64.6204V37H62.4504V29.468H69.9404ZM80.4092 27.2C81.2772 27.2 82.0286 27.3447 82.6632 27.634C83.3072 27.9233 83.8019 28.334 84.1472 28.866C84.4926 29.398 84.6652 30.028 84.6652 30.756C84.6652 31.4747 84.4926 32.1047 84.1472 32.646C83.8019 33.178 83.3072 33.5887 82.6632 33.878C82.0286 34.158 81.2772 34.298 80.4092 34.298H78.4352V37H76.1672V27.2H80.4092ZM80.2832 32.45C80.9646 32.45 81.4826 32.3053 81.8372 32.016C82.1919 31.7173 82.3692 31.2973 82.3692 30.756C82.3692 30.2053 82.1919 29.7853 81.8372 29.496C81.4826 29.1973 80.9646 29.048 80.2832 29.048H78.4352V32.45H80.2832ZM90.4314 29.356C91.1314 29.356 91.766 29.5193 92.3354 29.846C92.914 30.1633 93.3667 30.616 93.6934 31.204C94.02 31.7827 94.1834 32.4593 94.1834 33.234C94.1834 34.0087 94.02 34.69 93.6934 35.278C93.3667 35.8567 92.914 36.3093 92.3354 36.636C91.766 36.9533 91.1314 37.112 90.4314 37.112C89.47 37.112 88.714 36.8087 88.1634 36.202V39.716H85.9794V29.468H88.0654V30.336C88.6067 29.6827 89.3954 29.356 90.4314 29.356ZM90.0534 35.32C90.6134 35.32 91.0707 35.1333 91.4254 34.76C91.7894 34.3773 91.9714 33.8687 91.9714 33.234C91.9714 32.5993 91.7894 32.0953 91.4254 31.722C91.0707 31.3393 90.6134 31.148 90.0534 31.148C89.4934 31.148 89.0314 31.3393 88.6674 31.722C88.3127 32.0953 88.1354 32.5993 88.1354 33.234C88.1354 33.8687 88.3127 34.3773 88.6674 34.76C89.0314 35.1333 89.4934 35.32 90.0534 35.32ZM104.481 37.168C103.482 37.168 102.577 36.9533 101.765 36.524C100.962 36.0853 100.328 35.4833 99.8609 34.718C99.4036 33.9433 99.1749 33.0707 99.1749 32.1C99.1749 31.1293 99.4036 30.2613 99.8609 29.496C100.328 28.7213 100.962 28.1193 101.765 27.69C102.577 27.2513 103.487 27.032 104.495 27.032C105.344 27.032 106.11 27.1813 106.791 27.48C107.482 27.7787 108.06 28.208 108.527 28.768L107.071 30.112C106.408 29.3467 105.587 28.964 104.607 28.964C104 28.964 103.459 29.0993 102.983 29.37C102.507 29.6313 102.134 30 101.863 30.476C101.602 30.952 101.471 31.4933 101.471 32.1C101.471 32.7067 101.602 33.248 101.863 33.724C102.134 34.2 102.507 34.5733 102.983 34.844C103.459 35.1053 104 35.236 104.607 35.236C105.587 35.236 106.408 34.8487 107.071 34.074L108.527 35.418C108.06 35.9873 107.482 36.4213 106.791 36.72C106.1 37.0187 105.33 37.168 104.481 37.168ZM113.161 37.112C112.359 37.112 111.635 36.9487 110.991 36.622C110.357 36.286 109.857 35.824 109.493 35.236C109.139 34.648 108.961 33.9807 108.961 33.234C108.961 32.4873 109.139 31.82 109.493 31.232C109.857 30.644 110.357 30.1867 110.991 29.86C111.635 29.524 112.359 29.356 113.161 29.356C113.955 29.356 114.645 29.524 115.233 29.86C115.831 30.1867 116.265 30.658 116.535 31.274L114.841 32.184C114.449 31.4933 113.885 31.148 113.147 31.148C112.578 31.148 112.107 31.3347 111.733 31.708C111.36 32.0813 111.173 32.59 111.173 33.234C111.173 33.878 111.36 34.3867 111.733 34.76C112.107 35.1333 112.578 35.32 113.147 35.32C113.894 35.32 114.459 34.9747 114.841 34.284L116.535 35.208C116.265 35.8053 115.831 36.272 115.233 36.608C114.645 36.944 113.955 37.112 113.161 37.112ZM129.485 29.048H126.349V37H124.109V29.048H120.987V27.2H129.485V29.048ZM136.933 31.26H134.385V37H132.215V31.26H129.667V29.468H136.933V31.26ZM151.078 27.2L146.906 34.956C146.504 35.7027 146.019 36.2673 145.45 36.65C144.89 37.0327 144.278 37.224 143.616 37.224C143.102 37.224 142.57 37.112 142.02 36.888L142.566 35.166C142.958 35.2873 143.284 35.348 143.546 35.348C143.826 35.348 144.078 35.2827 144.302 35.152C144.526 35.012 144.731 34.7973 144.918 34.508L145.002 34.396L141.138 27.2H143.56L146.164 32.464L148.852 27.2H151.078ZM159.492 29.468L156.09 37.462C155.745 38.33 155.316 38.9413 154.802 39.296C154.298 39.6507 153.687 39.828 152.968 39.828C152.576 39.828 152.189 39.7673 151.806 39.646C151.424 39.5247 151.111 39.3567 150.868 39.142L151.666 37.588C151.834 37.7373 152.026 37.854 152.24 37.938C152.464 38.022 152.684 38.064 152.898 38.064C153.197 38.064 153.44 37.9893 153.626 37.84C153.813 37.7 153.981 37.462 154.13 37.126L154.158 37.056L150.896 29.468H153.15L155.264 34.578L157.392 29.468H159.492ZM176.285 32.072C176.285 33.3693 175.842 34.3913 174.955 35.138C174.078 35.8753 172.813 36.286 171.161 36.37V37.434H169.075V36.356C167.414 36.2627 166.14 35.8473 165.253 35.11C164.376 34.3633 163.937 33.3507 163.937 32.072C163.937 30.784 164.376 29.776 165.253 29.048C166.14 28.3107 167.414 27.8907 169.075 27.788V26.78H171.161V27.774C172.813 27.8673 174.078 28.2873 174.955 29.034C175.842 29.7807 176.285 30.7933 176.285 32.072ZM171.161 34.592C172.15 34.4987 172.888 34.2467 173.373 33.836C173.858 33.416 174.101 32.8233 174.101 32.058C174.101 30.5647 173.121 29.734 171.161 29.566V34.592ZM166.135 32.072C166.135 33.5467 167.115 34.3867 169.075 34.592V29.566C168.076 29.6593 167.334 29.9113 166.849 30.322C166.373 30.7233 166.135 31.3067 166.135 32.072ZM188.216 33.206C188.216 34.3727 187.824 35.2967 187.04 35.978C186.265 36.65 185.154 37.0373 183.708 37.14V39.716H181.706V37.14C180.259 37.0373 179.144 36.6547 178.36 35.992C177.585 35.32 177.198 34.3913 177.198 33.206C177.198 32.0393 177.58 31.134 178.346 30.49C179.12 29.846 180.24 29.4727 181.706 29.37V26.612H183.708V29.37C185.154 29.4727 186.265 29.8507 187.04 30.504C187.824 31.1573 188.216 32.058 188.216 33.206ZM179.312 33.206C179.312 33.878 179.503 34.396 179.886 34.76C180.268 35.124 180.875 35.3527 181.706 35.446V31.064C180.875 31.148 180.268 31.3673 179.886 31.722C179.503 32.0673 179.312 32.562 179.312 33.206ZM183.708 35.446C184.538 35.3527 185.145 35.124 185.528 34.76C185.92 34.396 186.116 33.878 186.116 33.206C186.116 32.562 185.92 32.0673 185.528 31.722C185.145 31.3673 184.538 31.148 183.708 31.064V35.446ZM195.591 27.2L197.621 30.168L199.651 27.2H202.311L199.049 31.89L202.577 37H199.903L197.621 33.752L195.367 37H192.749L196.249 31.988L192.973 27.2H195.591ZM207.893 37L206.241 34.69L204.533 37H202.153L205.051 33.206L202.251 29.468H204.701L206.297 31.666L207.935 29.468H210.259L207.459 33.15L210.371 37H207.893ZM225.855 35.152V39.072H223.769V37H215.579V27.2H217.833V35.152H222.201V27.2H224.455V35.152H225.855ZM235.667 35.208V38.652H233.637V37H227.183V29.468H229.353V35.208H232.391V29.468H234.575V35.208H235.667ZM249.223 27.2V37H246.983V33.472C246.134 33.78 245.345 33.934 244.617 33.934C243.301 33.934 242.293 33.6213 241.593 32.996C240.893 32.3613 240.543 31.4513 240.543 30.266V27.2H242.783V30.014C242.783 30.686 242.96 31.1947 243.315 31.54C243.679 31.876 244.202 32.044 244.883 32.044C245.63 32.044 246.33 31.8993 246.983 31.61V27.2H249.223ZM258.267 29.468V37H256.083V34.2C255.449 34.5173 254.749 34.676 253.983 34.676C252.966 34.676 252.196 34.4473 251.673 33.99C251.16 33.5233 250.903 32.8047 250.903 31.834V29.468H253.087V31.694C253.087 32.1513 253.204 32.4827 253.437 32.688C253.68 32.8933 254.025 32.996 254.473 32.996C255.043 32.996 255.579 32.8747 256.083 32.632V29.468H258.267ZM277.433 27.2V37H264.497V27.2H266.751V35.152H269.845V27.2H272.099V35.152H275.179V27.2H277.433ZM291.19 29.468V37H279.696V29.468H281.866V35.208H284.372V29.468H286.542V35.208H289.02V29.468H291.19ZM310.355 27.2V37H297.419V27.2H299.673V35.152H302.767V27.2H305.021V35.152H308.101V27.2H310.355ZM311.685 35.152V39.03H309.585V37H308.059V35.152H311.685ZM324.564 29.468V37H313.07V29.468H315.24V35.208H317.746V29.468H319.916V35.208H322.394V29.468H324.564ZM325.614 35.208V38.498H323.584V37H322.338V35.208H325.614ZM7.714 54.42C8.90867 54.42 9.82333 54.686 10.458 55.218C11.0927 55.75 11.41 56.5387 11.41 57.584C11.41 58.6947 11.0553 59.544 10.346 60.132C9.646 60.7107 8.65667 61 7.378 61H2.968V53.048H0.21V51.2H5.208V54.42H7.714ZM7.252 59.32C7.84933 59.32 8.31133 59.1753 8.638 58.886C8.96467 58.5967 9.128 58.1767 9.128 57.626C9.128 56.6087 8.50267 56.1 7.252 56.1H5.208V59.32H7.252ZM17.7417 55.876C18.7124 55.876 19.4544 56.0953 19.9677 56.534C20.4904 56.9633 20.7517 57.5747 20.7517 58.368C20.7517 59.1987 20.4577 59.8473 19.8697 60.314C19.2911 60.7713 18.4791 61 17.4337 61H13.7937V55.26H11.6237V53.468H15.9777V55.876H17.7417ZM17.3077 59.46C17.7091 59.46 18.0124 59.362 18.2177 59.166C18.4231 58.97 18.5257 58.69 18.5257 58.326C18.5257 57.6353 18.1197 57.29 17.3077 57.29H15.9777V59.46H17.3077ZM30.9835 54.42C32.1782 54.42 33.0929 54.686 33.7275 55.218C34.3715 55.75 34.6935 56.5387 34.6935 57.584C34.6935 58.6947 34.3389 59.544 33.6295 60.132C32.9295 60.7107 31.9402 61 30.6615 61H26.2375V51.2H28.4915V54.42H30.9835ZM30.5355 59.32C31.1235 59.32 31.5809 59.1753 31.9075 58.886C32.2435 58.5967 32.4115 58.1767 32.4115 57.626C32.4115 56.6087 31.7862 56.1 30.5355 56.1H28.4915V59.32H30.5355ZM35.9395 51.2H38.1935V61H35.9395V51.2ZM44.428 55.876C45.408 55.8853 46.15 56.1047 46.654 56.534C47.158 56.9633 47.41 57.5793 47.41 58.382C47.41 59.222 47.1253 59.8707 46.556 60.328C45.9867 60.7853 45.1793 61.014 44.134 61.014L40.466 61V53.468H42.636V55.876H44.428ZM48.222 53.468H50.392V61H48.222V53.468ZM43.938 59.46C44.358 59.4693 44.68 59.3807 44.904 59.194C45.128 59.0073 45.24 58.7273 45.24 58.354C45.24 57.99 45.128 57.724 44.904 57.556C44.6893 57.388 44.3673 57.2993 43.938 57.29L42.636 57.276V59.46H43.938ZM61.3761 54.42C62.5708 54.42 63.4854 54.686 64.1201 55.218C64.7641 55.75 65.0861 56.5387 65.0861 57.584C65.0861 58.6947 64.7314 59.544 64.0221 60.132C63.3221 60.7107 62.3328 61 61.0541 61H56.6301V51.2H58.8841V54.42H61.3761ZM60.9281 59.32C61.5161 59.32 61.9734 59.1753 62.3001 58.886C62.6361 58.5967 62.8041 58.1767 62.8041 57.626C62.8041 56.6087 62.1788 56.1 60.9281 56.1H58.8841V59.32H60.9281ZM70.626 55.876C71.606 55.8853 72.3573 56.1093 72.88 56.548C73.4026 56.9773 73.664 57.5887 73.664 58.382C73.664 59.2127 73.37 59.8613 72.782 60.328C72.2033 60.7853 71.3866 61.014 70.332 61.014L66.552 61V53.468H68.722V55.876H70.626ZM70.136 59.46C70.556 59.4693 70.878 59.3807 71.102 59.194C71.326 59.0073 71.438 58.7273 71.438 58.354C71.438 57.99 71.326 57.724 71.102 57.556C70.8873 57.388 70.5653 57.2993 70.136 57.29L68.722 57.276V59.46H70.136ZM82.2974 51.032C83.268 51.032 84.136 51.2513 84.9014 51.69C85.676 52.1193 86.2827 52.7213 86.7214 53.496C87.16 54.2613 87.3794 55.1293 87.3794 56.1C87.3794 57.0707 87.16 57.9433 86.7214 58.718C86.2827 59.4833 85.676 60.0853 84.9014 60.524C84.136 60.9533 83.268 61.168 82.2974 61.168C81.4294 61.168 80.6454 61.0187 79.9454 60.72C79.2547 60.4213 78.676 59.9873 78.2094 59.418L79.6514 58.074C80.342 58.8487 81.1867 59.236 82.1854 59.236C82.904 59.236 83.5107 59.026 84.0054 58.606C84.5094 58.186 84.836 57.6213 84.9854 56.912H81.0094V55.176H84.9574C84.7987 54.504 84.472 53.9673 83.9774 53.566C83.4827 53.1647 82.8854 52.964 82.1854 52.964C81.1867 52.964 80.342 53.3513 79.6514 54.126L78.2094 52.782C78.676 52.2127 79.2547 51.7787 79.9454 51.48C80.6454 51.1813 81.4294 51.032 82.2974 51.032ZM91.3031 53.328C92.1151 53.328 92.8384 53.496 93.4731 53.832C94.1171 54.1587 94.6211 54.6207 94.9851 55.218C95.3491 55.8153 95.5311 56.4873 95.5311 57.234C95.5311 57.9807 95.3491 58.6527 94.9851 59.25C94.6211 59.8473 94.1171 60.314 93.4731 60.65C92.8384 60.9767 92.1151 61.14 91.3031 61.14C90.5844 61.14 89.9311 61.0233 89.3431 60.79C88.7644 60.5473 88.2837 60.202 87.9011 59.754L89.1471 58.578C89.7164 59.166 90.4071 59.46 91.2191 59.46C91.7604 59.46 92.2271 59.3247 92.6191 59.054C93.0111 58.7833 93.2771 58.4147 93.4171 57.948H90.2531V56.45H93.3891C93.2397 56.002 92.9737 55.6473 92.5911 55.386C92.2084 55.1247 91.7511 54.994 91.2191 54.994C90.4164 54.994 89.7257 55.2927 89.1471 55.89L87.9011 54.728C88.2837 54.2707 88.7644 53.9253 89.3431 53.692C89.9311 53.4493 90.5844 53.328 91.3031 53.328ZM109.798 51.032C110.778 51.032 111.66 51.2513 112.444 51.69C113.237 52.1287 113.858 52.7353 114.306 53.51C114.754 54.2753 114.978 55.1387 114.978 56.1C114.978 57.0613 114.754 57.9293 114.306 58.704C113.858 59.4693 113.237 60.0713 112.444 60.51C111.66 60.9487 110.778 61.168 109.798 61.168C108.92 61.168 108.118 60.9953 107.39 60.65C106.662 60.2953 106.06 59.8053 105.584 59.18C105.117 58.5453 104.818 57.822 104.688 57.01H103.4V61H101.146V51.2H103.4V55.05H104.716C104.865 54.266 105.173 53.5707 105.64 52.964C106.116 52.348 106.713 51.872 107.432 51.536C108.15 51.2 108.939 51.032 109.798 51.032ZM109.798 59.236C110.339 59.236 110.829 59.1053 111.268 58.844C111.706 58.5827 112.052 58.214 112.304 57.738C112.556 57.262 112.682 56.716 112.682 56.1C112.682 55.484 112.556 54.938 112.304 54.462C112.052 53.986 111.706 53.6173 111.268 53.356C110.829 53.0947 110.339 52.964 109.798 52.964C109.256 52.964 108.766 53.0947 108.328 53.356C107.889 53.6173 107.544 53.986 107.292 54.462C107.04 54.938 106.914 55.484 106.914 56.1C106.914 56.716 107.04 57.262 107.292 57.738C107.544 58.214 107.889 58.5827 108.328 58.844C108.766 59.1053 109.256 59.236 109.798 59.236ZM123.703 53.356C124.469 53.356 125.155 53.524 125.761 53.86C126.368 54.1867 126.844 54.644 127.189 55.232C127.535 55.82 127.707 56.4873 127.707 57.234C127.707 57.9807 127.535 58.648 127.189 59.236C126.844 59.824 126.368 60.286 125.761 60.622C125.155 60.9487 124.469 61.112 123.703 61.112C123.041 61.112 122.434 60.9907 121.883 60.748C121.333 60.496 120.875 60.146 120.511 59.698C120.147 59.2407 119.905 58.718 119.783 58.13H118.747V61H116.577V53.468H118.747V56.24H119.797C120.012 55.3627 120.469 54.6627 121.169 54.14C121.869 53.6173 122.714 53.356 123.703 53.356ZM123.703 59.32C124.235 59.32 124.674 59.1333 125.019 58.76C125.374 58.3773 125.551 57.8687 125.551 57.234C125.551 56.59 125.374 56.0813 125.019 55.708C124.674 55.3347 124.235 55.148 123.703 55.148C123.162 55.148 122.714 55.3347 122.359 55.708C122.014 56.0813 121.841 56.59 121.841 57.234C121.841 57.8687 122.014 58.3773 122.359 58.76C122.714 59.1333 123.162 59.32 123.703 59.32ZM141.183 51.2V61H138.943V58.396H136.871L135.135 61H132.741L134.785 58.046C134.122 57.7753 133.613 57.3693 133.259 56.828C132.904 56.2773 132.727 55.6193 132.727 54.854C132.727 54.098 132.899 53.4493 133.245 52.908C133.59 52.3573 134.08 51.9373 134.715 51.648C135.349 51.3493 136.096 51.2 136.955 51.2H141.183ZM137.011 53.048C136.367 53.048 135.872 53.1973 135.527 53.496C135.191 53.7947 135.023 54.238 135.023 54.826C135.023 55.3953 135.186 55.834 135.513 56.142C135.839 56.45 136.32 56.604 136.955 56.604H138.943V53.048H137.011ZM150.162 53.468V61H148.216V58.844H146.606L145.178 61H142.854L144.576 58.536C144.053 58.3307 143.652 58.0367 143.372 57.654C143.101 57.262 142.966 56.7907 142.966 56.24C142.966 55.3533 143.283 54.672 143.918 54.196C144.562 53.7107 145.444 53.468 146.564 53.468H150.162ZM146.606 55.246C146.139 55.246 145.785 55.33 145.542 55.498C145.309 55.666 145.192 55.9367 145.192 56.31C145.192 56.6833 145.304 56.9587 145.528 57.136C145.761 57.304 146.111 57.388 146.578 57.388H148.216V55.246H146.606Z" fill="white"/>
</svg>
