<svg width="115" height="15" viewBox="0 0 115 15" fill="none" xmlns="http://www.w3.org/2000/svg">
<path d="M13.4 14L13.38 5.6L9.26 12.52H7.8L3.7 5.78V14H0.66V-9.53674e-07H3.34L8.58 8.7L13.74 -9.53674e-07H16.4L16.44 14H13.4ZM24.6616 14.16C23.5282 14.16 22.5082 13.9267 21.6016 13.46C20.7082 12.98 20.0082 12.32 19.5016 11.48C18.9949 10.64 18.7416 9.68667 18.7416 8.62C18.7416 7.55333 18.9949 6.6 19.5016 5.76C20.0082 4.92 20.7082 4.26667 21.6016 3.8C22.5082 3.32 23.5282 3.08 24.6616 3.08C25.7949 3.08 26.8082 3.32 27.7016 3.8C28.5949 4.26667 29.2949 4.92 29.8016 5.76C30.3082 6.6 30.5616 7.55333 30.5616 8.62C30.5616 9.68667 30.3082 10.64 29.8016 11.48C29.2949 12.32 28.5949 12.98 27.7016 13.46C26.8082 13.9267 25.7949 14.16 24.6616 14.16ZM24.6616 11.6C25.4616 11.6 26.1149 11.3333 26.6216 10.8C27.1416 10.2533 27.4016 9.52667 27.4016 8.62C27.4016 7.71333 27.1416 6.99333 26.6216 6.46C26.1149 5.91333 25.4616 5.64 24.6616 5.64C23.8616 5.64 23.2016 5.91333 22.6816 6.46C22.1616 6.99333 21.9016 7.71333 21.9016 8.62C21.9016 9.52667 22.1616 10.2533 22.6816 10.8C23.2016 11.3333 23.8616 11.6 24.6616 11.6ZM39.187 3.08C40.5204 3.08 41.5937 3.48 42.407 4.28C43.2337 5.08 43.647 6.26667 43.647 7.84V14H40.527V8.32C40.527 7.46667 40.3404 6.83333 39.967 6.42C39.5937 5.99333 39.0537 5.78 38.347 5.78C37.5604 5.78 36.9337 6.02667 36.467 6.52C36.0004 7 35.767 7.72 35.767 8.68V14H32.647V3.24H35.627V4.5C36.0404 4.04667 36.5537 3.7 37.167 3.46C37.7804 3.20667 38.4537 3.08 39.187 3.08ZM53.4152 13.48C53.1085 13.7067 52.7285 13.88 52.2752 14C51.8352 14.1067 51.3685 14.16 50.8752 14.16C49.5952 14.16 48.6018 13.8333 47.8952 13.18C47.2018 12.5267 46.8552 11.5667 46.8552 10.3V5.88H45.1952V3.48H46.8552V0.86H49.9752V3.48H52.6552V5.88H49.9752V10.26C49.9752 10.7133 50.0885 11.0667 50.3152 11.32C50.5552 11.56 50.8885 11.68 51.3152 11.68C51.8085 11.68 52.2285 11.5467 52.5752 11.28L53.4152 13.48ZM58.7866 14.16C57.8932 14.16 57.0199 14.0533 56.1666 13.84C55.3132 13.6133 54.6332 13.3333 54.1266 13L55.1666 10.76C55.6466 11.0667 56.2266 11.32 56.9066 11.52C57.5866 11.7067 58.2532 11.8 58.9066 11.8C60.2266 11.8 60.8866 11.4733 60.8866 10.82C60.8866 10.5133 60.7066 10.2933 60.3466 10.16C59.9866 10.0267 59.4332 9.91333 58.6866 9.82C57.8066 9.68667 57.0799 9.53333 56.5066 9.36C55.9332 9.18667 55.4332 8.88 55.0066 8.44C54.5932 8 54.3866 7.37333 54.3866 6.56C54.3866 5.88 54.5799 5.28 54.9666 4.76C55.3666 4.22667 55.9399 3.81333 56.6866 3.52C57.4466 3.22667 58.3399 3.08 59.3666 3.08C60.1266 3.08 60.8799 3.16667 61.6266 3.34C62.3866 3.5 63.0132 3.72667 63.5066 4.02L62.4666 6.24C61.5199 5.70667 60.4866 5.44 59.3666 5.44C58.6999 5.44 58.1999 5.53333 57.8666 5.72C57.5332 5.90667 57.3666 6.14667 57.3666 6.44C57.3666 6.77333 57.5466 7.00667 57.9066 7.14C58.2666 7.27333 58.8399 7.4 59.6266 7.52C60.5066 7.66667 61.2266 7.82667 61.7866 8C62.3466 8.16 62.8332 8.46 63.2466 8.9C63.6599 9.34 63.8666 9.95333 63.8666 10.74C63.8666 11.4067 63.6666 12 63.2666 12.52C62.8666 13.04 62.2799 13.4467 61.5066 13.74C60.7466 14.02 59.8399 14.16 58.7866 14.16ZM76.3316 8.66C76.3316 8.7 76.3116 8.98 76.2716 9.5H68.1316C68.2782 10.1667 68.6249 10.6933 69.1716 11.08C69.7182 11.4667 70.3982 11.66 71.2116 11.66C71.7716 11.66 72.2649 11.58 72.6916 11.42C73.1316 11.2467 73.5382 10.98 73.9116 10.62L75.5716 12.42C74.5582 13.58 73.0782 14.16 71.1316 14.16C69.9182 14.16 68.8449 13.9267 67.9116 13.46C66.9782 12.98 66.2582 12.32 65.7516 11.48C65.2449 10.64 64.9916 9.68667 64.9916 8.62C64.9916 7.56667 65.2382 6.62 65.7316 5.78C66.2382 4.92667 66.9249 4.26667 67.7916 3.8C68.6716 3.32 69.6516 3.08 70.7316 3.08C71.7849 3.08 72.7382 3.30667 73.5916 3.76C74.4449 4.21333 75.1116 4.86667 75.5916 5.72C76.0849 6.56 76.3316 7.54 76.3316 8.66ZM70.7516 5.44C70.0449 5.44 69.4516 5.64 68.9716 6.04C68.4916 6.44 68.1982 6.98667 68.0916 7.68H73.3916C73.2849 7 72.9916 6.46 72.5116 6.06C72.0316 5.64667 71.4449 5.44 70.7516 5.44ZM81.3888 4.66C81.7621 4.14 82.2621 3.74667 82.8888 3.48C83.5288 3.21333 84.2621 3.08 85.0888 3.08V5.96C84.7421 5.93333 84.5088 5.92 84.3888 5.92C83.4954 5.92 82.7954 6.17333 82.2888 6.68C81.7821 7.17333 81.5288 7.92 81.5288 8.92V14H78.4088V3.24H81.3888V4.66ZM89.9239 4.66C90.2972 4.14 90.7972 3.74667 91.4239 3.48C92.0639 3.21333 92.7972 3.08 93.6239 3.08V5.96C93.2772 5.93333 93.0439 5.92 92.9239 5.92C92.0306 5.92 91.3306 6.17333 90.8239 6.68C90.3172 7.17333 90.0639 7.92 90.0639 8.92V14H86.9439V3.24H89.9239V4.66ZM99.7605 3.08C101.427 3.08 102.707 3.48 103.6 4.28C104.494 5.06667 104.94 6.26 104.94 7.86V14H102.02V12.66C101.434 13.66 100.34 14.16 98.7405 14.16C97.9138 14.16 97.1938 14.02 96.5805 13.74C95.9805 13.46 95.5205 13.0733 95.2005 12.58C94.8805 12.0867 94.7205 11.5267 94.7205 10.9C94.7205 9.9 95.0938 9.11333 95.8405 8.54C96.6005 7.96667 97.7671 7.68 99.3405 7.68H101.82C101.82 7 101.614 6.48 101.2 6.12C100.787 5.74667 100.167 5.56 99.3405 5.56C98.7671 5.56 98.2005 5.65333 97.6405 5.84C97.0938 6.01333 96.6271 6.25333 96.2405 6.56L95.1205 4.38C95.7071 3.96667 96.4071 3.64667 97.2205 3.42C98.0471 3.19333 98.8938 3.08 99.7605 3.08ZM99.5205 12.06C100.054 12.06 100.527 11.94 100.94 11.7C101.354 11.4467 101.647 11.08 101.82 10.6V9.5H99.6805C98.4005 9.5 97.7605 9.92 97.7605 10.76C97.7605 11.16 97.9138 11.48 98.2205 11.72C98.5405 11.9467 98.9738 12.06 99.5205 12.06ZM114.704 13.48C114.398 13.7067 114.018 13.88 113.564 14C113.124 14.1067 112.658 14.16 112.164 14.16C110.884 14.16 109.891 13.8333 109.184 13.18C108.491 12.5267 108.144 11.5667 108.144 10.3V5.88H106.484V3.48H108.144V0.86H111.264V3.48H113.944V5.88H111.264V10.26C111.264 10.7133 111.378 11.0667 111.604 11.32C111.844 11.56 112.178 11.68 112.604 11.68C113.098 11.68 113.518 11.5467 113.864 11.28L114.704 13.48Z" fill="white"/>
</svg>
