<svg width="499" height="120" viewBox="0 0 499 120" fill="none" xmlns="http://www.w3.org/2000/svg">
<path d="M123.776 117L80.432 2.27599H43.28L0.108 117H33.648L39.324 100.488H84.56L90.236 117H123.776ZM76.476 74.688H47.236L61.856 31.516L76.476 74.688ZM207.07 117V65.056C207.07 39.256 188.322 31.86 168.37 31.86C155.642 31.86 141.366 35.644 130.702 44.76L140.162 61.444C146.87 55.768 155.47 52.672 163.726 52.672C174.39 52.672 180.582 57.488 180.582 64.712V74.688C175.594 68.496 165.79 65.056 154.782 65.056C142.054 65.056 126.23 71.592 126.23 91.716C126.23 110.464 142.054 119.064 154.782 119.064C165.446 119.064 175.422 114.936 180.582 108.744V117H207.07ZM165.79 101.692C158.738 101.692 152.546 98.596 152.546 92.06C152.546 85.524 158.738 82.428 165.79 82.428C171.638 82.428 177.83 84.492 180.582 88.276V95.672C177.83 99.628 171.638 101.692 165.79 101.692ZM270.328 119.064C303.868 119.064 319.52 89.996 319.52 59.724C319.52 29.452 303.868 0.555992 270.328 0.555992C236.788 0.555992 221.136 29.452 221.136 59.724C221.136 89.996 236.788 119.064 270.328 119.064ZM270.328 92.92C256.568 92.92 251.064 80.02 251.064 59.724C251.064 39.428 256.568 26.7 270.328 26.7C284.088 26.7 289.592 39.428 289.592 59.724C289.592 80.02 284.088 92.92 270.328 92.92ZM390.56 117V2.27599H364.932L324.856 41.836L341.712 59.552L360.976 40.116V117H390.56ZM498.45 117V91.2H456.482C485.034 71.248 497.59 56.284 497.59 38.74C497.59 15.692 478.154 0.555992 451.15 0.555992C435.154 0.555992 416.922 6.23199 404.71 19.648L421.05 39.256C429.306 31.516 438.938 26.7 451.666 26.7C460.094 26.7 467.49 30.828 467.49 38.74C467.49 50.092 458.202 58.004 408.494 93.952V117H498.45Z" fill="white"/>
</svg>
