<svg width="312" height="64" viewBox="0 0 312 64" fill="none" xmlns="http://www.w3.org/2000/svg">
<path opacity="0.2" d="M12.008 14L7.896 3.328H5.048L0.92 14H3.512L4.184 12.192H8.76L9.416 14H12.008ZM8.136 10.192H4.808L6.472 5.6L8.136 10.192ZM19.6175 14V9.008C19.6175 6.784 18.0015 6.08 16.2415 6.08C15.0255 6.08 13.8095 6.464 12.8655 7.296L13.6335 8.656C14.2895 8.048 15.0575 7.744 15.8895 7.744C16.9135 7.744 17.5855 8.256 17.5855 9.04V10.08C17.0735 9.472 16.1615 9.136 15.1375 9.136C13.9055 9.136 12.4495 9.824 12.4495 11.632C12.4495 13.36 13.9055 14.192 15.1375 14.192C16.1455 14.192 17.0575 13.824 17.5855 13.2V14H19.6175ZM15.9535 12.816C15.1535 12.816 14.4975 12.4 14.4975 11.68C14.4975 10.928 15.1535 10.512 15.9535 10.512C16.6095 10.512 17.2495 10.736 17.5855 11.184V12.144C17.2495 12.592 16.6095 12.816 15.9535 12.816ZM25.7747 3.328V14H30.8148C33.1028 14 34.3508 12.448 34.3508 10.608C34.3508 8.768 33.0868 7.216 30.8148 7.216H28.0468V5.328H33.5668V3.328H25.7747ZM30.5108 9.216C31.3908 9.216 32.0308 9.744 32.0308 10.608C32.0308 11.456 31.3908 12 30.5108 12H28.0468V9.216H30.5108ZM39.2951 12.384C38.0311 12.384 37.3271 11.344 37.3271 10.096C37.3271 8.928 38.0311 7.888 39.2951 7.888C40.5591 7.888 41.2791 8.928 41.2791 10.096C41.2791 11.344 40.5591 12.384 39.2951 12.384ZM39.2951 14.192C41.8711 14.192 43.3751 12.288 43.3751 10.112C43.3751 7.968 41.9351 6.08 39.7271 6.08C38.6551 6.08 37.7111 6.528 37.0871 7.344C37.2951 6.448 38.0471 5.648 39.8711 5.408C41.1351 5.248 43.0871 4.832 43.0871 3.328H40.9751C40.9751 3.6 40.5271 3.792 39.2311 3.984C36.5751 4.336 35.2151 6.016 35.2151 9.776C35.2151 12.288 36.7191 14.192 39.2951 14.192ZM54.8793 14C56.9113 14 57.9833 12.72 57.9833 11.12C57.9833 9.776 57.0712 8.672 55.9353 8.496C56.9433 8.288 57.7753 7.392 57.7753 6.048C57.7753 4.624 56.7353 3.328 54.7033 3.328H49.0872V14H54.8793ZM54.2073 7.6H51.3593V5.28H54.2073C54.9753 5.28 55.4553 5.776 55.4553 6.448C55.4553 7.12 54.9753 7.6 54.2073 7.6ZM54.2873 12.032H51.3593V9.552H54.2873C55.1833 9.552 55.6633 10.128 55.6633 10.8C55.6633 11.568 55.1513 12.032 54.2873 12.032ZM64.6886 14C66.2406 14 67.0726 13.072 67.0726 11.904C67.0726 10.976 66.4486 10.208 65.6006 10.016C66.3206 9.808 66.9126 9.184 66.9126 8.256C66.9126 7.216 66.1126 6.272 64.5446 6.272H59.6486V14H64.6886ZM64.1926 12.336H61.6806V10.896H64.1926C64.7046 10.896 64.9926 11.232 64.9926 11.616C64.9926 12.064 64.6886 12.336 64.1926 12.336ZM64.1286 9.232H61.6806V7.936H64.1286C64.5766 7.936 64.8486 8.208 64.8486 8.592C64.8486 8.944 64.5766 9.232 64.1286 9.232ZM75.4374 14V5.328H80.7174V3.328H73.1654V14H75.4374ZM88.226 6.272H82.258V14H84.29V8.048H88.226V6.272ZM93.0254 15.968H95.2974V14H101.953V15.968H104.225V12H103.265V3.328H95.6814L95.0574 8.784C94.7214 11.6 94.1134 12.032 93.0254 12.176V15.968ZM97.3134 8.944L97.7294 5.328H100.977V12H96.0174C96.6894 11.376 97.1534 10.384 97.3134 8.944ZM104.788 15.968H106.836V14H111.588V15.968H113.62V12.224H112.772V6.272H106.516L106.02 10.016C105.78 11.888 105.412 12.192 104.788 12.304V15.968ZM108.292 8.048H110.74V12.224H107.156C107.636 11.776 107.94 11.088 108.052 10.144L108.292 8.048ZM126.592 14V12H121.312V9.584H126.48V7.584H121.312V5.328H126.592V3.328H119.04V14H126.592ZM131.953 14.192C133.153 14.192 134.369 13.824 135.137 13.12L134.241 11.808C133.745 12.288 132.833 12.576 132.177 12.576C130.865 12.576 130.081 11.76 129.953 10.784H135.697V10.336C135.697 7.808 134.129 6.08 131.825 6.08C129.473 6.08 127.825 7.888 127.825 10.128C127.825 12.608 129.601 14.192 131.953 14.192ZM133.729 9.408H129.921C130.017 8.64 130.561 7.696 131.825 7.696C133.169 7.696 133.681 8.672 133.729 9.408ZM147.85 1.552C147.85 0.959999 147.354 0.48 146.762 0.48C146.17 0.48 145.674 0.959999 145.674 1.552C145.674 2.16 146.17 2.64 146.762 2.64C147.354 2.64 147.85 2.16 147.85 1.552ZM144.458 1.552C144.458 0.959999 143.978 0.48 143.386 0.48C142.778 0.48 142.298 0.959999 142.298 1.552C142.298 2.16 142.778 2.64 143.386 2.64C143.978 2.64 144.458 2.16 144.458 1.552ZM148.858 14V12H143.578V9.584H148.746V7.584H143.578V5.328H148.858V3.328H141.306V14H148.858ZM156.89 4.224C156.89 3.632 156.394 3.152 155.802 3.152C155.21 3.152 154.714 3.632 154.714 4.224C154.714 4.832 155.21 5.312 155.802 5.312C156.394 5.312 156.89 4.832 156.89 4.224ZM153.498 4.224C153.498 3.632 153.018 3.152 152.426 3.152C151.818 3.152 151.338 3.632 151.338 4.224C151.338 4.832 151.818 5.312 152.426 5.312C153.018 5.312 153.498 4.832 153.498 4.224ZM154.218 14.192C155.418 14.192 156.634 13.824 157.402 13.12L156.506 11.808C156.01 12.288 155.098 12.576 154.442 12.576C153.13 12.576 152.346 11.76 152.218 10.784H157.962V10.336C157.962 7.808 156.394 6.08 154.09 6.08C151.738 6.08 150.09 7.888 150.09 10.128C150.09 12.608 151.866 14.192 154.218 14.192ZM155.994 9.408H152.186C152.282 8.64 152.826 7.696 154.09 7.696C155.434 7.696 155.946 8.672 155.994 9.408ZM165.3 14L168.532 9.728L168.98 10.272V14H171.268V10.272L171.716 9.728L174.948 14H177.732L173.22 8.336L177.46 3.328H174.644L171.268 7.616V3.328H168.98V7.616L165.588 3.328H162.788L167.028 8.336L162.516 14H165.3ZM179.747 14L181.811 11.024L182.179 11.424V14H184.227V11.424L184.595 11.024L186.659 14H189.187L186.051 9.776L189.091 6.272H186.595L184.227 9.072V6.272H182.179V9.072L179.811 6.272H177.315L180.355 9.776L177.219 14H179.747ZM198.017 14.192C200.561 14.192 202.401 12.896 202.401 11.056C202.401 9.456 200.993 8.608 199.921 8.496C201.089 8.288 202.241 7.408 202.241 6.064C202.241 4.288 200.513 3.168 198.017 3.168C196.145 3.168 194.625 3.888 193.761 4.864L194.897 6.288C195.649 5.568 196.753 5.184 197.793 5.184C199.009 5.184 199.969 5.6 199.969 6.448C199.969 7.232 199.057 7.584 197.793 7.584H195.633V9.584H197.793C199.393 9.584 200.145 9.968 200.145 10.816C200.145 11.616 199.329 12.176 197.921 12.176C196.881 12.176 195.537 11.728 194.801 10.96L193.617 12.48C194.401 13.44 196.049 14.192 198.017 14.192ZM206.887 14.192C209.191 14.192 210.615 13.232 210.615 11.872C210.615 10.704 209.383 10.096 208.439 10.032C209.463 9.872 210.455 9.2 210.455 8.208C210.455 6.896 209.095 6.08 206.679 6.096C205.271 6.096 204.151 6.624 203.399 7.376L204.391 8.576C204.999 7.984 205.783 7.696 206.791 7.696C207.703 7.696 208.343 8.016 208.343 8.48C208.343 9.024 207.815 9.312 206.759 9.312H205.174V10.88H206.759C207.815 10.88 208.487 11.152 208.487 11.744C208.487 12.24 207.927 12.576 206.887 12.576C205.959 12.576 204.935 12.304 204.215 11.696L203.287 12.96C204.039 13.696 205.287 14.192 206.887 14.192ZM218.467 14L223.555 6.848V14H225.827V3.328H223.491L218.547 10.224V3.328H216.275V14H218.467ZM229.835 14L233.115 9.152V14H235.147V6.272H233.099L229.915 10.944V6.272H227.883V14H229.835ZM250.442 14L245.914 8.336L250.154 3.328H247.354L243.578 8.096V3.328H241.306V14H243.578V10.72L244.41 9.728L247.642 14H250.442ZM258.982 14L255.83 9.776L258.886 6.272H256.39L253.462 9.712V6.272H251.43V14H253.462V12.016L254.39 11.024L256.438 14H258.982ZM263.494 14.192C265.67 14.192 267.27 13.376 267.782 8.944L268.198 5.328H271.446V14H273.734V3.328H266.15L265.526 8.784C265.19 11.6 264.566 12.176 263.494 12.176V14.192ZM275.069 14.192C277.037 14.192 277.997 12.928 278.317 10.256L278.573 8.048H281.021V14H283.053V6.272H276.797L276.301 10.016C276.061 11.888 275.693 12.528 275.069 12.528V14.192ZM300.78 14V3.328H297.58L294.988 9.776L292.396 3.328H289.212V14H291.484V6.528L294.492 14H295.484L298.492 6.528V14H300.78ZM311.988 14V6.272H309.3L307.428 10.88L305.524 6.272H302.852V14H304.884V8.976L306.964 14H307.892L309.956 8.976V14H311.988ZM11.656 38V27.328H9.368V31.52H4.328V27.328H2.056V38H4.328V33.52H9.368V38H11.656ZM15.7431 38V34.912H18.9431V38H20.9751V30.272H18.9431V33.136H15.7431V30.272H13.7111V38H15.7431ZM32.1901 38.192C35.4221 38.192 37.7741 35.888 37.7741 32.672C37.7741 29.456 35.4221 27.152 32.1901 27.152C28.9741 27.152 26.6221 29.456 26.6221 32.672C26.6221 35.888 28.9741 38.192 32.1901 38.192ZM32.1901 36.176C30.2221 36.176 28.9581 34.656 28.9581 32.672C28.9581 30.672 30.2221 29.168 32.1901 29.168C34.1581 29.168 35.4381 30.672 35.4381 32.672C35.4381 34.656 34.1581 36.176 32.1901 36.176ZM42.9045 38.192C45.4645 38.192 47.0005 36.336 47.0005 34.128C47.0005 31.936 45.4645 30.08 42.9045 30.08C40.3605 30.08 38.8245 31.936 38.8245 34.128C38.8245 36.336 40.3605 38.192 42.9045 38.192ZM42.9045 36.384C41.6405 36.384 40.9365 35.344 40.9365 34.128C40.9365 32.928 41.6405 31.888 42.9045 31.888C44.1685 31.888 44.8885 32.928 44.8885 34.128C44.8885 35.344 44.1685 36.384 42.9045 36.384ZM62.2498 38V27.328H52.6497V38H54.9218V29.328H59.9618V38H62.2498ZM71.5689 38V30.272H64.3049V38H66.3369V32.048H69.5369V38H71.5689ZM79.9999 38V34.208H82.7199C85.0239 34.208 86.3039 32.624 86.3039 30.768C86.3039 28.896 85.0399 27.328 82.7199 27.328H77.7279V38H79.9999ZM82.4159 32.208H79.9999V29.328H82.4159C83.3119 29.328 83.9839 29.872 83.9839 30.768C83.9839 31.648 83.3119 32.208 82.4159 32.208ZM92.0803 38.192C94.0643 38.192 95.5043 36.704 95.5043 34.128C95.5043 31.552 94.0643 30.08 92.0803 30.08C91.1363 30.08 90.2883 30.496 89.6963 31.248V30.272H87.6643V40.944H89.6963V37.008C90.3203 37.808 91.1683 38.192 92.0803 38.192ZM91.4403 36.384C90.7843 36.384 90.0323 35.984 89.6963 35.504V32.768C90.0323 32.272 90.7843 31.888 91.4403 31.888C92.6083 31.888 93.3923 32.8 93.3923 34.128C93.3923 35.472 92.6083 36.384 91.4403 36.384ZM106.302 38.192C108.654 38.192 109.998 36.896 110.766 35.568L108.814 34.624C108.366 35.504 107.406 36.176 106.302 36.176C104.366 36.176 102.958 34.688 102.958 32.672C102.958 30.656 104.366 29.168 106.302 29.168C107.406 29.168 108.366 29.856 108.814 30.72L110.766 29.76C110.014 28.432 108.654 27.152 106.302 27.152C103.102 27.152 100.622 29.392 100.622 32.672C100.622 35.952 103.102 38.192 106.302 38.192ZM115.671 38.192C117.255 38.192 118.215 37.504 118.727 36.784L117.399 35.552C117.031 36.064 116.471 36.384 115.766 36.384C114.535 36.384 113.671 35.472 113.671 34.128C113.671 32.784 114.535 31.888 115.766 31.888C116.471 31.888 117.031 32.176 117.399 32.72L118.727 31.472C118.215 30.768 117.255 30.08 115.671 30.08C113.287 30.08 111.575 31.76 111.575 34.128C111.575 36.512 113.287 38.192 115.671 38.192ZM128.949 38V29.328H132.053V27.328H123.541V29.328H126.661V38H128.949ZM136.714 38V32.048H138.874V30.272H132.506V32.048H134.666V38H136.714ZM145.73 38.192C147.634 38.192 148.562 37.248 149.218 35.952L153.618 27.328H151.042L148.386 32.992L145.746 27.328H143.17L147.106 35.072C146.69 35.856 146.338 36.176 145.554 36.176C145.042 36.176 144.546 35.904 144.178 35.6L143.314 37.424C143.794 37.856 144.754 38.192 145.73 38.192ZM154.08 41.024C154.336 41.088 154.848 41.136 155.088 41.136C156.416 41.104 157.44 40.72 158.016 39.264L161.648 30.272H159.456L157.44 35.648L155.424 30.272H153.248L156.384 38.112L156.096 38.768C155.904 39.184 155.552 39.328 155.024 39.328C154.832 39.328 154.56 39.28 154.384 39.2L154.08 41.024ZM173.609 38V36.928C176.841 36.656 178.761 35.136 178.761 32.672C178.761 30.208 176.841 28.704 173.609 28.416V27.328H171.337V28.416C168.105 28.704 166.185 30.224 166.185 32.672C166.185 35.136 168.105 36.656 171.337 36.928V38H173.609ZM176.441 32.672C176.441 33.888 175.449 34.688 173.609 34.896V30.448C175.449 30.672 176.441 31.456 176.441 32.672ZM168.521 32.672C168.521 31.472 169.497 30.672 171.337 30.448V34.896C169.497 34.672 168.521 33.888 168.521 32.672ZM182.976 30.08C181.264 30.08 180.016 31.568 180.016 34.144C180.016 36.72 181.264 38.192 182.976 38.192C183.792 38.192 184.528 37.776 185.04 37.008V40.944H187.072V37.008C187.616 37.808 188.336 38.192 189.136 38.192C190.848 38.192 192.096 36.704 192.096 34.128C192.096 31.552 190.848 30.08 189.136 30.08C188.32 30.08 187.584 30.496 187.072 31.248V27.328H185.04V31.264C184.48 30.464 183.776 30.08 182.976 30.08ZM183.632 31.888C184.16 31.888 184.768 32.288 185.04 32.768V35.504C184.752 36 184.16 36.384 183.632 36.384C182.72 36.384 182.064 35.472 182.064 34.144C182.064 32.8 182.72 31.888 183.632 31.888ZM188.464 36.384C187.952 36.384 187.344 35.984 187.072 35.504V32.768C187.344 32.272 187.952 31.888 188.464 31.888C189.392 31.888 190.032 32.8 190.032 34.128C190.032 35.472 189.392 36.384 188.464 36.384ZM207.611 38L203.739 32.512L207.371 27.328H204.635L202.219 30.976L199.771 27.328H197.067L200.699 32.528L196.827 38H199.531L202.219 34.096L204.891 38H207.611ZM215.627 38L212.859 34.032L215.451 30.272H213.179L211.595 32.656L209.995 30.272H207.723L210.299 34.032L207.562 38H209.819L211.595 35.392L213.355 38H215.627ZM229.063 39.968H231.335V36H230.375V27.328H228.087V36H223.047V27.328H220.775V38H229.063V39.968ZM238.697 39.968H240.729V36.224H239.881V30.272H237.849V36.224H234.649V30.272H232.617V38H238.697V39.968ZM248.166 27.328H245.878V30.32C245.878 32.688 247.126 34.256 249.846 34.256C250.662 34.256 251.462 34.112 252.15 33.904V38H254.422V27.328H252.15V31.904C251.59 32.128 250.886 32.256 250.118 32.256C248.886 32.256 248.166 31.712 248.166 30.32V27.328ZM256.252 30.272V33.072C256.252 34.672 257.052 35.616 259.212 35.616C260.172 35.616 260.972 35.408 261.468 35.136V38H263.516V30.272H261.468V33.504C261.116 33.68 260.62 33.808 259.916 33.808C258.844 33.808 258.284 33.456 258.284 32.368V30.272H256.252ZM280.993 27.328V36H277.617V27.328H275.329V36H271.937V27.328H269.665V38H283.281V27.328H280.993ZM294.456 30.272V36.224H291.944V30.272H289.912V36.224H287.384V30.272H285.352V38H296.504V30.272H294.456ZM13.384 51.328V60H10.008V51.328H7.72V60H4.328V51.328H2.056V62H14.36V63.968H16.648V60H15.672V51.328H13.384ZM27.0183 54.272V60.224H24.5063V54.272H22.4743V60.224H19.9463V54.272H17.9143V62H27.9783V63.968H30.0263V60.224H29.0663V54.272H27.0183ZM42.887 62C45.207 62 46.487 60.432 46.487 58.56C46.487 56.704 45.191 55.12 42.887 55.12H40.183V51.328H34.775V53.328H37.895V62H42.887ZM42.583 57.12C43.479 57.12 44.151 57.68 44.151 58.56C44.151 59.456 43.479 60 42.583 60H40.183V57.12H42.583ZM53.4013 62C55.1293 62 56.0893 60.832 56.0893 59.456C56.0893 58.096 55.1933 56.928 53.4013 56.928H50.7613V54.272H46.5533V56.048H48.7133V62H53.4013ZM53.0973 58.624C53.6733 58.624 54.0093 58.976 54.0093 59.456C54.0093 59.936 53.6733 60.288 53.0973 60.288H50.7613V58.624H53.0973ZM61.7122 51.328V62H66.7043C69.0243 62 70.2883 60.432 70.2883 58.56C70.2883 56.704 69.0083 55.12 66.7043 55.12H63.9843V51.328H61.7122ZM66.4003 57.12C67.2963 57.12 67.9683 57.68 67.9683 58.56C67.9683 59.456 67.2963 60 66.4003 60H63.9843V57.12H66.4003ZM73.4723 62V51.328H71.1843V62H73.4723ZM75.5393 54.272V62H80.2113C81.9393 62 82.8993 60.832 82.8993 59.456C82.8993 58.096 82.0033 56.928 80.2113 56.928H77.5713V54.272H75.5393ZM79.9073 58.624C80.4833 58.624 80.8193 58.976 80.8193 59.456C80.8193 59.936 80.4833 60.288 79.9073 60.288H77.5713V58.624H79.9073ZM85.9553 62V54.272H83.9073V62H85.9553ZM92.1029 51.328V62H97.0949C99.4149 62 100.679 60.432 100.679 58.56C100.679 56.704 99.3989 55.12 97.0949 55.12H94.3749V51.328H92.1029ZM96.7909 57.12C97.6869 57.12 98.3589 57.68 98.3589 58.56C98.3589 59.456 97.6869 60 96.7909 60H94.3749V57.12H96.7909ZM102.039 54.272V62H106.711C108.439 62 109.399 60.832 109.399 59.456C109.399 58.096 108.503 56.928 106.711 56.928H104.071V54.272H102.039ZM106.407 58.624C106.983 58.624 107.319 58.976 107.319 59.456C107.319 59.936 106.983 60.288 106.407 60.288H104.071V58.624H106.407ZM118.721 62.192C121.937 62.192 124.401 59.952 124.401 56.672C124.401 53.392 121.937 51.152 118.721 51.152C116.369 51.152 115.025 52.432 114.273 53.76L116.225 54.72C116.673 53.856 117.633 53.168 118.769 53.168C120.353 53.168 121.537 54.144 121.937 55.584H116.865V57.584H121.985C121.633 59.12 120.417 60.176 118.769 60.176C117.633 60.176 116.673 59.504 116.225 58.624L114.273 59.568C115.025 60.896 116.369 62.192 118.721 62.192ZM128.329 62.192C130.697 62.192 132.425 60.512 132.425 58.128C132.425 55.76 130.697 54.08 128.329 54.08C126.745 54.08 125.769 54.768 125.273 55.472L126.521 56.592C126.905 56.048 127.497 55.696 128.201 55.696C129.225 55.696 129.977 56.288 130.217 57.328H127.113V58.896H130.233C129.993 59.968 129.225 60.576 128.201 60.576C127.497 60.576 126.905 60.208 126.521 59.664L125.273 60.784C125.769 61.504 126.745 62.192 128.329 62.192ZM147.591 62.192C150.823 62.192 153.159 59.888 153.159 56.672C153.159 53.456 150.823 51.152 147.591 51.152C144.759 51.152 142.615 52.928 142.119 55.52H140.359V51.328H138.087V62H140.359V57.52H142.071C142.455 60.288 144.647 62.192 147.591 62.192ZM147.591 60.176C145.607 60.176 144.343 58.656 144.343 56.672C144.343 54.672 145.607 53.168 147.591 53.168C149.559 53.168 150.839 54.672 150.839 56.672C150.839 58.656 149.559 60.176 147.591 60.176ZM162.055 62.192C164.615 62.192 166.151 60.336 166.151 58.128C166.151 55.936 164.615 54.08 162.055 54.08C159.911 54.08 158.471 55.408 158.087 57.136H156.759V54.272H154.727V62H156.759V58.912H158.039C158.359 60.768 159.831 62.192 162.055 62.192ZM162.055 60.384C160.791 60.384 160.087 59.344 160.087 58.128C160.087 56.928 160.791 55.888 162.055 55.888C163.335 55.888 164.039 56.928 164.039 58.128C164.039 59.344 163.335 60.384 162.055 60.384ZM173.95 62L176.062 58.208H177.71V62H179.982V51.328H174.99C172.766 51.328 171.406 52.784 171.406 54.768C171.406 56.656 172.59 57.664 173.742 57.936L171.342 62H173.95ZM175.326 56.208C174.414 56.208 173.726 55.664 173.726 54.768C173.726 53.872 174.414 53.328 175.326 53.328H177.71V56.208H175.326ZM184.087 62L185.607 59.344H187.191V62H189.223V54.272H184.535C182.823 54.272 181.863 55.44 181.863 56.8C181.863 58.176 182.695 58.976 183.575 59.2L181.783 62H184.087ZM184.855 57.648C184.279 57.648 183.927 57.296 183.927 56.8C183.927 56.32 184.295 55.984 184.855 55.984H187.191V57.648H184.855Z" fill="white"/>
</svg>
