<svg width="127" height="16" viewBox="0 0 127 16" fill="none" xmlns="http://www.w3.org/2000/svg">
<path d="M3.64 15V10.52H6.88C9.88 10.52 11.52 8.5 11.52 6.1C11.52 3.68 9.88 1.66 6.88 1.66H0.2V15H3.64ZM6.42 7.52H3.64V4.66H6.42C7.34 4.66 8.02 5.18 8.02 6.1C8.02 7 7.34 7.52 6.42 7.52ZM16.0516 15V8.84C16.4516 8.3 17.5116 7.96 18.3116 7.96C18.6316 7.96 18.8916 8 19.0716 8.04V5.08C17.9116 5.08 16.6916 5.74 16.0516 6.52V5.34H12.9716V15H16.0516ZM25.0916 15.24C28.4116 15.24 30.3716 12.88 30.3716 10.16C30.3716 7.44 28.4116 5.1 25.0916 5.1C21.8116 5.1 19.8316 7.44 19.8316 10.16C19.8316 12.88 21.8116 15.24 25.0916 15.24ZM25.0916 12.52C23.7516 12.52 23.0116 11.46 23.0116 10.16C23.0116 8.88 23.7516 7.82 25.0916 7.82C26.4516 7.82 27.2116 8.88 27.2116 10.16C27.2116 11.46 26.4516 12.52 25.0916 12.52ZM40.5905 15L37.2905 10.04L40.3705 5.34H36.9905L35.3505 7.96L33.6905 5.34H30.3105L33.4105 10.04L30.1105 15H33.4705L35.3505 12.08L37.2105 15H40.5905ZM43.1248 4.48C44.1048 4.48 44.8848 3.68 44.8848 2.7C44.8848 1.72 44.1048 0.94 43.1248 0.94C42.1448 0.94 41.3648 1.72 41.3648 2.7C41.3648 3.68 42.1448 4.48 43.1248 4.48ZM44.6648 15V5.34H41.5848V15H44.6648ZM62.1373 15V8C62.1373 6.02 61.0173 5.1 59.2373 5.1C57.7173 5.1 56.4573 5.98 55.8973 6.82C55.4973 5.68 54.5373 5.1 53.1573 5.1C51.6373 5.1 50.3973 5.96 49.9773 6.52V5.34H46.8973V15H49.9773V8.76C50.2973 8.36 50.8773 7.82 51.6973 7.82C52.6373 7.82 52.9773 8.38 52.9773 9.12V15H56.0573V8.76C56.3573 8.36 56.9573 7.82 57.7973 7.82C58.7173 7.82 59.0773 8.38 59.0773 9.12V15H62.1373ZM73.1773 15V8.96C73.1773 5.96 70.9973 5.1 68.6773 5.1C67.1973 5.1 65.5373 5.54 64.2973 6.6L65.3973 8.54C66.1773 7.88 67.1773 7.52 68.1373 7.52C69.3773 7.52 70.0973 8.08 70.0973 8.92V10.08C69.5173 9.36 68.3773 8.96 67.0973 8.96C65.6173 8.96 63.7773 9.72 63.7773 12.06C63.7773 14.24 65.6173 15.24 67.0973 15.24C68.3373 15.24 69.4973 14.76 70.0973 14.04V15H73.1773ZM68.3773 13.22C67.5573 13.22 66.8373 12.86 66.8373 12.1C66.8373 11.34 67.5573 10.98 68.3773 10.98C69.0573 10.98 69.7773 11.22 70.0973 11.66V12.52C69.7773 12.98 69.0573 13.22 68.3773 13.22ZM93.0102 15V1.66H89.5502V9L84.1502 1.66H80.6102V15H84.0502V7.28L89.6902 15H93.0102ZM99.9548 15.24C103.275 15.24 105.235 12.88 105.235 10.16C105.235 7.44 103.275 5.1 99.9548 5.1C96.6748 5.1 94.6948 7.44 94.6948 10.16C94.6948 12.88 96.6748 15.24 99.9548 15.24ZM99.9548 12.52C98.6148 12.52 97.8748 11.46 97.8748 10.16C97.8748 8.88 98.6148 7.82 99.9548 7.82C101.315 7.82 102.075 8.88 102.075 10.16C102.075 11.46 101.315 12.52 99.9548 12.52ZM112.618 15L116.418 5.34H113.158L110.958 11.46L108.778 5.34H105.538L109.338 15H112.618ZM126.127 15V8.96C126.127 5.96 123.947 5.1 121.627 5.1C120.147 5.1 118.487 5.54 117.247 6.6L118.347 8.54C119.127 7.88 120.127 7.52 121.087 7.52C122.327 7.52 123.047 8.08 123.047 8.92V10.08C122.467 9.36 121.327 8.96 120.047 8.96C118.567 8.96 116.727 9.72 116.727 12.06C116.727 14.24 118.567 15.24 120.047 15.24C121.287 15.24 122.447 14.76 123.047 14.04V15H126.127ZM121.327 13.22C120.507 13.22 119.787 12.86 119.787 12.1C119.787 11.34 120.507 10.98 121.327 10.98C122.007 10.98 122.727 11.22 123.047 11.66V12.52C122.727 12.98 122.007 13.22 121.327 13.22Z" fill="white"/>
</svg>
