<svg width="322" height="64" viewBox="0 0 322 64" fill="none" xmlns="http://www.w3.org/2000/svg">
<path opacity="0.2" d="M8.08 15H10.88L7.072 3.8H3.808L0 15H2.8L3.36 13.24H7.52L8.08 15ZM4.128 10.84L5.44 6.728L6.752 10.84H4.128ZM17.3286 7V7.752C16.8006 7.144 16.0166 6.776 14.9446 6.776C12.8486 6.776 11.1206 8.616 11.1206 11C11.1206 13.384 12.8486 15.224 14.9446 15.224C16.0166 15.224 16.8006 14.856 17.3286 14.248V15H19.7286V7H17.3286ZM15.4246 12.952C14.3206 12.952 13.5206 12.2 13.5206 11C13.5206 9.8 14.3206 9.048 15.4246 9.048C16.5286 9.048 17.3286 9.8 17.3286 11C17.3286 12.2 16.5286 12.952 15.4246 12.952ZM29.8894 7.96H28.1294V6.264H32.7694V3.8H25.5694V15H29.8894C32.1774 15 33.7294 13.608 33.7294 11.48C33.7294 9.352 32.1774 7.96 29.8894 7.96ZM29.8894 12.6H28.1294V10.36H29.8894C30.5934 10.36 31.1694 10.664 31.1694 11.48C31.1694 12.296 30.5934 12.6 29.8894 12.6ZM38.7208 15.224C41.2328 15.224 42.8008 13.64 42.8008 11.48C42.8008 9.208 40.9608 7.992 39.4888 7.992C38.6568 7.992 37.8728 8.232 37.2968 8.744C37.5208 8.184 37.9368 7.72 39.3608 7.192C41.0568 6.552 42.0487 5.96 42.3688 4.616L40.3848 3.48C39.9208 4.616 39.2168 4.824 37.5048 5.672C34.9448 6.936 34.4488 8.296 34.4488 10.872C34.4488 13.336 36.0648 15.224 38.7208 15.224ZM38.7048 13.064C37.7288 13.064 36.9608 12.392 36.9608 11.416C36.9608 10.424 37.8248 9.864 38.6568 9.864C39.6648 9.864 40.4008 10.552 40.4008 11.48C40.4008 12.392 39.6968 13.064 38.7048 13.064ZM54.9509 9.192C55.5589 8.664 55.9269 7.928 55.9269 7C55.9269 5.064 54.3429 3.8 52.3909 3.8H48.0069V15H52.7109C54.7109 15 56.3269 13.704 56.3269 11.72C56.3269 10.584 55.7829 9.72 54.9509 9.192ZM52.3909 6.2C52.9829 6.2 53.3669 6.616 53.3669 7.192C53.3669 7.768 52.9669 8.184 52.3909 8.184H50.5669V6.2H52.3909ZM52.7109 12.6H50.5669V10.456H52.7109C53.3509 10.456 53.7669 10.904 53.7669 11.528C53.7669 12.152 53.3509 12.6 52.7109 12.6ZM63.4886 10.904C63.9846 10.536 64.2406 9.976 64.2406 9.288C64.2406 7.96 63.2966 7 61.5206 7H57.5206V15H61.8406C63.6166 15 64.5606 14.04 64.5606 12.712C64.5606 11.896 64.1766 11.272 63.4886 10.904ZM61.2646 8.92C61.6966 8.92 61.9686 9.096 61.9686 9.496C61.9686 9.88 61.6966 10.04 61.2646 10.04H59.7606V8.92H61.2646ZM61.5206 13.016H59.7606V11.864H61.5206C61.9366 11.864 62.2246 12.04 62.2246 12.424C62.2246 12.824 61.9366 13.016 61.5206 13.016ZM76.235 3.8H69.835V15H72.395V6.264H76.235V3.8ZM81.2769 7H75.6769V15H78.0769V9.304H81.2769V7ZM95.1975 12.536V3.8H87.6935V8.824C87.6935 10.728 87.3255 11.8 86.8135 12.536H85.6775V17.144H88.2375V15H93.8375V17.144H96.3975V12.536H95.1975ZM89.5335 12.536C89.9335 11.816 90.2535 10.696 90.2535 8.856V6.2H92.6375V12.536H89.5335ZM105.037 12.76V7H98.5889V9.992C98.5889 11.368 98.3489 12.136 97.9489 12.76H96.9569V17.144H99.2929V15H103.741V17.144H106.077V12.76H105.037ZM100.461 12.76C100.765 12.04 100.925 11.16 100.925 9.992V9.144H102.701V12.76H100.461ZM113.911 12.536V10.552H117.911V8.12H113.911V6.264H118.311V3.8H111.351V15H118.391V12.536H113.911ZM121.743 11.96H127.423C127.487 11.656 127.519 11.336 127.519 11C127.519 8.584 125.791 6.776 123.455 6.776C120.927 6.776 119.199 8.616 119.199 11C119.199 13.384 120.895 15.224 123.631 15.224C125.151 15.224 126.335 14.664 127.119 13.576L125.199 12.472C124.879 12.824 124.319 13.08 123.663 13.08C122.783 13.08 122.047 12.792 121.743 11.96ZM121.695 10.168C121.919 9.352 122.527 8.904 123.439 8.904C124.159 8.904 124.879 9.24 125.135 10.168H121.695ZM134.928 3.16C135.584 3.16 136.128 2.616 136.128 1.96C136.128 1.304 135.584 0.759999 134.928 0.759999C134.272 0.759999 133.728 1.304 133.728 1.96C133.728 2.616 134.272 3.16 134.928 3.16ZM137.968 3.16C138.624 3.16 139.168 2.616 139.168 1.96C139.168 1.304 138.624 0.759999 137.968 0.759999C137.312 0.759999 136.768 1.304 136.768 1.96C136.768 2.616 137.312 3.16 137.968 3.16ZM135.52 12.536V10.552H139.52V8.12H135.52V6.264H139.92V3.8H132.96V15H140V12.536H135.52ZM143.448 6.28C144.104 6.28 144.648 5.736 144.648 5.08C144.648 4.424 144.104 3.88 143.448 3.88C142.792 3.88 142.248 4.424 142.248 5.08C142.248 5.736 142.792 6.28 143.448 6.28ZM146.488 6.28C147.144 6.28 147.688 5.736 147.688 5.08C147.688 4.424 147.144 3.88 146.488 3.88C145.832 3.88 145.288 4.424 145.288 5.08C145.288 5.736 145.832 6.28 146.488 6.28ZM143.352 11.96H149.032C149.096 11.656 149.128 11.336 149.128 11C149.128 8.584 147.4 6.776 145.064 6.776C142.536 6.776 140.808 8.616 140.808 11C140.808 13.384 142.504 15.224 145.24 15.224C146.76 15.224 147.944 14.664 148.728 13.576L146.808 12.472C146.488 12.824 145.928 13.08 145.272 13.08C144.392 13.08 143.656 12.792 143.352 11.96ZM143.304 10.168C143.528 9.352 144.136 8.904 145.048 8.904C145.768 8.904 146.488 9.24 146.744 10.168H143.304ZM168.201 15L164.585 9.304L168.041 3.8H165.209L162.265 8.728V3.8H159.705V8.728L156.761 3.8H153.929L157.385 9.304L153.769 15H156.601L159.705 10.04V15H162.265V10.04L165.369 15H168.201ZM180.519 15L177.863 11L180.359 7H177.703L175.687 10.424V7H173.351V10.424L171.335 7H168.679L171.175 11L168.519 15H171.175L173.351 11.528V15H175.687V11.528L177.863 15H180.519ZM191.792 9.208C192.496 8.664 192.912 7.896 192.912 6.888C192.912 4.84 191.28 3.576 189.056 3.576C186.976 3.576 185.776 4.616 185.088 5.992L187.28 7.256C187.568 6.568 188.064 5.976 189.056 5.976C189.968 5.976 190.352 6.392 190.352 7.08C190.352 7.768 189.84 8.184 188.832 8.184H187.728V10.456H189.152C190.224 10.456 190.752 10.904 190.752 11.64C190.752 12.376 190.24 12.824 189.168 12.824C187.968 12.824 187.408 12.168 187.12 11.304L184.912 12.568C185.568 14.152 186.864 15.224 189.168 15.224C191.52 15.224 193.312 13.928 193.312 11.832C193.312 10.632 192.736 9.736 191.792 9.208ZM199.369 10.936C199.945 10.536 200.217 9.912 200.217 9.176C200.217 7.912 199.097 6.776 197.145 6.776C195.769 6.776 194.617 7.352 193.945 8.648L195.881 9.752C196.169 9.112 196.585 8.824 197.193 8.824C197.641 8.824 197.945 9.016 197.945 9.4C197.945 9.752 197.705 9.944 197.193 9.944H196.329V11.96H197.449C197.977 11.96 198.201 12.168 198.201 12.52C198.201 12.92 197.849 13.144 197.257 13.144C196.521 13.144 196.025 12.792 195.801 12.168L193.865 13.32C194.489 14.616 195.625 15.224 197.225 15.224C199.385 15.224 200.537 14.152 200.537 12.824C200.537 12.008 200.121 11.336 199.369 10.936ZM212.059 15H214.619V3.8H212.699L208.379 9.88V3.8H205.819V15H207.739L212.059 8.92V15ZM222.218 7L218.794 11V7H216.458V15H218.218L221.642 11V15H223.978V7H222.218ZM238.875 15L234.939 9.256L238.715 3.8H235.803L232.379 8.664V3.8H229.819V15H232.379V9.816L235.963 15H238.875ZM247.435 15L244.443 11L247.355 7H244.555L242.155 10.504V7H239.755V15H242.155V11.464L244.715 15H247.435ZM251.598 15C253.662 15.224 256.014 14.456 256.014 10.456V6.264H258.638V15H261.198V3.8H253.454V10.552C253.454 12.424 252.75 12.776 251.598 12.6V15ZM269.996 7H263.468V11.528C263.468 12.52 263.068 12.984 262.316 12.76V15C264.652 15.272 265.868 14.104 265.868 11.688V9.304H267.596V15H269.996V7ZM287.035 3.8H284.475L281.435 8.776L278.395 3.8H275.835V15H278.395V8.488L281.291 13.24H281.579L284.475 8.488V15H287.035V3.8ZM297.36 7H295.056L293.12 10.024L291.184 7H288.88V15H291.184V10.872L292.976 13.656H293.264L295.056 10.872V15H297.36V7ZM309.274 3.8V8.088H305.754V3.8H303.194V15H305.754V10.552H309.274V15H311.834V3.8H309.274ZM318.797 7V9.88H316.077V7H313.677V15H316.077V12.12H318.797V15H321.197V7H318.797ZM6.304 39.224C9.52 39.224 12.128 36.696 12.128 33.4C12.128 30.104 9.52 27.576 6.304 27.576C3.088 27.576 0.48 30.104 0.48 33.4C0.48 36.696 3.088 39.224 6.304 39.224ZM6.304 36.728C4.48 36.728 3.04 35.4 3.04 33.4C3.04 31.4 4.48 30.072 6.304 30.072C8.128 30.072 9.568 31.4 9.568 33.4C9.568 35.4 8.128 36.728 6.304 36.728ZM17.3294 39.224C19.6814 39.224 21.5694 37.384 21.5694 35C21.5694 32.616 19.6814 30.776 17.3294 30.776C14.9774 30.776 13.0894 32.616 13.0894 35C13.0894 37.384 14.9774 39.224 17.3294 39.224ZM17.3294 36.888C16.2894 36.888 15.4894 36.136 15.4894 35C15.4894 33.864 16.2894 33.112 17.3294 33.112C18.3694 33.112 19.1694 33.864 19.1694 35C19.1694 36.136 18.3694 36.888 17.3294 36.888ZM35.4869 27.8H27.0069V39H29.5669V30.264H32.9269V39H35.4869V27.8ZM44.8531 31H37.3331V39H39.7331V33.24H42.4531V39H44.8531V31ZM54.9344 27.8H50.6944V39H53.2544V35.48H54.9344C57.1424 35.48 58.8544 33.768 58.8544 31.64C58.8544 29.512 57.1424 27.8 54.9344 27.8ZM54.9344 33.08H53.2544V30.2H54.9344C55.7184 30.2 56.2944 30.824 56.2944 31.64C56.2944 32.456 55.7184 33.08 54.9344 33.08ZM64.6796 30.776C63.6076 30.776 62.8236 31.144 62.2956 31.752V31H59.8956V42.2H62.2956V38.248C62.8236 38.856 63.6076 39.224 64.6796 39.224C66.7756 39.224 68.5036 37.384 68.5036 35C68.5036 32.616 66.7756 30.776 64.6796 30.776ZM64.1996 36.952C63.0956 36.952 62.2956 36.2 62.2956 35C62.2956 33.8 63.0956 33.048 64.1996 33.048C65.3036 33.048 66.1036 33.8 66.1036 35C66.1036 36.2 65.3036 36.952 64.1996 36.952ZM79.2884 39.224C81.3364 39.224 83.1284 38.216 84.0884 36.632L81.8804 35.352C81.4004 36.216 80.4244 36.728 79.2884 36.728C77.3044 36.728 76.0244 35.4 76.0244 33.4C76.0244 31.4 77.3044 30.072 79.2884 30.072C80.4244 30.072 81.3844 30.584 81.8804 31.448L84.0884 30.168C83.1124 28.584 81.3204 27.576 79.2884 27.576C75.9124 27.576 73.4644 30.104 73.4644 33.4C73.4644 36.696 75.9124 39.224 79.2884 39.224ZM89.1263 39.224C90.6943 39.224 92.0543 38.408 92.7423 37.16L90.6463 35.96C90.3903 36.52 89.7983 36.856 89.0943 36.856C88.0543 36.856 87.2863 36.104 87.2863 35C87.2863 33.896 88.0543 33.144 89.0943 33.144C89.7983 33.144 90.3743 33.48 90.6463 34.04L92.7423 32.824C92.0543 31.592 90.6783 30.776 89.1263 30.776C86.6943 30.776 84.8863 32.616 84.8863 35C84.8863 37.384 86.6943 39.224 89.1263 39.224ZM105.386 27.8H97.0663V30.264H99.9463V39H102.506V30.264H105.386V27.8ZM111.954 31H104.754V33.304H107.17V39H109.57V33.304H111.954V31ZM123.149 27.8L121.181 32.696L118.989 27.8H116.429L120.013 35.496C119.581 36.28 118.941 36.712 117.773 36.6V39C119.869 39.112 121.485 38.12 122.477 35.704L125.709 27.8H123.149ZM131.311 31L129.807 35.912L127.951 31H125.391L128.527 38.856C128.159 39.704 127.647 39.96 126.575 39.96V42.2C128.655 42.312 130.239 41.304 131.135 38.76L133.871 31H131.311ZM150.739 33.4C150.739 30.856 148.755 29.16 145.715 28.792V27.48H143.219V28.792C140.179 29.16 138.195 30.856 138.195 33.4C138.195 35.944 140.179 37.64 143.219 38.008V39.32H145.715V38.008C148.755 37.64 150.739 35.944 150.739 33.4ZM140.755 33.4C140.755 32.12 141.555 31.368 143.219 31.144V35.656C141.555 35.432 140.755 34.68 140.755 33.4ZM145.715 35.656V31.144C147.379 31.368 148.179 32.12 148.179 33.4C148.179 34.68 147.379 35.432 145.715 35.656ZM161.623 35C161.623 32.936 160.199 31.288 157.751 30.904V27.8H155.415V30.904C152.967 31.288 151.543 32.936 151.543 35C151.543 37.064 152.967 38.712 155.415 39.096V42.2H157.751V39.096C160.199 38.712 161.623 37.064 161.623 35ZM153.911 35C153.911 34.12 154.423 33.464 155.415 33.192V36.808C154.423 36.536 153.911 35.88 153.911 35ZM157.751 36.808V33.192C158.743 33.464 159.255 34.12 159.255 35C159.255 35.88 158.743 36.536 157.751 36.808ZM175.869 39L172.525 33.256L175.709 27.8H172.797L171.069 30.76L169.341 27.8H166.429L169.613 33.256L166.269 39H169.181L171.069 35.768L172.957 39H175.869ZM184.511 39L181.647 34.936L184.415 31H181.663L180.271 32.984L178.879 31H176.127L178.895 34.936L176.031 39H178.783L180.271 36.888L181.759 39H184.511ZM197.956 36.536V27.8H195.396V36.536H192.036V27.8H189.476V39H196.596V41.144H199.156V36.536H197.956ZM207.642 36.76V31H205.243V36.76H202.843V31H200.443V39H206.667V41.144H209.003V36.76H207.642ZM219.968 27.8V32.616C219.392 32.872 218.816 32.984 218.128 32.984C217.248 32.984 216.608 32.456 216.608 31.416V27.8H214.048V31.8C214.048 34.152 215.84 35.448 218.064 35.448C218.736 35.448 219.344 35.336 219.968 35.096V39H222.528V27.8H219.968ZM228.924 31V34.36C228.588 34.52 228.188 34.616 227.644 34.616C226.972 34.616 226.364 34.408 226.364 33.64V31H223.964V33.96C223.964 35.928 225.372 36.856 227.164 36.856C227.804 36.856 228.38 36.76 228.924 36.6V39H231.324V31H228.924ZM247.723 27.8V36.536H245.003V27.8H242.443V36.536H239.723V27.8H237.163V39H250.283V27.8H247.723ZM261.41 31V36.76H259.17V31H256.77V36.76H254.53V31H252.13V39H263.81V31H261.41ZM282.768 36.536V27.8H280.208V36.536H277.488V27.8H274.928V36.536H272.208V27.8H269.648V39H281.408V41.144H283.968V36.536H282.768ZM296.615 36.76V31H294.215V36.76H292.135V31H289.735V36.76H287.655V31H285.255V39H295.319V41.144H297.655V36.76H296.615ZM304.529 39H308.769C310.977 39 312.689 37.288 312.689 35.16C312.689 33.032 310.977 31.32 308.769 31.32H307.089V27.8H301.969V30.264H304.529V39ZM307.089 36.6V33.72H308.769C309.553 33.72 310.129 34.344 310.129 35.16C310.129 35.976 309.553 36.6 308.769 36.6H307.089ZM318.607 33.4H317.263V31H312.703V33.304H314.863V39H318.607C320.543 39 321.743 37.88 321.743 36.2C321.743 34.52 320.543 33.4 318.607 33.4ZM318.623 36.92H317.263V35.48H318.623C319.103 35.48 319.407 35.784 319.407 36.2C319.407 36.616 319.103 36.92 318.623 36.92ZM0.96 63H5.2C7.408 63 9.12 61.288 9.12 59.16C9.12 57.032 7.408 55.32 5.2 55.32H3.52V51.8H0.96V63ZM10.08 63H12.64V51.8H10.08V63ZM3.52 60.6V57.72H5.2C5.984 57.72 6.56 58.344 6.56 59.16C6.56 59.976 5.984 60.6 5.2 60.6H3.52ZM18.2178 57.4H16.8738V55H14.4738V63H18.2178C20.1538 63 21.3538 61.88 21.3538 60.2C21.3538 58.52 20.1538 57.4 18.2178 57.4ZM22.1538 55V63H24.5538V55H22.1538ZM18.2338 60.92H16.8738V59.48H18.2338C18.7138 59.48 19.0178 59.784 19.0178 60.2C19.0178 60.616 18.7138 60.92 18.2338 60.92ZM34.6375 55.32H32.9575V51.8H30.3975V63H34.6375C36.8455 63 38.5575 61.288 38.5575 59.16C38.5575 57.032 36.8455 55.32 34.6375 55.32ZM34.6375 60.6H32.9575V57.72H34.6375C35.4215 57.72 35.9975 58.344 35.9975 59.16C35.9975 59.976 35.4215 60.6 34.6375 60.6ZM43.499 57.4H42.155V55H39.755V63H43.499C45.435 63 46.635 61.88 46.635 60.2C46.635 58.52 45.435 57.4 43.499 57.4ZM43.515 60.92H42.155V59.48H43.515C43.995 59.48 44.299 59.784 44.299 60.2C44.299 60.616 43.995 60.92 43.515 60.92ZM56.1531 51.576C54.1211 51.576 52.3291 52.584 51.3531 54.168L53.5611 55.448C54.0571 54.584 55.0171 54.072 56.1531 54.072C57.7051 54.072 58.8251 54.888 59.2411 56.2H54.6651V58.6H59.2411C58.8251 59.912 57.7051 60.728 56.1531 60.728C55.0171 60.728 54.0411 60.216 53.5611 59.352L51.3531 60.632C52.3131 62.216 54.1051 63.224 56.1531 63.224C59.5291 63.224 61.9771 60.696 61.9771 57.4C61.9771 54.104 59.5291 51.576 56.1531 51.576ZM66.3091 54.776C64.6611 54.776 63.3011 55.576 62.6131 56.824L64.6451 57.992C64.9011 57.48 65.4611 57.064 66.3411 57.064C66.9971 57.064 67.5571 57.4 67.8771 57.928H65.6531V60.072H67.8771C67.5571 60.6 66.9971 60.936 66.3411 60.936C65.4611 60.936 64.8851 60.52 64.6451 60.008L62.6131 61.16C63.3011 62.408 64.6611 63.224 66.3091 63.224C68.7411 63.224 70.5491 61.544 70.5491 59C70.5491 56.456 68.7411 54.776 66.3091 54.776ZM85.6873 51.576C82.9353 51.576 80.6793 53.416 80.0873 56.008H78.5513V51.8H75.9913V63H78.5513V58.472H80.0233C80.5033 61.224 82.8233 63.224 85.6873 63.224C88.9033 63.224 91.5113 60.664 91.5113 57.4C91.5113 54.104 88.9033 51.576 85.6873 51.576ZM85.6873 60.728C83.8633 60.728 82.4233 59.4 82.4233 57.4C82.4233 55.336 83.8633 54.072 85.6873 54.072C87.5113 54.072 88.9513 55.4 88.9513 57.4C88.9513 59.4 87.5113 60.728 85.6873 60.728ZM100.304 54.776C98.3364 54.776 96.7364 56.056 96.2724 57.88H95.2644V55H92.8644V63H95.2644V60.12H96.2724C96.7364 61.944 98.3364 63.224 100.304 63.224C102.656 63.224 104.544 61.384 104.544 59C104.544 56.616 102.656 54.776 100.304 54.776ZM100.304 60.888C99.2644 60.888 98.4644 60.136 98.4644 59C98.4644 57.864 99.2644 57.112 100.304 57.112C101.344 57.112 102.144 57.864 102.144 59C102.144 60.136 101.344 60.888 100.304 60.888ZM118.071 51.8H113.591C111.463 51.8 109.751 53.512 109.751 55.64C109.751 57.096 110.695 58.424 112.055 59L109.431 63H112.311L114.695 59.32H115.511V63H118.071V51.8ZM113.591 57.08C112.887 57.08 112.311 56.456 112.311 55.64C112.311 54.824 112.887 54.2 113.591 54.2H115.511V57.08H113.591ZM126.551 55H122.647C120.711 55 119.671 56.44 119.671 57.848C119.671 58.84 120.231 59.864 121.223 60.36L119.351 63H122.071L123.719 60.696H124.215V63H126.551V55ZM122.855 57.112H124.215V58.712H122.855C122.343 58.712 122.007 58.424 122.007 57.928C122.007 57.416 122.343 57.112 122.855 57.112Z" fill="white"/>
</svg>
