<svg width="56" height="20" viewBox="0 0 56 20" fill="none" xmlns="http://www.w3.org/2000/svg">
<path d="M15.06 7.2H8.04V10H11.78C11.28 11.34 10.06 12.16 8.2 12.16C5.48 12.16 3.8 10.42 3.8 8.04C3.8 5.58 5.56 3.84 7.92 3.84C9.5 3.84 10.76 4.56 11.34 5.48L14.06 3.92C12.88 2.04 10.62 0.719999 7.94 0.719999C3.82 0.719999 0.6 3.96 0.6 8.02C0.6 12.04 3.76 15.28 8.16 15.28C12.08 15.28 15.06 12.68 15.06 8.4V7.2ZM18.2641 4.12C19.2441 4.12 20.0641 3.3 20.0641 2.32C20.0641 1.34 19.2441 0.519999 18.2641 0.519999C17.2841 0.519999 16.4641 1.34 16.4641 2.32C16.4641 3.3 17.2841 4.12 18.2641 4.12ZM16.7641 15H19.7641V5H16.7641V15ZM21.9594 15H24.9594V0.4H21.9594V15ZM30.1547 6.78V5H27.1547V15H30.1547V10.48C30.1547 8.5 31.9147 8 33.1547 8.2V4.8C31.8947 4.8 30.5547 5.44 30.1547 6.78ZM39.0641 15.28C42.0041 15.28 44.3641 12.98 44.3641 10C44.3641 7.02 42.0041 4.72 39.0641 4.72C36.1241 4.72 33.7641 7.02 33.7641 10C33.7641 12.98 36.1241 15.28 39.0641 15.28ZM39.0641 12.36C37.7641 12.36 36.7641 11.42 36.7641 10C36.7641 8.58 37.7641 7.64 39.0641 7.64C40.3641 7.64 41.3641 8.58 41.3641 10C41.3641 11.42 40.3641 12.36 39.0641 12.36ZM51.9703 5L50.0903 11.12L47.8703 5H44.5703L48.5503 14.54C48.1103 15.76 47.4503 16.2 46.0503 16.2V19C48.8503 19.14 50.6303 17.88 51.7503 14.7L55.1703 5H51.9703Z" fill="white"/>
</svg>
