<svg width="519" height="132" viewBox="0 0 519 132" fill="none" xmlns="http://www.w3.org/2000/svg">
<path d="M49.064 0.687991H80.024L118.552 115.928L128.012 117.648V129H73.832V117.648L86.044 115.928L80.196 95.288H39.088L33.24 116.1L46.656 117.648V129H0.904L0.732 117.648L10.708 115.756L49.064 0.687991ZM61.792 30.616L59.212 18.576L56.46 30.788L42.528 82.044H76.584L61.792 30.616ZM130.425 101.48C130.425 91.3893 135.528 83.6493 145.733 78.26C156.053 72.8707 169.584 70.1187 186.325 70.004V66.564C186.325 62.436 185.867 59.168 184.949 56.76C184.032 54.352 182.369 52.5747 179.961 51.428C177.553 50.1667 173.999 49.536 169.297 49.536C163.679 49.536 158.633 50.224 154.161 51.6C149.804 52.8613 145.217 54.5813 140.401 56.76L134.553 44.376C136.388 42.8853 139.369 41.108 143.497 39.044C147.625 36.8653 152.556 35.0307 158.289 33.54C164.137 31.9347 170.215 31.132 176.521 31.132C185.695 31.132 192.861 32.336 198.021 34.744C203.296 37.152 207.023 40.8787 209.201 45.924C211.495 50.9693 212.641 57.8493 212.641 66.564V117.648H221.585V128.484C218.948 129.057 215.279 129.631 210.577 130.204C205.876 130.777 201.863 131.064 198.537 131.064C194.18 131.064 191.256 130.433 189.765 129.172C188.389 127.911 187.701 125.388 187.701 121.604V117.648C184.835 121.088 180.993 124.184 176.177 126.936C171.361 129.573 165.8 130.892 159.493 130.892C154.104 130.892 149.173 129.745 144.701 127.452C140.344 125.044 136.847 121.661 134.209 117.304C131.687 112.832 130.425 107.557 130.425 101.48ZM172.909 115.068C174.973 115.068 177.267 114.495 179.789 113.348C182.312 112.087 184.491 110.596 186.325 108.876V81.528C177.381 81.528 170.731 83.1333 166.373 86.344C162.131 89.5547 160.009 93.6827 160.009 98.728C160.009 103.888 161.156 107.901 163.449 110.768C165.743 113.635 168.896 115.068 172.909 115.068ZM278.915 130.72C264.238 130.72 252.886 126.076 244.859 116.788C236.832 107.385 232.819 94.0267 232.819 76.712C232.819 64.328 235.112 53.9507 239.699 45.58C244.286 37.0947 250.42 30.8453 258.103 26.832C265.786 22.704 274.271 20.64 283.559 20.64C298.236 20.64 309.474 25.2267 317.271 34.4C325.183 43.4587 329.139 56.7027 329.139 74.132C329.139 86.516 326.846 96.9507 322.259 105.436C317.787 113.921 311.767 120.285 304.199 124.528C296.631 128.656 288.203 130.72 278.915 130.72ZM281.151 119.54C287.228 119.54 291.758 115.985 294.739 108.876C297.72 101.767 299.211 90.9307 299.211 76.368C299.211 65.4747 298.58 56.8173 297.319 50.396C296.172 43.9747 294.28 39.3307 291.643 36.464C289.006 33.4827 285.451 31.992 280.979 31.992C268.824 31.992 262.747 46.1533 262.747 74.476C262.747 90.4147 264.18 101.939 267.047 109.048C269.914 116.043 274.615 119.54 281.151 119.54ZM368.014 47.472C366.064 48.0453 362.567 48.848 357.522 49.88C352.591 50.7973 348.864 51.3707 346.342 51.6L344.45 38.012C350.871 36.7507 357.636 34.4 364.746 30.96C371.855 27.52 377.531 24.0227 381.774 20.468H381.946L397.426 22.532V115.756L416.002 117.82V129H348.062V117.82L368.014 115.928V47.472ZM424.559 118.508C440.268 108.991 452.881 98.9573 462.399 88.408C472.031 77.744 476.847 67.1947 476.847 56.76C476.847 51.6 475.127 47.472 471.687 44.376C468.361 41.28 463.832 39.732 458.099 39.732C454.2 39.732 450.645 40.3053 447.435 41.452C444.339 42.5987 441.816 43.86 439.867 45.236C438.032 46.4973 435.681 48.332 432.815 50.74L425.763 40.248C427.941 37.3813 431.267 34.4573 435.739 31.476C440.211 28.38 445.313 25.8 451.047 23.736C456.895 21.672 462.8 20.64 468.763 20.64C477.363 20.64 484.587 22.0733 490.435 24.94C496.283 27.692 500.583 31.4187 503.335 36.12C506.201 40.8213 507.635 46.0387 507.635 51.772C507.635 62.5507 502.475 73.2147 492.155 83.764C481.949 94.3133 468.591 104.232 452.079 113.52L499.895 108.532L506.775 94.256L518.643 96.836L513.483 129H428.687L424.559 118.508Z" fill="white"/>
</svg>
