<svg width="321" height="68" viewBox="0 0 321 68" fill="none" xmlns="http://www.w3.org/2000/svg">
<path opacity="0.2" d="M5.368 4.048H7.816L11.512 14.88L12.44 15.04V16H7.72V15.04L8.92 14.88L8.296 12.8H4.152L3.528 14.896L4.824 15.04V16H0.744L0.728 15.04L1.688 14.88L5.368 4.048ZM6.472 6.752L6.184 5.504L5.88 6.768L4.456 11.68H7.976L6.472 6.752ZM12.7784 13.504C12.7784 12.5333 13.2637 11.8027 14.2344 11.312C15.2157 10.8213 16.4797 10.5707 18.0264 10.56V10.192C18.0264 9.75467 17.9784 9.41333 17.8824 9.168C17.797 8.92267 17.6317 8.74133 17.3864 8.624C17.1517 8.496 16.805 8.432 16.3464 8.432C15.8237 8.432 15.3544 8.50133 14.9384 8.64C14.5224 8.768 14.0904 8.93867 13.6424 9.152L13.1464 8.128C13.3064 7.98933 13.573 7.824 13.9464 7.632C14.3304 7.44 14.7837 7.27467 15.3064 7.136C15.829 6.98667 16.3677 6.912 16.9224 6.912C17.7437 6.912 18.3837 7.01867 18.8424 7.232C19.3117 7.44533 19.6477 7.78667 19.8504 8.256C20.053 8.72533 20.1544 9.35467 20.1544 10.144V15.04H21.0184V15.936C20.805 15.9893 20.501 16.0427 20.1064 16.096C19.7117 16.1493 19.365 16.176 19.0664 16.176C18.7037 16.176 18.4584 16.1227 18.3304 16.016C18.213 15.9093 18.1544 15.6907 18.1544 15.36V14.928C17.8664 15.248 17.493 15.536 17.0344 15.792C16.5757 16.048 16.0584 16.176 15.4824 16.176C14.9917 16.176 14.5384 16.0747 14.1224 15.872C13.717 15.6587 13.3917 15.3547 13.1464 14.96C12.901 14.5547 12.7784 14.0693 12.7784 13.504ZM16.5064 14.848C16.7304 14.848 16.9864 14.784 17.2744 14.656C17.5624 14.5173 17.813 14.352 18.0264 14.16V11.536C17.0664 11.536 16.3464 11.7013 15.8664 12.032C15.397 12.352 15.1624 12.768 15.1624 13.28C15.1624 13.792 15.2797 14.1813 15.5144 14.448C15.7597 14.7147 16.0904 14.848 16.5064 14.848ZM29.3338 9.056C29.4404 9.03467 29.7444 9.008 30.2458 8.976C30.7471 8.944 31.1258 8.928 31.3818 8.928C32.7684 8.928 33.8084 9.216 34.5017 9.792C35.1951 10.368 35.5418 11.216 35.5418 12.336C35.5418 13.5413 35.1524 14.4747 34.3738 15.136C33.6058 15.7973 32.5871 16.128 31.3178 16.128C31.0724 16.128 30.6831 16.112 30.1498 16.08C28.9764 16.0267 28.3418 16 28.2458 16H25.5418V15.04L26.9978 14.88V5.312L25.5418 5.104V4.112H34.5017L34.6618 7.28H33.2858L32.7898 5.28L29.3338 5.136V9.056ZM29.3338 14.96C29.5578 15.0133 29.7498 15.0507 29.9098 15.072C30.0804 15.0933 30.3204 15.104 30.6298 15.104C31.4831 15.104 32.1071 14.8693 32.5018 14.4C32.9071 13.9307 33.1098 13.2853 33.1098 12.464C33.1098 11.6107 32.9071 10.9867 32.5018 10.592C32.1071 10.1867 31.5098 9.984 30.7098 9.984C30.4644 9.984 30.2084 9.99467 29.9418 10.016C29.6858 10.0267 29.4831 10.0427 29.3338 10.064V14.96ZM44.2255 3.728C44.1828 4.02667 44.0868 4.25067 43.9375 4.4C43.7988 4.54933 43.5855 4.62933 43.2975 4.64C42.4442 4.672 41.6495 4.76267 40.9135 4.912C40.1882 5.06133 39.6548 5.26933 39.3135 5.536C38.7268 6.00533 38.3908 6.92267 38.3055 8.288C38.6148 7.92533 39.0362 7.60533 39.5695 7.328C40.1135 7.05067 40.6895 6.912 41.2975 6.912C42.5348 6.912 43.4308 7.26933 43.9855 7.984C44.5402 8.688 44.8175 9.76 44.8175 11.2C44.8175 12.736 44.4548 13.9413 43.7295 14.816C43.0148 15.6907 41.9962 16.128 40.6735 16.128C39.2975 16.128 38.2362 15.616 37.4895 14.592C36.7535 13.5573 36.3855 12.016 36.3855 9.968C36.3855 8.61333 36.5988 7.49333 37.0255 6.608C37.4628 5.712 38.0068 4.99733 38.6575 4.464C39.0842 4.12267 39.6068 3.84533 40.2255 3.632C40.8442 3.408 41.4415 3.26933 42.0175 3.216C42.3588 3.19467 42.6095 3.152 42.7695 3.088C42.9295 3.01333 43.0415 2.88533 43.1055 2.704L43.3295 2.048H44.4815L44.2255 3.728ZM40.7055 8.128C40.2362 8.128 39.8308 8.24 39.4895 8.464C39.1482 8.67733 38.9135 8.90133 38.7855 9.136C38.7855 10.64 38.8442 11.8293 38.9615 12.704C39.0788 13.568 39.2708 14.2027 39.5375 14.608C39.8042 15.0027 40.1722 15.2 40.6415 15.2C41.3242 15.2 41.7988 14.8587 42.0655 14.176C42.3322 13.4933 42.4655 12.4853 42.4655 11.152C42.4655 10.3627 42.4015 9.74933 42.2735 9.312C42.1562 8.87467 41.9695 8.57067 41.7135 8.4C41.4682 8.21867 41.1322 8.128 40.7055 8.128ZM50.9818 5.312L49.7338 5.104V4.112H52.1178C52.4804 4.112 52.9498 4.09067 53.5258 4.048C53.6644 4.03733 53.8298 4.02667 54.0218 4.016C54.2138 4.00533 54.4378 4 54.6938 4C56.3044 4 57.4298 4.22933 58.0698 4.688C58.7204 5.136 59.0458 5.808 59.0458 6.704C59.0458 7.49333 58.8058 8.15467 58.3258 8.688C57.8564 9.21067 57.2378 9.53067 56.4698 9.648C57.5258 9.63733 58.3524 9.87733 58.9498 10.368C59.5578 10.8587 59.8618 11.5413 59.8618 12.416C59.8618 13.5253 59.4724 14.416 58.6938 15.088C57.9151 15.76 56.6138 16.096 54.7898 16.096C54.3098 16.096 53.8671 16.08 53.4618 16.048C53.3551 16.048 53.1738 16.0373 52.9178 16.016C52.6618 16.0053 52.4004 16 52.1338 16H49.7178V15.04L50.9818 14.88V5.312ZM53.3018 9.296C53.4191 9.30667 53.6591 9.312 54.0218 9.312H54.7738C55.4244 9.312 55.9098 9.10933 56.2298 8.704C56.5498 8.29867 56.7098 7.728 56.7098 6.992C56.7098 6.288 56.5444 5.776 56.2138 5.456C55.8831 5.136 55.3338 4.976 54.5658 4.976C54.3631 4.976 53.9418 4.99733 53.3018 5.04V9.296ZM53.3018 14.944C53.5471 15.04 54.0164 15.088 54.7098 15.088C55.6164 15.088 56.2724 14.8747 56.6778 14.448C57.0831 14.0213 57.2858 13.4027 57.2858 12.592C57.2858 11.8133 57.0991 11.2587 56.7258 10.928C56.3631 10.5867 55.7818 10.416 54.9818 10.416C54.0858 10.416 53.5258 10.4267 53.3018 10.448V14.944ZM64.151 7.072C64.919 7.02933 65.5163 7.008 65.943 7.008C67.3723 7.008 68.359 7.184 68.903 7.536C69.447 7.888 69.719 8.39467 69.719 9.056C69.719 9.568 69.575 10 69.287 10.352C68.999 10.704 68.5723 10.9653 68.007 11.136C68.8177 11.2107 69.431 11.4453 69.847 11.84C70.263 12.224 70.471 12.6933 70.471 13.248C70.471 14.1653 70.119 14.8693 69.415 15.36C68.7217 15.8507 67.5217 16.096 65.815 16.096C65.463 16.096 65.1483 16.0907 64.871 16.08C64.5937 16.0693 64.3643 16.0587 64.183 16.048C63.7243 16.016 63.319 16 62.967 16H61.127V15.04L62.199 14.864V8.256L61.127 8.048V7.104H63.079L64.151 7.072ZM65.671 10.816C66.3003 10.816 66.7537 10.6667 67.031 10.368C67.319 10.0693 67.463 9.69067 67.463 9.232C67.463 8.82667 67.3297 8.52267 67.063 8.32C66.807 8.11733 66.3483 8.016 65.687 8.016C65.1003 8.016 64.679 8.02133 64.423 8.032V10.816H65.671ZM64.423 14.96C64.5083 14.992 64.679 15.0187 64.935 15.04C65.2017 15.0613 65.4417 15.072 65.655 15.072C66.4763 15.072 67.0577 14.9387 67.399 14.672C67.7403 14.3947 67.911 13.9787 67.911 13.424C67.911 12.8693 67.7457 12.4587 67.415 12.192C67.0843 11.9147 66.5563 11.776 65.831 11.776H64.423V14.96ZM83.9813 4.112L84.1733 8.608H82.7973L82.2533 5.296L79.3093 5.136V14.864L81.9333 15.056V16H75.2133V15.056L76.9573 14.864V5.328L75.2453 5.088V4.112H83.9813ZM92.2333 7.104L92.3133 10.624H91.0013L90.5533 8.224L88.3613 8.096V14.896L90.4573 15.04V16H84.8733V15.04L86.0893 14.896V8.256L84.9053 8.032V7.104H92.2333ZM107.863 14.864C107.863 15.184 107.815 15.952 107.719 17.168C107.623 18.3947 107.564 19.056 107.543 19.152H106.247C106.236 18.8747 106.172 18.304 106.055 17.44C105.938 16.576 105.847 16.096 105.783 16H98.743C98.6683 16.096 98.535 16.544 98.343 17.344C98.1617 18.144 98.039 18.752 97.975 19.168H96.647L96.663 18.448C96.7163 16.656 96.7643 15.4613 96.807 14.864H97.959C98.215 14.512 98.4923 13.9733 98.791 13.248C99.0897 12.5227 99.351 11.552 99.575 10.336C99.799 9.12 99.911 7.70133 99.911 6.08V5.312L98.247 5.104V4.112H107.895V5.104L106.359 5.312V14.864H107.863ZM101.079 6.176C101.09 7.63733 101.01 8.96533 100.839 10.16C100.668 11.344 100.466 12.3253 100.231 13.104C99.9963 13.8827 99.7723 14.4693 99.559 14.864H104.039L104.055 5.2H101.079V6.176ZM118.548 15.712C118.42 17.5573 118.319 18.704 118.244 19.152H117.028C116.985 18.8 116.9 18.2187 116.772 17.408C116.644 16.5973 116.548 16.128 116.484 16H110.676C110.612 16.1387 110.489 16.6293 110.308 17.472C110.127 18.3147 110.015 18.8747 109.972 19.152H108.612L108.74 14.944H109.668C110.127 14.752 110.5 14.1227 110.788 13.056C111.087 11.9787 111.236 10.3787 111.236 8.256L109.732 8.048V7.104H118.58V8.048L117.188 8.256V14.976H118.596L118.548 15.712ZM112.436 9.088C112.436 10.4213 112.335 11.632 112.132 12.72C111.929 13.7973 111.689 14.5493 111.412 14.976H114.916V8.208H112.436V9.088ZM124.654 5.312L123.374 5.104V4.112H131.902L132.11 6.8H130.99L130.462 5.216L127.006 5.072V9.376L129.23 9.328L129.486 8.016H130.51V11.888H129.486L129.23 10.512L127.006 10.464V14.976L130.878 14.784L131.806 12.736L133.006 13.072L132.59 16H123.39V15.04L124.654 14.88V5.312ZM138.002 16.176C136.594 16.176 135.543 15.7653 134.85 14.944C134.167 14.112 133.826 12.9813 133.826 11.552C133.826 10.592 134.002 9.76 134.354 9.056C134.717 8.352 135.223 7.81333 135.874 7.44C136.525 7.06667 137.277 6.88 138.13 6.88C139.197 6.88 140.018 7.16267 140.594 7.728C141.17 8.28267 141.469 9.07733 141.49 10.112C141.49 10.816 141.447 11.3387 141.362 11.68H136.162C136.205 12.6507 136.434 13.408 136.85 13.952C137.266 14.4853 137.858 14.752 138.626 14.752C139.042 14.752 139.469 14.6827 139.906 14.544C140.354 14.4053 140.706 14.24 140.962 14.048L141.362 14.928C141.074 15.2373 140.605 15.5253 139.954 15.792C139.314 16.048 138.663 16.176 138.002 16.176ZM139.25 10.72C139.271 10.4213 139.282 10.192 139.282 10.032C139.282 8.61333 138.807 7.904 137.858 7.904C137.335 7.904 136.93 8.112 136.642 8.528C136.354 8.944 136.194 9.67467 136.162 10.72H139.25ZM147.732 5.312L146.452 5.104V4.112H154.98L155.188 6.8H154.068L153.54 5.216L150.084 5.072V9.376L152.308 9.328L152.564 8.016H153.588V11.888H152.564L152.308 10.512L150.084 10.464V14.976L153.956 14.784L154.884 12.736L156.084 13.072L155.668 16H146.468V15.04L147.732 14.88V5.312ZM148.9 3.056C148.601 3.056 148.356 2.944 148.164 2.72C147.972 2.496 147.876 2.22933 147.876 1.92C147.876 1.52533 147.977 1.20533 148.18 0.959999C148.393 0.703999 148.702 0.575999 149.108 0.575999H149.124C149.486 0.575999 149.764 0.687999 149.956 0.912C150.148 1.12533 150.244 1.392 150.244 1.712C150.244 2.10667 150.132 2.432 149.908 2.688C149.684 2.93333 149.353 3.056 148.916 3.056H148.9ZM152.964 3.056C152.665 3.056 152.42 2.944 152.228 2.72C152.036 2.48533 151.94 2.21867 151.94 1.92C151.94 1.52533 152.041 1.20533 152.244 0.959999C152.457 0.703999 152.766 0.575999 153.172 0.575999H153.188C153.561 0.575999 153.838 0.687999 154.02 0.912C154.212 1.12533 154.308 1.392 154.308 1.712C154.308 2.11733 154.196 2.44267 153.972 2.688C153.748 2.93333 153.412 3.056 152.964 3.056ZM161.08 16.176C159.672 16.176 158.621 15.7653 157.928 14.944C157.245 14.112 156.904 12.9813 156.904 11.552C156.904 10.592 157.08 9.76 157.432 9.056C157.795 8.352 158.301 7.81333 158.952 7.44C159.603 7.06667 160.355 6.88 161.208 6.88C162.275 6.88 163.096 7.16267 163.672 7.728C164.248 8.28267 164.547 9.07733 164.568 10.112C164.568 10.816 164.525 11.3387 164.44 11.68H159.24C159.283 12.6507 159.512 13.408 159.928 13.952C160.344 14.4853 160.936 14.752 161.704 14.752C162.12 14.752 162.547 14.6827 162.984 14.544C163.432 14.4053 163.784 14.24 164.04 14.048L164.44 14.928C164.152 15.2373 163.683 15.5253 163.032 15.792C162.392 16.048 161.741 16.176 161.08 16.176ZM162.328 10.72C162.349 10.4213 162.36 10.192 162.36 10.032C162.36 8.61333 161.885 7.904 160.936 7.904C160.413 7.904 160.008 8.112 159.72 8.528C159.432 8.944 159.272 9.67467 159.24 10.72H162.328ZM159.048 5.632C158.707 5.632 158.44 5.52 158.248 5.296C158.056 5.072 157.96 4.79467 157.96 4.464C157.96 4.05867 158.061 3.728 158.264 3.472C158.477 3.216 158.787 3.088 159.192 3.088C159.565 3.088 159.843 3.2 160.024 3.424C160.216 3.648 160.312 3.92533 160.312 4.256C160.312 4.672 160.211 5.008 160.008 5.264C159.816 5.50933 159.496 5.632 159.048 5.632ZM162.872 5.632C162.541 5.632 162.28 5.51467 162.088 5.28C161.896 5.04533 161.8 4.77333 161.8 4.464C161.8 4.05867 161.901 3.728 162.104 3.472C162.317 3.216 162.627 3.088 163.032 3.088C163.405 3.088 163.683 3.2 163.864 3.424C164.056 3.648 164.152 3.92533 164.152 4.256C164.152 4.672 164.051 5.008 163.848 5.264C163.645 5.50933 163.32 5.632 162.872 5.632ZM181.066 9.68C181.61 9.85067 182.101 10.2347 182.538 10.832C182.975 11.4187 183.466 12.1973 184.01 13.168C184.309 13.7227 184.543 14.1333 184.714 14.4C184.895 14.6667 185.061 14.8213 185.21 14.864L185.818 15.04V16H183.258C183.002 16 182.741 15.7973 182.474 15.392C182.218 14.976 181.893 14.352 181.498 13.52C181.039 12.5387 180.634 11.792 180.282 11.28C179.941 10.7573 179.583 10.496 179.21 10.496H178.506V14.864L179.93 15.056V16H174.906V15.04L176.266 14.88V10.496H175.546C175.173 10.496 174.815 10.752 174.474 11.264C174.133 11.776 173.727 12.5173 173.258 13.488C172.853 14.3307 172.511 14.96 172.234 15.376C171.967 15.792 171.701 16 171.434 16H168.97V15.04L169.546 14.864C169.695 14.8213 169.861 14.6613 170.042 14.384C170.223 14.1067 170.463 13.696 170.762 13.152C171.306 12.1813 171.797 11.4027 172.234 10.816C172.671 10.2187 173.157 9.83467 173.69 9.664L170.538 5.312L169.226 5.104V4.112H173.402V5.104L172.25 5.312L175.066 9.6H176.266V5.312L174.954 5.104V4.112H179.834V5.104L178.506 5.312V9.6H179.706L182.506 5.312L181.354 5.104V4.112H185.562V5.104L184.234 5.312L181.066 9.68ZM197.7 11.056C198.137 11.248 198.516 11.552 198.836 11.968C199.166 12.384 199.524 12.928 199.908 13.6C200.142 14.0053 200.329 14.3093 200.468 14.512C200.606 14.704 200.745 14.8267 200.884 14.88L201.556 15.024V16H199.236C198.926 16 198.649 15.8293 198.404 15.488C198.169 15.1467 197.897 14.6347 197.588 13.952C197.236 13.2267 196.937 12.6933 196.692 12.352C196.446 12 196.158 11.824 195.828 11.824H194.788V14.88L196.164 15.04V16H191.364V15.04L192.564 14.88V11.808L191.54 11.824C191.209 11.824 190.921 12 190.676 12.352C190.43 12.6933 190.132 13.2267 189.78 13.952C189.47 14.6347 189.193 15.1467 188.948 15.488C188.713 15.8293 188.441 16 188.132 16H185.812V15.024L186.484 14.864C186.622 14.8107 186.761 14.6827 186.9 14.48C187.049 14.2773 187.241 13.9733 187.476 13.568C187.87 12.896 188.222 12.3573 188.532 11.952C188.852 11.5467 189.225 11.248 189.652 11.056L187.476 8.256L186.244 8.048V7.104H190.372V8.048L189.188 8.256L190.964 10.88H192.564V8.256L191.508 8.048V7.104H195.94L195.956 8.048L194.788 8.256V10.88H196.388L198.18 8.256L196.996 8.048V7.104H201.124V8.048L199.876 8.256L197.7 11.056ZM206.336 4.48C206.443 4.46933 206.805 4.41067 207.424 4.304C207.957 4.208 208.416 4.13333 208.8 4.08C209.195 4.016 209.557 3.984 209.888 3.984C211.307 3.984 212.389 4.21333 213.136 4.672C213.893 5.12 214.272 5.79733 214.272 6.704C214.272 7.55733 214 8.24 213.456 8.752C212.923 9.25333 212.267 9.57867 211.488 9.728C212.491 9.76 213.259 10.0267 213.792 10.528C214.336 11.0187 214.608 11.664 214.608 12.464C214.608 13.6373 214.235 14.5387 213.488 15.168C212.741 15.7867 211.509 16.096 209.792 16.096C209.205 16.096 208.688 16.0533 208.24 15.968C207.803 15.8827 207.349 15.7653 206.88 15.616C206.603 15.52 206.389 15.4613 206.24 15.44L206.576 12.496H207.712L208.208 14.672C208.656 14.9707 209.264 15.12 210.032 15.12C210.661 15.12 211.136 14.9067 211.456 14.48C211.776 14.0427 211.936 13.4133 211.936 12.592C211.936 11.9627 211.765 11.4347 211.424 11.008C211.083 10.5813 210.496 10.368 209.664 10.368H208.608V9.28H209.488C210.139 9.28 210.688 9.08267 211.136 8.688C211.584 8.28267 211.808 7.68 211.808 6.88C211.808 6.22933 211.627 5.74933 211.264 5.44C210.901 5.12 210.411 4.96 209.792 4.96C209.376 4.96 209.029 5.01333 208.752 5.12C208.475 5.22667 208.288 5.36 208.192 5.52L207.872 7.072H206.56L206.336 4.48ZM216.066 7.36C216.396 7.36 216.844 7.30133 217.41 7.184C217.772 7.09867 218.114 7.03467 218.434 6.992C218.764 6.94933 219.143 6.928 219.57 6.928C220.796 6.928 221.703 7.11467 222.29 7.488C222.887 7.86133 223.186 8.39467 223.186 9.088C223.186 9.54667 223.02 9.96267 222.69 10.336C222.37 10.7093 221.927 11.0027 221.362 11.216C222.108 11.2907 222.679 11.5147 223.074 11.888C223.468 12.2613 223.666 12.7413 223.666 13.328C223.666 14.2133 223.324 14.9013 222.642 15.392C221.959 15.8827 220.935 16.128 219.57 16.128C218.759 16.128 218.076 16.0693 217.522 15.952C216.967 15.8347 216.439 15.696 215.938 15.536L216.098 13.44H217.426L217.714 14.688C217.842 14.8373 218.044 14.9547 218.322 15.04C218.61 15.1147 218.924 15.152 219.266 15.152C219.906 15.152 220.375 14.9973 220.674 14.688C220.972 14.368 221.122 13.968 221.122 13.488C221.122 12.432 220.572 11.9093 219.474 11.92C219.346 11.9307 219.186 11.952 218.994 11.984C218.802 12.016 218.642 12.048 218.514 12.08L218.53 10.896L219.202 10.8C219.703 10.7253 220.098 10.544 220.386 10.256C220.674 9.968 220.818 9.59467 220.818 9.136C220.818 8.70933 220.695 8.4 220.45 8.208C220.215 8.00533 219.826 7.904 219.282 7.904C218.887 7.904 218.551 7.968 218.274 8.096C217.996 8.224 217.81 8.368 217.714 8.528L217.506 9.824H216.066V7.36ZM233.555 4.112V5.104L232.083 5.312V12.768L233.155 10.976L237.235 5.696V5.312L235.891 5.104V4.112H240.787V5.104L239.555 5.312V14.88L240.835 15.04V16H235.891V15.04L237.235 14.88V7.328L236.275 9.056L232.083 14.384V14.88L233.507 15.04V16H228.515V15.04L229.779 14.88V5.312L228.547 5.104V4.112H233.555ZM246.765 7.104V8.048L245.533 8.256V13.088L246.429 11.904L249.533 8.592V8.256L248.461 8.048V7.104H252.893V8.048L251.805 8.256V14.896L252.941 15.04V16H248.333V15.04L249.533 14.896V9.984L248.605 11.312L245.533 14.56V14.928L246.589 15.04V16H242.157V15.04L243.277 14.896V8.256L242.189 8.048V7.104H246.765ZM264.159 9.648C264.543 9.744 264.905 9.97333 265.247 10.336C265.599 10.688 265.903 11.0773 266.159 11.504C266.425 11.92 266.745 12.4693 267.119 13.152C267.407 13.696 267.636 14.1067 267.807 14.384C267.988 14.6613 268.153 14.8213 268.303 14.864L268.895 15.04V16H266.367C266.1 16 265.839 15.7973 265.583 15.392C265.337 14.9867 265.012 14.352 264.607 13.488C264.159 12.5173 263.764 11.776 263.423 11.264C263.092 10.752 262.74 10.496 262.367 10.496H261.615V14.864L263.039 15.056V16H258.063V15.04L259.295 14.864V5.312L258.063 5.104V4.112H262.831V5.104L261.615 5.312V9.6H262.783L265.647 5.312L264.447 5.104V4.112H268.671V5.104L267.343 5.312L264.159 9.648ZM275.882 11.04C276.309 11.2213 276.682 11.5253 277.002 11.952C277.322 12.368 277.669 12.9067 278.042 13.568C278.266 13.9733 278.453 14.2827 278.602 14.496C278.751 14.6987 278.895 14.8267 279.034 14.88L279.722 15.024V16H277.402C277.103 16 276.837 15.8347 276.602 15.504C276.367 15.1627 276.085 14.6507 275.754 13.968C275.423 13.264 275.13 12.7307 274.874 12.368C274.618 12.0053 274.325 11.824 273.994 11.824H272.986V14.896L274.298 15.04V16H269.61V15.04L270.73 14.896V8.256L269.642 8.048V7.104H274.074V8.048L272.986 8.256V10.88H274.554L276.33 8.256L275.146 8.048V7.104H279.274V8.048L278.042 8.256L275.882 11.04ZM288.3 6.576C288.3 8.432 288.199 10.1013 287.996 11.584C287.804 13.056 287.506 14.1653 287.1 14.912C286.674 15.7013 286.06 16.096 285.26 16.096C284.716 16.096 284.306 16.064 284.028 16L283.884 14.56C284.311 14.6027 284.716 14.624 285.1 14.624C285.314 14.624 285.495 14.576 285.644 14.48C285.804 14.384 285.943 14.2133 286.06 13.968C286.402 13.3707 286.663 12.4587 286.844 11.232C287.036 10.0053 287.132 8.352 287.132 6.272V5.312L285.212 5.104V4.112H295.116V5.104L293.644 5.312V14.88L295.196 15.04V16H289.676V15.04L291.324 14.864L291.34 5.312H288.3V6.576ZM299.179 9.024C299.179 10.432 299.094 11.6587 298.923 12.704C298.752 13.7493 298.544 14.512 298.299 14.992C298.15 15.344 297.942 15.6213 297.675 15.824C297.408 16.016 297.04 16.112 296.571 16.112C296.315 16.112 296.038 16.0747 295.739 16L295.611 14.544C295.856 14.5973 296.203 14.624 296.651 14.624C296.928 14.624 297.168 14.3573 297.371 13.824C297.584 13.2907 297.75 12.544 297.867 11.584C297.995 10.6133 298.059 9.504 298.059 8.256L296.603 8.048V7.104H305.243V8.064L303.851 8.288V14.896L305.179 15.04V16H300.363V15.04L301.595 14.896V8.224H299.179V9.024ZM3.56 29.312L1.832 29.104V28.112H6.824L8.728 34.992L9.176 36.864L9.56 34.992L11.448 28.112H16.392V29.104L14.648 29.312L15.928 38.864L17.224 39.04V40H12.12V39.04L13.528 38.88L12.824 31.872L12.52 28.944L11.928 31.408L9.608 39.504H7.912L5.544 31.824L4.728 28.944L4.488 31.872L3.88 38.88L5.496 39.04V40H1.048V39.04L2.392 38.88L3.56 29.312ZM22.5456 31.104L24.2096 35.888L24.6736 37.376L25.0896 35.888L26.6736 31.104H31.1536V32.048L29.6656 32.256L30.7536 38.896L31.9216 39.04V40H27.2176V39.04L28.4336 38.896L27.9056 34.272L27.6176 32.016L26.9296 34.24L25.1216 39.424H23.4416L21.5056 34.208L20.7696 32.016L20.5456 34.224L19.9376 38.912L21.2976 39.04V40H17.2976V39.04L18.5136 38.896L19.5856 32.256L18.0816 32.048V31.104H22.5456ZM37.6228 29.312L36.4388 29.104V28.112H41.3028V29.104L39.9588 29.312V33.328H44.8228V29.312L43.5908 29.104V28.112H48.3908V29.104L47.1748 29.312V38.88L48.3908 39.04V40H43.5748V39.04L44.8228 38.88V34.544H39.9588V38.88L41.3028 39.04V40H36.4068V39.04L37.6228 38.88V29.312ZM54.3261 31.104V32.048L53.1581 32.256V34.864H56.9341V32.256L55.7661 32.048V31.104H60.3101V32.048L59.2061 32.256V38.896L60.3261 39.04V40H55.7341V39.04L56.9341 38.896V35.92H53.1581V38.896L54.3421 39.04V40H49.7661V39.04L50.9021 38.896V32.256L49.7661 32.048V31.104H54.3261ZM70.5081 40.176C68.7695 40.176 67.4681 39.632 66.6041 38.544C65.7401 37.456 65.3081 35.9733 65.3081 34.096C65.3081 32.8693 65.5321 31.792 65.9801 30.864C66.4388 29.936 67.0788 29.2213 67.9001 28.72C68.7215 28.2187 69.6655 27.968 70.7321 27.968C72.4921 27.968 73.8095 28.4907 74.6841 29.536C75.5695 30.5707 76.0121 32.0213 76.0121 33.888C76.0121 35.1253 75.7775 36.224 75.3081 37.184C74.8495 38.1333 74.2041 38.8693 73.3721 39.392C72.5401 39.9147 71.5855 40.176 70.5081 40.176ZM70.6681 28.944C69.7935 28.944 69.1108 29.376 68.6201 30.24C68.1295 31.104 67.8841 32.384 67.8841 34.08C67.8841 35.7547 68.1188 37.0293 68.5881 37.904C69.0681 38.768 69.7508 39.2 70.6361 39.2C71.5001 39.2 72.1775 38.7467 72.6681 37.84C73.1588 36.9227 73.4041 35.6053 73.4041 33.888C73.4041 32.224 73.1695 30.9867 72.7001 30.176C72.2308 29.3547 71.5535 28.944 70.6681 28.944ZM77.1888 35.568C77.1888 34.5653 77.3861 33.712 77.7808 33.008C78.1861 32.304 78.7248 31.776 79.3968 31.424C80.0688 31.0613 80.7994 30.88 81.5888 30.88C82.9328 30.88 83.9674 31.296 84.6927 32.128C85.4288 32.9493 85.7968 34.0693 85.7968 35.488C85.7968 36.5013 85.5941 37.3653 85.1888 38.08C84.7941 38.784 84.2608 39.312 83.5888 39.664C82.9274 40.0053 82.1968 40.176 81.3968 40.176C80.0634 40.176 79.0288 39.7653 78.2928 38.944C77.5568 38.112 77.1888 36.9867 77.1888 35.568ZM81.5248 39.136C82.7301 39.136 83.3328 37.9733 83.3328 35.648C83.3328 34.432 83.1888 33.5093 82.9008 32.88C82.6128 32.24 82.1434 31.92 81.4928 31.92C80.2554 31.92 79.6368 33.0827 79.6368 35.408C79.6368 36.624 79.7861 37.552 80.0848 38.192C80.3941 38.8213 80.8741 39.136 81.5248 39.136ZM102.632 28.112V29.104L101.352 29.312V38.864L102.728 39.04V40H97.8001V39.04L99.0161 38.88V29.216H94.5681V38.88L95.9121 39.04V40H91.0001V39.04L92.2481 38.88V29.312L90.9521 29.104V28.112H102.632ZM114.114 31.104V32.048L113.026 32.256V38.88L114.114 39.04V40H109.65V39.04L110.754 38.88V32.144H107.346V38.88L108.402 39.04V40H103.986V39.04L105.074 38.88V32.256L103.954 32.048V31.104H114.114ZM120.529 29.312L119.329 29.104V28.112H121.745C121.969 28.112 122.316 28.1013 122.785 28.08C123.404 28.0373 123.964 28.016 124.465 28.016C125.574 28.016 126.449 28.1547 127.089 28.432C127.74 28.6987 128.198 29.088 128.465 29.6C128.742 30.1013 128.881 30.7413 128.881 31.52C128.881 32.864 128.46 33.9093 127.617 34.656C126.785 35.4027 125.628 35.776 124.145 35.776C123.558 35.776 123.137 35.76 122.881 35.728V38.88L125.025 39.04V40H119.265V39.04L120.529 38.88V29.312ZM122.865 34.704C123.11 34.7573 123.526 34.784 124.113 34.784C124.828 34.784 125.398 34.5387 125.825 34.048C126.262 33.5467 126.481 32.72 126.481 31.568C126.481 30.672 126.284 30.0213 125.889 29.616C125.505 29.2 124.913 28.992 124.113 28.992C123.814 28.992 123.505 29.0133 123.185 29.056C123.036 29.0773 122.929 29.088 122.865 29.088V34.704ZM138.771 35.264C138.771 36.16 138.584 36.9813 138.211 37.728C137.848 38.4747 137.31 39.072 136.595 39.52C135.891 39.9573 135.048 40.176 134.067 40.176C133.854 40.176 133.63 40.1547 133.395 40.112C133.171 40.08 132.99 40.0373 132.851 39.984L132.899 41.312V42.768L134.387 42.96V43.872H129.635V42.96L130.675 42.768V32.624L129.635 32.336V31.232L132.275 30.896H132.307L132.707 31.216V32.112C132.974 31.7813 133.336 31.4933 133.795 31.248C134.254 31.0027 134.755 30.88 135.299 30.88C136.312 30.88 137.144 31.2427 137.795 31.968C138.446 32.6827 138.771 33.7813 138.771 35.264ZM134.467 32.208C134.147 32.208 133.843 32.2773 133.555 32.416C133.267 32.5547 133.048 32.7093 132.899 32.88V38.816C132.974 38.9227 133.123 39.0133 133.347 39.088C133.582 39.1627 133.838 39.2 134.115 39.2C134.808 39.2 135.358 38.9013 135.763 38.304C136.179 37.696 136.387 36.7467 136.387 35.456C136.387 34.368 136.211 33.5573 135.859 33.024C135.507 32.48 135.043 32.208 134.467 32.208ZM149.22 40.176C147.407 40.176 146.02 39.6373 145.06 38.56C144.1 37.472 143.62 35.9893 143.62 34.112C143.62 32.8747 143.871 31.7973 144.372 30.88C144.884 29.952 145.583 29.2373 146.468 28.736C147.354 28.2347 148.356 27.984 149.476 27.984C149.946 27.984 150.399 28.016 150.836 28.08C151.274 28.1333 151.791 28.208 152.388 28.304C152.836 28.3787 153.082 28.416 153.124 28.416L152.948 31.712H151.476L150.98 29.424C150.863 29.3067 150.66 29.2107 150.372 29.136C150.084 29.0613 149.716 29.024 149.268 29.024C148.362 29.024 147.631 29.4453 147.076 30.288C146.532 31.12 146.26 32.3307 146.26 33.92C146.26 35.456 146.522 36.7093 147.044 37.68C147.567 38.6507 148.33 39.136 149.332 39.136C149.812 39.136 150.18 39.0933 150.436 39.008C150.703 38.912 150.927 38.7787 151.108 38.608L151.812 36.96L153.156 37.088L152.836 39.568C152.612 39.5893 152.388 39.632 152.164 39.696C151.951 39.7493 151.818 39.7813 151.764 39.792C151.338 39.9093 150.938 40 150.564 40.064C150.202 40.1387 149.754 40.176 149.22 40.176ZM154.2 35.6C154.2 34.6827 154.381 33.8667 154.743 33.152C155.117 32.4373 155.645 31.8827 156.328 31.488C157.021 31.0827 157.826 30.88 158.744 30.88C159.17 30.88 159.538 30.912 159.848 30.976C160.157 31.04 160.504 31.1253 160.888 31.232L161.352 31.36L161.256 34.096H159.864L159.464 32.336C159.4 32.0587 159.085 31.92 158.52 31.92C157.922 31.92 157.453 32.1813 157.112 32.704C156.781 33.2267 156.61 34.0427 156.6 35.152C156.6 36.3253 156.802 37.2267 157.208 37.856C157.613 38.4747 158.152 38.784 158.824 38.784C159.634 38.784 160.381 38.5653 161.064 38.128L161.432 38.96C161.154 39.2587 160.728 39.536 160.152 39.792C159.586 40.048 158.973 40.176 158.312 40.176C156.946 40.176 155.917 39.7547 155.224 38.912C154.541 38.0693 154.2 36.9653 154.2 35.6ZM170.293 29.168L168.005 29.248L167.381 32.736H166.037L166.309 28.112H176.629L176.821 32.736H175.557L174.933 29.248L172.677 29.168V38.88L174.917 39.04V40H168.245V39.04L170.293 38.88V29.168ZM186.932 31.104L187.076 34.752H185.7L185.22 32.224L183.524 32.096V38.88L185.636 39.04V40H179.172V39.04L181.252 38.88V32.096L179.46 32.224L178.996 34.752H177.62L177.748 31.104H186.932ZM197.919 37.488C197.653 38.0853 197.423 38.5493 197.231 38.88C197.039 39.2107 196.751 39.5093 196.367 39.776C195.994 40.0427 195.525 40.176 194.959 40.176C194.661 40.176 194.341 40.1493 193.999 40.096C193.658 40.0427 193.397 39.9787 193.215 39.904V38.592L194.367 38.608C194.879 38.608 195.242 38.528 195.455 38.368C195.669 38.208 195.834 37.9147 195.951 37.488L192.143 29.312L191.279 29.104V28.112H196.159V29.104L194.703 29.312L196.911 34.448L197.359 35.792L197.823 34.432L199.615 29.312L198.383 29.104V28.112H201.935V29.104L201.103 29.312L197.919 37.488ZM203.816 43.984C203.624 43.984 203.416 43.968 203.192 43.936C202.979 43.904 202.824 43.8667 202.728 43.824V42.112C202.803 42.1547 202.952 42.1973 203.176 42.24C203.4 42.2827 203.603 42.304 203.784 42.304C204.317 42.304 204.755 42.128 205.096 41.776C205.448 41.424 205.773 40.832 206.072 40H205.208L202.2 32.24L201.48 32.032V31.104H205.88V32.032L204.712 32.224L206.136 36.656L206.712 38.544L207.208 36.656L208.52 32.224L207.512 32.032V31.104H210.984V32.032L210.2 32.224C209.613 34.016 209.032 35.744 208.456 37.408C207.88 39.072 207.544 40.0053 207.448 40.208C207.107 41.104 206.781 41.8187 206.472 42.352C206.163 42.8853 205.795 43.2907 205.368 43.568C204.941 43.8453 204.424 43.984 203.816 43.984ZM222.273 29.984C223.681 29.9947 224.769 30.1813 225.537 30.544C226.315 30.9067 226.843 31.376 227.121 31.952C227.398 32.528 227.537 33.2107 227.537 34C227.537 34.7573 227.334 35.4347 226.929 36.032C226.534 36.6293 225.937 37.104 225.137 37.456C224.347 37.808 223.393 37.9947 222.273 38.016V39.184L223.697 39.36V40.336H218.609V39.344L220.033 39.168V38.016C218.006 38.0053 216.619 37.632 215.873 36.896C215.137 36.16 214.769 35.1787 214.769 33.952C214.769 32.7787 215.206 31.84 216.081 31.136C216.955 30.432 218.273 30.0533 220.033 30V28.96L218.593 28.736V27.776H223.681V28.736L222.273 28.96V29.984ZM220.033 30.784C218.945 30.848 218.209 31.1413 217.825 31.664C217.441 32.1867 217.249 32.9173 217.249 33.856C217.249 34.7627 217.441 35.52 217.825 36.128C218.219 36.736 218.955 37.0933 220.033 37.2V30.784ZM222.273 37.232C223.35 37.1467 224.081 36.832 224.465 36.288C224.859 35.744 225.057 34.9867 225.057 34.016C225.057 33.1307 224.865 32.4053 224.481 31.84C224.097 31.264 223.361 30.9227 222.273 30.816V37.232ZM233.88 39.36C233.357 39.9147 232.637 40.192 231.72 40.192C231.069 40.192 230.483 40.0373 229.96 39.728C229.448 39.4187 229.037 38.9333 228.728 38.272C228.419 37.6107 228.264 36.7787 228.264 35.776C228.264 34.8267 228.429 33.984 228.76 33.248C229.101 32.512 229.597 31.936 230.248 31.52C230.899 31.104 231.672 30.896 232.568 30.896C232.792 30.896 233.027 30.928 233.272 30.992C233.517 31.0453 233.72 31.1093 233.88 31.184L233.832 29.904V28.272L232.632 28.08V27.232L235.528 26.88L236.008 27.168V29.904L235.976 31.712C236.52 31.168 237.235 30.896 238.12 30.896C238.771 30.896 239.357 31.0507 239.88 31.36C240.403 31.6693 240.819 32.1547 241.128 32.816C241.437 33.4773 241.592 34.3093 241.592 35.312C241.592 36.2613 241.421 37.104 241.08 37.84C240.739 38.576 240.243 39.152 239.592 39.568C238.952 39.984 238.184 40.192 237.288 40.192C237.043 40.192 236.803 40.1653 236.568 40.112C236.344 40.0587 236.163 39.9893 236.024 39.904L236.056 40.928V42.752L237.384 42.96V43.888H232.552V42.96L233.832 42.752V40.928L233.88 39.36ZM233.832 32.336C233.757 32.24 233.624 32.144 233.432 32.048C233.24 31.952 233.016 31.904 232.76 31.904C232.141 31.904 231.629 32.2133 231.224 32.832C230.829 33.44 230.632 34.3733 230.632 35.632C230.632 36.72 230.813 37.5467 231.176 38.112C231.539 38.6773 232.008 38.96 232.584 38.96C232.861 38.96 233.107 38.9227 233.32 38.848C233.533 38.7733 233.704 38.6773 233.832 38.56V32.336ZM236.008 38.72C236.083 38.816 236.221 38.912 236.424 39.008C236.627 39.104 236.851 39.152 237.096 39.152C237.715 39.152 238.221 38.8533 238.616 38.256C239.021 37.6587 239.224 36.7307 239.224 35.472C239.224 34.384 239.037 33.552 238.664 32.976C238.301 32.3893 237.832 32.096 237.256 32.096C236.979 32.096 236.733 32.1333 236.52 32.208C236.307 32.272 236.136 32.3627 236.008 32.48V38.72ZM250.592 34.192L247.328 29.328L246.224 29.104V28.112H251.456V29.104L250.096 29.328L252.288 32.96L254.544 29.312L253.168 29.104V28.112H257.28V29.104L255.984 29.328L252.88 33.68L256.368 38.88L257.488 39.04V40H252.272V39.04L253.616 38.88L251.216 34.96L248.912 38.88L250.448 39.04V40H246.08V39.04L247.424 38.88L250.592 34.192ZM261.132 35.632L258.492 32.224L257.66 32.032V31.104H262.284V32.032L261.244 32.224L262.508 34L262.924 34.672L263.34 34L264.636 32.224L263.548 32.032V31.104H267.02V32.032L266.108 32.224L263.58 35.328L266.348 38.912L267.228 39.056V40H262.604V39.056L263.548 38.896L262.316 37.024L261.836 36.32L261.452 37.008L260.14 38.896L261.372 39.056V40H257.532V39.056L258.556 38.896L261.132 35.632ZM283.737 38.864C283.737 39.1733 283.678 39.936 283.561 41.152C283.443 42.3787 283.369 43.0453 283.337 43.152H282.041C282.03 42.864 281.977 42.2987 281.881 41.456C281.785 40.624 281.71 40.1387 281.657 40H271.497V39.056L272.889 38.864V29.312L271.609 29.104V28.112H276.665V29.104L275.209 29.312V38.96H279.593V29.312L278.393 29.104V28.112H283.161V29.104L281.913 29.312V38.864H283.737ZM295.534 38.96C295.491 39.5573 295.422 40.3147 295.326 41.232C295.23 42.16 295.15 42.8 295.086 43.152H293.87C293.838 42.8 293.774 42.2187 293.678 41.408C293.582 40.5973 293.507 40.128 293.454 40H284.83V39.04L285.902 38.88V32.24L284.814 32.048V31.104H289.31V32.048L288.174 32.24V38.96H291.598V32.256L290.478 32.048V31.104H294.894V32.048L293.87 32.256V38.96H295.534ZM306.766 34.944C306.403 35.1573 305.944 35.3227 305.39 35.44C304.846 35.5573 304.323 35.616 303.822 35.616C303.043 35.616 302.414 35.5093 301.934 35.296C301.454 35.072 301.091 34.6987 300.846 34.176C300.611 33.6427 300.493 32.9173 300.493 32V29.328L299.566 29.12V28.112H304.03V29.12L302.83 29.312V31.456C302.83 32.32 302.883 32.9493 302.99 33.344C303.096 33.7387 303.278 34 303.534 34.128C303.79 34.2453 304.195 34.304 304.75 34.304C305.123 34.304 305.502 34.256 305.886 34.16C306.28 34.064 306.574 33.9467 306.766 33.808V29.312L305.454 29.104V28.112H310.398V29.104L309.102 29.312V38.88L310.414 39.056V40H305.07V39.04L306.766 38.88V34.944ZM317.64 36.336C317.565 36.368 317.379 36.4533 317.08 36.592C316.781 36.7307 316.461 36.8373 316.12 36.912C315.779 36.976 315.411 37.008 315.016 37.008C313.949 37.008 313.171 36.752 312.68 36.24C312.189 35.728 311.944 34.848 311.944 33.6V32.256L311.064 32.048V31.104H315.16V32.048L314.248 32.256V33.2C314.248 33.9467 314.291 34.5067 314.376 34.88C314.461 35.2427 314.621 35.4987 314.856 35.648C315.091 35.7867 315.443 35.856 315.912 35.856C316.264 35.856 316.589 35.808 316.888 35.712C317.197 35.616 317.448 35.504 317.64 35.376V32.256L316.552 32.048V31.104H320.936V32.048L319.88 32.256V38.88L320.952 39.04V40H316.216V39.04L317.64 38.88V36.336ZM6.536 52.112V53.104L5.24 53.312V62.88H8.984V53.312L7.8 53.104V52.112H12.488V53.104L11.288 53.312V62.88H14.968V53.312L13.816 53.104V52.112H18.552V53.104L17.288 53.312V62.88L18.664 63.04V64H1.528V63.04L2.92 62.88V53.312L1.656 53.104V52.112H6.536ZM24.4031 55.104V56.048L23.2351 56.256V62.976H26.2591V56.256L25.1231 56.048V55.104H29.5711V56.048L28.4671 56.256V62.976H31.5071V56.256L30.3551 56.048V55.104H34.8671V56.048L33.7311 56.256V62.896L34.9951 63.072V64H19.8111V63.072L21.0111 62.896V56.272L19.8431 56.048V55.104H24.4031ZM57.5358 62.864C57.5038 63.4507 57.4398 64.208 57.3438 65.136C57.2584 66.0747 57.1838 66.7467 57.1198 67.152H55.8398C55.8291 66.8427 55.7758 66.272 55.6798 65.44C55.5944 64.6187 55.5198 64.1387 55.4558 64H39.8717V63.04L41.2638 62.88V53.312L39.9998 53.104V52.112H44.8798V53.104L43.5838 53.312V62.88H47.3278V53.312L46.1438 53.104V52.112H50.8318V53.104L49.6318 53.312V62.88H53.3118V53.312L52.1598 53.104V52.112H56.8958V53.104L55.6318 53.312V62.864H57.5358ZM74.019 62.96C73.9763 63.5573 73.907 64.3253 73.811 65.264C73.715 66.2027 73.6403 66.8373 73.587 67.168H72.371L72.339 66.816C72.3283 66.688 72.275 66.2187 72.179 65.408C72.083 64.608 72.003 64.1387 71.939 64H58.483V63.072L59.683 62.896V56.272L58.515 56.048V55.104H63.075V56.048L61.907 56.256V62.976H64.931V56.256L63.795 56.048V55.104H68.243V56.048L67.139 56.256V62.976H70.179V56.256L69.027 56.048V55.104H73.539V56.048L72.403 56.256V62.96H74.019ZM86.9928 56.912C88.3794 56.912 89.4141 57.2053 90.0968 57.792C90.7794 58.368 91.1208 59.2053 91.1208 60.304C91.1208 61.52 90.7421 62.464 89.9848 63.136C89.2381 63.7973 88.2141 64.128 86.9128 64.128L85.7608 64.08C84.6194 64.0267 84.0008 64 83.9048 64H80.3848V63.056L82.6248 62.864V53.136L80.3528 53.296L79.8088 56.576H78.4168L78.6728 52.112H86.6568V53.072L84.9768 53.312V56.912H86.9928ZM84.9768 62.992C85.3394 63.0773 85.7768 63.12 86.2888 63.12C87.0994 63.12 87.7021 62.8853 88.0968 62.416C88.4914 61.936 88.6888 61.2853 88.6888 60.464C88.6888 59.6213 88.4968 58.9973 88.1128 58.592C87.7288 58.1867 87.1528 57.984 86.3848 57.984H84.9768V62.992ZM97.7084 58.576C98.0924 58.576 98.4017 58.5707 98.6364 58.56L99.6124 58.544C100.818 58.544 101.714 58.7787 102.3 59.248C102.887 59.7067 103.18 60.368 103.18 61.232C103.18 63.1733 101.884 64.144 99.2924 64.144C99.1644 64.144 98.7377 64.1227 98.0124 64.08C97.8097 64.0693 97.5324 64.0533 97.1804 64.032C96.8284 64.0107 96.583 64 96.4444 64H93.4844V63.04L95.4844 62.88V56.112L93.5964 56.176L93.2124 58.816H91.9324L91.9164 55.104H99.1804V56.08L97.7084 56.272V58.576ZM97.7084 63.024C98.135 63.1093 98.4977 63.152 98.7964 63.152C100.151 63.152 100.828 62.5707 100.828 61.408C100.828 60.832 100.674 60.3893 100.364 60.08C100.066 59.76 99.5964 59.6 98.9564 59.6L97.7084 59.616V63.024ZM111.428 56.848C111.94 56.8267 112.633 56.816 113.508 56.816C114.841 56.816 115.849 57.12 116.532 57.728C117.214 58.336 117.556 59.1893 117.556 60.288C117.556 61.088 117.369 61.776 116.996 62.352C116.633 62.928 116.126 63.3707 115.476 63.68C114.836 63.9787 114.105 64.128 113.284 64.128C113.049 64.128 112.601 64.1067 111.94 64.064C111.172 64.0213 110.569 64 110.132 64H107.828V63.04L109.092 62.88V53.296L107.86 53.072V52.112H113.06V53.072L111.428 53.296V56.848ZM123.715 52.112V53.104L122.324 53.312V62.88L123.715 63.056V64H118.612V63.04L119.972 62.88V53.312L118.596 53.104V52.112H123.715ZM111.428 62.976C111.79 63.0613 112.222 63.104 112.724 63.104C113.545 63.104 114.153 62.864 114.548 62.384C114.942 61.8933 115.14 61.2373 115.14 60.416C115.14 58.7307 114.366 57.888 112.82 57.888L111.428 57.904V62.976ZM128.486 58.576C129.19 58.5547 129.75 58.544 130.166 58.544C131.36 58.544 132.251 58.7733 132.838 59.232C133.424 59.68 133.718 60.336 133.718 61.2C133.718 62.192 133.387 62.9333 132.726 63.424C132.064 63.904 131.115 64.144 129.878 64.144C129.728 64.144 129.28 64.1227 128.534 64.08C127.872 64.0267 127.376 64 127.046 64H124.998V63.072L126.262 62.896V56.272L125.03 56.048V55.104H129.83V56.08L128.486 56.272V58.576ZM138.406 55.104V56.064L137.398 56.256V62.896L138.534 63.04V64H134.15V63.04L135.19 62.88V56.256L134.102 56.064V55.104H138.406ZM128.486 63.088C128.528 63.088 128.63 63.0987 128.79 63.12C128.96 63.1413 129.158 63.152 129.382 63.152C130.715 63.152 131.382 62.56 131.382 61.376C131.382 60.192 130.752 59.6 129.494 59.6H128.486V63.088ZM147.224 56.848C147.736 56.8267 148.43 56.816 149.304 56.816C150.638 56.816 151.646 57.12 152.328 57.728C153.011 58.336 153.352 59.1893 153.352 60.288C153.352 61.088 153.166 61.776 152.792 62.352C152.43 62.928 151.923 63.3707 151.272 63.68C150.632 63.9787 149.902 64.128 149.08 64.128C148.846 64.128 148.398 64.1067 147.736 64.064C146.968 64.0213 146.366 64 145.928 64H143.624V63.04L144.888 62.88V53.296L143.656 53.072V52.112H148.856V53.072L147.224 53.296V56.848ZM147.224 62.976C147.587 63.0613 148.019 63.104 148.52 63.104C149.342 63.104 149.95 62.864 150.344 62.384C150.739 61.8933 150.936 61.2373 150.936 60.416C150.936 58.7307 150.163 57.888 148.616 57.888L147.224 57.904V62.976ZM157.689 58.576C158.062 58.576 158.361 58.5707 158.585 58.56L159.545 58.544C160.739 58.544 161.63 58.7733 162.217 59.232C162.803 59.68 163.097 60.336 163.097 61.2C163.097 62.192 162.766 62.9333 162.105 63.424C161.454 63.904 160.51 64.144 159.273 64.144C159.134 64.144 158.691 64.1227 157.945 64.08C157.283 64.0267 156.782 64 156.441 64H154.217V63.072L155.465 62.896V56.256L154.265 56.064V55.104H159.097V56.064L157.689 56.256V58.576ZM157.689 63.056C157.987 63.12 158.345 63.152 158.761 63.152C160.094 63.152 160.761 62.56 160.761 61.376C160.761 60.192 160.137 59.6 158.889 59.6C158.323 59.6 157.923 59.6053 157.689 59.616V63.056ZM167.94 52.592C168.132 52.5813 168.34 52.5493 168.564 52.496C168.799 52.432 168.948 52.3947 169.012 52.384C169.503 52.256 169.962 52.16 170.388 52.096C170.826 52.0213 171.343 51.984 171.94 51.984C173.124 51.984 174.127 52.24 174.948 52.752C175.78 53.264 176.41 53.9787 176.836 54.896C177.263 55.8027 177.476 56.864 177.476 58.08C177.476 59.3173 177.231 60.3947 176.74 61.312C176.26 62.2293 175.572 62.9387 174.676 63.44C173.791 63.9307 172.746 64.176 171.54 64.176C171.082 64.176 170.676 64.144 170.324 64.08C169.972 64.016 169.583 63.9307 169.156 63.824C168.954 63.7707 168.756 63.7227 168.564 63.68C168.372 63.6373 168.196 63.616 168.036 63.616L167.892 60.88L169.396 60.752L170.02 62.56C170.18 62.7307 170.388 62.8747 170.644 62.992C170.9 63.1093 171.263 63.168 171.732 63.168C172.671 63.168 173.418 62.768 173.972 61.968C174.538 61.168 174.831 60.0213 174.852 58.528L170.02 58.656V57.168L174.804 57.296C174.698 56.0267 174.383 54.9973 173.86 54.208C173.348 53.408 172.644 53.008 171.748 53.008C171.268 53.008 170.89 53.0667 170.612 53.184C170.346 53.3013 170.111 53.456 169.908 53.648L169.396 55.312L167.988 55.328L167.94 52.592ZM178.626 55.312C178.871 55.2053 179.287 55.104 179.874 55.008C180.471 54.912 181.015 54.864 181.506 54.864C182.349 54.864 183.106 55.0453 183.778 55.408C184.461 55.76 184.999 56.288 185.394 56.992C185.789 57.6853 185.986 58.528 185.986 59.52C185.986 60.4693 185.81 61.296 185.458 62C185.117 62.6933 184.626 63.232 183.986 63.616C183.346 63.9893 182.605 64.176 181.762 64.176C181.079 64.176 180.461 64.096 179.906 63.936C179.362 63.7653 178.93 63.5467 178.61 63.28L178.546 61.616H179.634L179.986 62.832C180.413 63.024 180.85 63.12 181.298 63.12C182.695 63.12 183.453 62.0907 183.57 60.032L180.274 60.112V58.816L183.57 58.912C183.527 57.9307 183.319 57.1787 182.946 56.656C182.583 56.1227 182.093 55.856 181.474 55.856C180.93 55.856 180.503 56.0107 180.194 56.32L179.922 57.392H178.642L178.626 55.312ZM196.811 57.312C196.917 56.2133 197.211 55.264 197.691 54.464C198.181 53.6533 198.805 53.0347 199.563 52.608C200.331 52.1813 201.184 51.968 202.123 51.968C203.829 51.968 205.115 52.48 205.979 53.504C206.843 54.528 207.275 55.952 207.275 57.776C207.275 59.0667 207.051 60.1973 206.603 61.168C206.155 62.128 205.531 62.8693 204.731 63.392C203.931 63.904 203.019 64.16 201.995 64.16C200.309 64.16 199.029 63.664 198.155 62.672C197.28 61.6693 196.821 60.288 196.779 58.528H194.459V62.864L195.803 63.04V64H190.875V63.04L192.123 62.864V53.312L190.907 53.104V52.112H195.755V53.104L194.459 53.312V57.312H196.811ZM202.075 52.96C201.221 52.96 200.549 53.392 200.059 54.256C199.579 55.1093 199.339 56.3947 199.339 58.112C199.339 59.744 199.573 60.992 200.043 61.856C200.512 62.72 201.189 63.152 202.075 63.152C202.917 63.152 203.563 62.7093 204.011 61.824C204.469 60.928 204.699 59.616 204.699 57.888C204.699 56.2667 204.475 55.04 204.027 54.208C203.579 53.376 202.928 52.96 202.075 52.96ZM213.813 58.864C213.909 58.0107 214.165 57.2853 214.581 56.688C214.997 56.0907 215.52 55.6427 216.149 55.344C216.779 55.0347 217.456 54.88 218.181 54.88C219.515 54.88 220.544 55.2907 221.269 56.112C221.995 56.9227 222.357 58.048 222.357 59.488C222.357 60.512 222.155 61.376 221.749 62.08C221.355 62.784 220.827 63.312 220.165 63.664C219.504 64.0053 218.773 64.176 217.973 64.176C216.693 64.176 215.691 63.8027 214.965 63.056C214.251 62.3093 213.861 61.2747 213.797 59.952H211.877V62.88L213.157 63.04V64H208.437V63.04L209.605 62.88V56.256L208.469 56.048V55.104H213.093V56.048L211.877 56.256V58.864H213.813ZM218.069 55.888C217.461 55.888 217.003 56.1653 216.693 56.72C216.384 57.2747 216.229 58.1493 216.229 59.344C216.229 60.6027 216.379 61.5573 216.677 62.208C216.976 62.848 217.451 63.168 218.101 63.168C218.699 63.168 219.147 62.8907 219.445 62.336C219.744 61.7707 219.893 60.8853 219.893 59.68C219.893 58.4213 219.749 57.4773 219.461 56.848C219.184 56.208 218.72 55.888 218.069 55.888ZM232.048 58.896C231.781 59.056 231.53 59.3867 231.296 59.888C231.072 60.3787 230.805 61.0453 230.496 61.888C230.229 62.6133 230.01 63.1467 229.84 63.488C229.68 63.8293 229.525 64 229.376 64H226.671V63.056L227.248 62.88C227.397 62.8373 227.546 62.6933 227.696 62.448C227.845 62.2027 228.037 61.8293 228.272 61.328C228.634 60.56 228.965 59.9467 229.264 59.488C229.562 59.0293 229.914 58.7093 230.32 58.528C229.573 58.336 228.997 57.9467 228.592 57.36C228.186 56.7733 227.984 56.096 227.984 55.328C227.984 54.1227 228.352 53.2693 229.088 52.768C229.824 52.256 230.954 52 232.48 52C232.864 52 233.333 52.0213 233.888 52.064C234.005 52.064 234.186 52.0747 234.432 52.096C234.677 52.1067 234.901 52.112 235.104 52.112H237.6V53.104L236.32 53.312V62.88L237.696 63.056V64H232.528V63.056L233.984 62.88V58.896H232.048ZM233.984 53.088C233.909 53.0773 233.76 53.0613 233.536 53.04C233.322 53.008 233.024 52.992 232.64 52.992C231.925 52.992 231.376 53.1627 230.992 53.504C230.618 53.8347 230.432 54.4267 230.432 55.28C230.432 56.1547 230.618 56.816 230.992 57.264C231.376 57.7013 231.93 57.92 232.656 57.92C233.338 57.92 233.781 57.8987 233.984 57.856V53.088ZM243.211 60.48C243.019 60.6187 242.853 60.8373 242.715 61.136C242.576 61.424 242.421 61.824 242.251 62.336C242.059 62.9013 241.888 63.3227 241.739 63.6C241.6 63.8667 241.429 64 241.227 64H238.587V63.04L239.227 62.88C239.493 62.8053 239.717 62.6507 239.899 62.416C240.08 62.1707 240.277 61.8347 240.491 61.408C240.64 61.12 240.768 60.8907 240.875 60.72C240.981 60.5493 241.099 60.4107 241.227 60.304C240.565 60.1227 240.069 59.808 239.739 59.36C239.408 58.912 239.243 58.352 239.243 57.68C239.243 56.8053 239.589 56.1387 240.283 55.68C240.987 55.2213 242.021 54.992 243.387 54.992C243.867 54.992 244.48 55.0133 245.227 55.056C245.664 55.088 246.032 55.104 246.331 55.104H248.251V56.064L247.163 56.256V62.88L248.315 63.04V64H243.675V63.04L244.923 62.88V60.48H243.211ZM244.923 56.032C244.571 55.9787 244.149 55.952 243.659 55.952C243.061 55.952 242.581 56.0693 242.219 56.304C241.867 56.5387 241.691 56.9493 241.691 57.536C241.691 58.1333 241.845 58.6187 242.155 58.992C242.475 59.3547 242.981 59.536 243.675 59.536C244.368 59.536 244.784 59.5253 244.923 59.504V56.032Z" fill="white"/>
</svg>
