<svg width="140" height="18" viewBox="0 0 140 18" fill="none" xmlns="http://www.w3.org/2000/svg">
<path d="M3.14 3.82L1.02 3.54V2.14H7.82L9.94 10.5L10.42 12.72L10.82 10.5L12.92 2.14H19.68V3.54L17.5 3.82L19.1 15.46L20.64 15.68V17H13.9V15.68L15.6 15.46L14.76 6.84L14.4 3.32L13.7 6.52L11.08 16.42H8.46L5.66 6.8L4.74 3.3L4.5 6.84L3.76 15.46L5.8 15.68V17H0.02V15.68L1.68 15.48L3.14 3.82ZM26.6836 17.22C24.8569 17.22 23.5036 16.7067 22.6236 15.68C21.7436 14.64 21.3036 13.2267 21.3036 11.44C21.3036 10.2267 21.5303 9.18 21.9836 8.3C22.4369 7.42 23.0703 6.75333 23.8836 6.3C24.7103 5.83333 25.6769 5.6 26.7836 5.6C28.1836 5.6 29.2503 5.95333 29.9836 6.66C30.7303 7.36667 31.1169 8.36667 31.1436 9.66C31.1436 10.5133 31.0836 11.2 30.9636 11.72H24.7036C24.7703 12.8533 25.0436 13.72 25.5236 14.32C26.0169 14.9067 26.7036 15.2 27.5836 15.2C28.0769 15.2 28.5903 15.12 29.1236 14.96C29.6703 14.7867 30.1103 14.5933 30.4436 14.38L31.0036 15.6C30.6569 15.9867 30.0636 16.3533 29.2236 16.7C28.3969 17.0467 27.5503 17.22 26.6836 17.22ZM27.9636 10.4L27.9836 9.56C27.9836 8.72 27.8703 8.08 27.6436 7.64C27.4169 7.2 27.0303 6.98 26.4836 6.98C25.9236 6.98 25.4903 7.22667 25.1836 7.72C24.8769 8.2 24.7103 9.09333 24.6836 10.4H27.9636ZM32.6178 15.68L33.8378 15.5V7.98L32.6578 7.62V6.06L35.9778 5.62H36.0378L36.5978 6.04V6.52L36.5378 8.18H36.5978C36.6911 7.87333 36.9045 7.52 37.2378 7.12C37.5711 6.70667 37.9911 6.35333 38.4978 6.06C39.0178 5.75333 39.5778 5.6 40.1778 5.6C40.5245 5.6 40.7911 5.64667 40.9778 5.74V9.22C40.7645 9.06 40.5311 8.93333 40.2778 8.84C40.0378 8.74667 39.7245 8.7 39.3378 8.7C38.8578 8.7 38.4245 8.76667 38.0378 8.9C37.6511 9.02 37.3445 9.16 37.1178 9.32V15.5L39.3178 15.7V17H32.6178V15.68ZM42.2272 15.68L43.4472 15.5V7.98L42.2672 7.62V6.06L45.5872 5.62H45.6472L46.2072 6.04V6.52L46.1472 8.18H46.2072C46.3005 7.87333 46.5139 7.52 46.8472 7.12C47.1805 6.70667 47.6005 6.35333 48.1072 6.06C48.6272 5.75333 49.1872 5.6 49.7872 5.6C50.1339 5.6 50.4005 5.64667 50.5872 5.74V9.22C50.3739 9.06 50.1405 8.93333 49.8872 8.84C49.6472 8.74667 49.3339 8.7 48.9472 8.7C48.4672 8.7 48.0339 8.76667 47.6472 8.9C47.2605 9.02 46.9539 9.16 46.7272 9.32V15.5L48.9272 15.7V17H42.2272V15.68ZM54.2566 4.16C53.7366 4.16 53.3166 4.00667 52.9966 3.7C52.6766 3.39333 52.5166 3 52.5166 2.52C52.5166 1.96 52.6899 1.5 53.0366 1.14C53.3966 0.779999 53.8766 0.599999 54.4766 0.599999C55.0766 0.599999 55.5366 0.753332 55.8566 1.06C56.1766 1.36667 56.3366 1.76 56.3366 2.24C56.3366 2.81333 56.1566 3.28 55.7966 3.64C55.4366 3.98667 54.9299 4.16 54.2766 4.16H54.2566ZM53.0366 7.98L51.6966 7.6V6.1L55.6966 5.62H55.7366L56.3566 6.04V15.5L57.5566 15.68V17H51.7966V15.68L53.0366 15.5V7.98ZM57.7455 5.9H63.2255V7.16L61.8855 7.38L63.2455 12.36L63.6655 14.34L64.0255 12.36L65.7455 5.9H68.4455L70.4255 12.36L70.8455 14.32L71.2455 12.36L72.5055 7.4L71.0655 7.16V5.9H75.4655V7.16L74.5055 7.38L71.4855 17.16H68.9455L66.9655 11.04L66.5455 8.72L66.2455 11.04L64.4655 17.16H61.8655L58.6855 7.38L57.7455 7.16V5.9ZM80.9219 17.22C79.0952 17.22 77.7419 16.7067 76.8619 15.68C75.9819 14.64 75.5419 13.2267 75.5419 11.44C75.5419 10.2267 75.7685 9.18 76.2219 8.3C76.6752 7.42 77.3085 6.75333 78.1219 6.3C78.9485 5.83333 79.9152 5.6 81.0219 5.6C82.4219 5.6 83.4885 5.95333 84.2219 6.66C84.9685 7.36667 85.3552 8.36667 85.3819 9.66C85.3819 10.5133 85.3219 11.2 85.2019 11.72H78.9419C79.0085 12.8533 79.2819 13.72 79.7619 14.32C80.2552 14.9067 80.9419 15.2 81.8219 15.2C82.3152 15.2 82.8285 15.12 83.3619 14.96C83.9085 14.7867 84.3485 14.5933 84.6819 14.38L85.2419 15.6C84.8952 15.9867 84.3019 16.3533 83.4619 16.7C82.6352 17.0467 81.7885 17.22 80.9219 17.22ZM82.2019 10.4L82.2219 9.56C82.2219 8.72 82.1085 8.08 81.8819 7.64C81.6552 7.2 81.2685 6.98 80.7219 6.98C80.1619 6.98 79.7285 7.22667 79.4219 7.72C79.1152 8.2 78.9485 9.09333 78.9219 10.4H82.2019ZM86.5561 13.8C86.5561 12.6267 87.1494 11.7267 88.3361 11.1C89.5361 10.4733 91.1094 10.1533 93.0561 10.14V9.74C93.0561 9.26 93.0028 8.88 92.8961 8.6C92.7894 8.32 92.5961 8.11333 92.3161 7.98C92.0361 7.83333 91.6228 7.76 91.0761 7.76C90.4228 7.76 89.8361 7.84 89.3161 8C88.8094 8.14667 88.2761 8.34667 87.7161 8.6L87.0361 7.16C87.2494 6.98667 87.5961 6.78 88.0761 6.54C88.5561 6.28667 89.1294 6.07333 89.7961 5.9C90.4761 5.71333 91.1828 5.62 91.9161 5.62C92.9828 5.62 93.8161 5.76 94.4161 6.04C95.0294 6.32 95.4628 6.75333 95.7161 7.34C95.9828 7.92667 96.1161 8.72667 96.1161 9.74V15.68H97.1561V16.94C96.8494 17.0067 96.4228 17.0733 95.8761 17.14C95.3294 17.2067 94.8628 17.24 94.4761 17.24C93.9694 17.24 93.6294 17.1667 93.4561 17.02C93.2961 16.8733 93.2161 16.58 93.2161 16.14V15.68C92.8828 16.08 92.4361 16.44 91.8761 16.76C91.3161 17.0667 90.6694 17.22 89.9361 17.22C89.3094 17.22 88.7361 17.0867 88.2161 16.82C87.7094 16.54 87.3028 16.1467 86.9961 15.64C86.7028 15.12 86.5561 14.5067 86.5561 13.8ZM91.4961 15.38C91.7361 15.38 92.0028 15.3133 92.2961 15.18C92.5894 15.0333 92.8428 14.86 93.0561 14.66V11.48C92.0161 11.48 91.2428 11.6667 90.7361 12.04C90.2428 12.4133 89.9961 12.8933 89.9961 13.48C89.9961 14.08 90.1294 14.5467 90.3961 14.88C90.6628 15.2133 91.0294 15.38 91.4961 15.38ZM101.622 17.18C100.742 17.18 100.089 16.98 99.6623 16.58C99.249 16.1667 99.0423 15.5333 99.0423 14.68V7.56H97.8223V6.4L98.2223 6.24C98.5423 6.13333 98.8223 6.02 99.0623 5.9C99.329 5.64667 99.5423 5.31333 99.7023 4.9C99.9023 4.42 100.122 3.74667 100.362 2.88H102.222L102.342 5.88H105.202V7.56H102.382V12.86C102.382 13.5933 102.402 14.1067 102.442 14.4C102.482 14.6933 102.556 14.8867 102.662 14.98C102.782 15.06 102.996 15.1 103.302 15.1C103.929 15.1 104.522 14.9933 105.082 14.78L105.502 16.04C105.129 16.3467 104.576 16.6133 103.842 16.84C103.109 17.0667 102.369 17.18 101.622 17.18ZM107.306 2.56L105.886 2.3V1.08L109.906 0.599999H109.966L110.546 1.02L110.566 5.36L110.406 7.14C110.82 6.75333 111.366 6.41333 112.046 6.12C112.726 5.81333 113.473 5.66 114.286 5.66C115.126 5.66 115.78 5.81333 116.246 6.12C116.713 6.42667 117.04 6.89333 117.226 7.52C117.413 8.14667 117.506 8.98 117.506 10.02V15.5L118.726 15.68V17H113.166V15.68L114.226 15.5V10.04C114.226 9.10667 114.126 8.46 113.926 8.1C113.726 7.72667 113.32 7.54 112.706 7.54C112.333 7.54 111.96 7.62667 111.586 7.8C111.213 7.96 110.9 8.16 110.646 8.4V15.5L111.746 15.68V17H106.266V15.68L107.306 15.5V2.56ZM125.102 17.22C123.275 17.22 121.922 16.7067 121.042 15.68C120.162 14.64 119.722 13.2267 119.722 11.44C119.722 10.2267 119.948 9.18 120.402 8.3C120.855 7.42 121.488 6.75333 122.302 6.3C123.128 5.83333 124.095 5.6 125.202 5.6C126.602 5.6 127.668 5.95333 128.402 6.66C129.148 7.36667 129.535 8.36667 129.562 9.66C129.562 10.5133 129.502 11.2 129.382 11.72H123.122C123.188 12.8533 123.462 13.72 123.942 14.32C124.435 14.9067 125.122 15.2 126.002 15.2C126.495 15.2 127.008 15.12 127.542 14.96C128.088 14.7867 128.528 14.5933 128.862 14.38L129.422 15.6C129.075 15.9867 128.482 16.3533 127.642 16.7C126.815 17.0467 125.968 17.22 125.102 17.22ZM126.382 10.4L126.402 9.56C126.402 8.72 126.288 8.08 126.062 7.64C125.835 7.2 125.448 6.98 124.902 6.98C124.342 6.98 123.908 7.22667 123.602 7.72C123.295 8.2 123.128 9.09333 123.102 10.4H126.382ZM131.036 15.68L132.256 15.5V7.98L131.076 7.62V6.06L134.396 5.62H134.456L135.016 6.04V6.52L134.956 8.18H135.016C135.109 7.87333 135.322 7.52 135.656 7.12C135.989 6.70667 136.409 6.35333 136.916 6.06C137.436 5.75333 137.996 5.6 138.596 5.6C138.942 5.6 139.209 5.64667 139.396 5.74V9.22C139.182 9.06 138.949 8.93333 138.696 8.84C138.456 8.74667 138.142 8.7 137.756 8.7C137.276 8.7 136.842 8.76667 136.456 8.9C136.069 9.02 135.762 9.16 135.536 9.32V15.5L137.736 15.7V17H131.036V15.68Z" fill="white"/>
</svg>
